<svg width="279" height="225" viewBox="0 0 279 225" fill="none" xmlns="http://www.w3.org/2000/svg">
<g clip-path="url(#clip0_6223_517)">
<path d="M119.907 114.016C116.296 114.016 113.27 113.756 109.69 114.067C106.348 114.357 102.851 114.356 98.742 114.206C94.746 114.059 90.775 114.018 86.742 114.017C85.765 114.017 84.965 113.217 84.965 112.24C84.965 107.161 84.948 102.107 84.883 97.0553C84.834 93.1783 84.965 89.3663 84.965 85.4863V79.0763C84.965 78.0993 85.765 77.2993 86.742 77.2993C91.765 77.2993 96.802 77.6393 101.79 77.3463C106.502 77.0693 109.435 77.2993 113.193 77.2993H119.906C120.884 77.2993 121.683 78.0993 121.683 79.0763V112.24C121.683 113.218 120.883 114.017 119.906 114.017L119.907 114.016Z" fill="white" stroke="black" stroke-linecap="round" stroke-linejoin="round"/>
<path d="M113.255 92.9173C113.778 95.1703 113.323 97.4793 112.624 99.6183C106.422 99.6183 100.372 99.6413 94.1668 99.6603C93.7768 98.5683 93.4898 97.4703 93.3118 96.8053C92.5618 94.0013 95.6268 89.9203 98.6628 89.7893C99.3298 90.7133 100.588 91.0503 101.649 90.5303C102.615 90.0593 103.126 88.8703 102.947 87.8183C103.131 87.8003 103.314 87.8013 103.495 87.8233C104.217 87.9123 104.967 88.2913 105.634 88.0013C106.054 87.8203 106.323 87.4193 106.62 87.0723C107.969 85.5043 110.346 84.9223 112.266 85.6903C111.456 85.7543 110.902 86.6263 110.912 87.4363C110.922 88.2483 111.614 90.0163 112.067 90.6883C112.522 91.3593 113.028 92.0253 113.229 92.8103C113.239 92.8453 113.248 92.8823 113.255 92.9173Z" fill="white" stroke="black" stroke-linecap="round" stroke-linejoin="round"/>
<path d="M112.862 99.6184C112.243 101.262 111.941 102.949 111.405 104.604C111.204 105.23 111.096 106.085 110.688 106.664C110.26 107.269 108.985 107.288 108.097 107.343C105.284 107.517 102.451 107.526 99.636 107.365C98.801 107.318 97.497 107.216 97.03 106.666C96.955 106.575 96.887 106.471 96.826 106.361C96.559 105.858 96.444 105.189 96.215 104.721C95.397 103.037 94.695 101.326 93.79 99.6624C93.916 99.6624 112.782 99.6184 112.862 99.6184Z" fill="white" stroke="black" stroke-linecap="round" stroke-linejoin="round"/>
<path d="M102.947 87.8183C102.917 87.6423 102.869 87.4693 102.799 87.3053C102.716 87.1053 102.6 86.9183 102.454 86.7483C102.011 86.2363 101.251 85.9973 100.615 86.2263C100.451 86.2853 100.265 86.3353 100.072 86.3853C99.4053 86.5563 98.6403 86.7323 98.3643 87.3163C98.0723 87.9273 98.1533 88.8343 98.4453 89.4293C98.5083 89.5563 98.5813 89.6773 98.6643 89.7883C99.3313 90.7123 100.589 91.0493 101.65 90.5293C102.616 90.0583 103.127 88.8693 102.948 87.8173L102.947 87.8183Z" fill="#E60000" stroke="black" stroke-miterlimit="10"/>
<path d="M96.4502 94.8923L98.0482 95.5763" stroke="black" stroke-linecap="round" stroke-linejoin="round"/>
<path d="M108.094 91.6763L106.933 90.5593" stroke="black" stroke-linecap="round" stroke-linejoin="round"/>
<path d="M110.844 95.9912L109.311 97.2162" stroke="black" stroke-linecap="round" stroke-linejoin="round"/>
<path d="M101.058 80.9854C99.9116 82.6604 99.6336 84.8854 100.332 86.7924C100.338 86.8084 100.343 86.8233 100.347 86.8403" stroke="black" stroke-linecap="round" stroke-linejoin="round"/>
<path d="M102.362 93.5273C102.783 93.1303 103.241 92.7703 103.723 92.4573" stroke="black" stroke-linecap="round" stroke-linejoin="round"/>
<path d="M199.968 119.56H176.723C176.038 119.56 175.478 119 175.477 118.316C175.472 114.415 175.906 110.735 175.555 106.879C175.217 103.168 175.477 98.8455 175.477 95.0695C175.477 94.3845 176.038 93.8235 176.723 93.8235H199.968C200.653 93.8235 201.214 94.3845 201.214 95.0695C201.214 100.436 200.375 106.263 201.014 111.581C201.279 113.784 201.216 116.056 201.214 118.315C201.214 119 200.653 119.56 199.968 119.56Z" fill="white" stroke="black" stroke-linecap="round" stroke-linejoin="round"/>
<path d="M185.545 102.932L185.574 104.713L183.75 104.74L183.721 102.959L185.545 102.932ZM185.545 101.932H185.53L183.706 101.959C183.441 101.963 183.188 102.072 183.003 102.263C182.818 102.454 182.717 102.71 182.721 102.975L182.75 104.756C182.759 105.302 183.205 105.739 183.75 105.739H183.765L185.589 105.712C185.854 105.708 186.107 105.599 186.292 105.408C186.477 105.217 186.578 104.961 186.574 104.696L186.545 102.915C186.536 102.369 186.09 101.932 185.545 101.932Z" fill="black"/>
<path d="M185.664 109.927L185.693 111.708L183.868 111.735L183.839 109.954L185.664 109.927ZM185.664 108.927H185.649L183.824 108.954C183.559 108.958 183.306 109.067 183.121 109.258C182.936 109.449 182.835 109.705 182.839 109.97L182.868 111.751C182.877 112.297 183.323 112.734 183.868 112.734H183.883L185.708 112.707C185.973 112.703 186.226 112.594 186.411 112.403C186.596 112.212 186.697 111.956 186.693 111.691L186.664 109.91C186.655 109.364 186.209 108.927 185.664 108.927Z" fill="black"/>
<path d="M193.145 102.817L193.174 104.598L191.35 104.625L191.321 102.844L193.145 102.817ZM193.145 101.817H193.13L191.306 101.844C191.041 101.848 190.788 101.957 190.603 102.148C190.418 102.339 190.317 102.595 190.321 102.86L190.35 104.641C190.359 105.187 190.805 105.624 191.35 105.624H191.365L193.189 105.597C193.454 105.593 193.707 105.484 193.892 105.293C194.077 105.102 194.178 104.846 194.174 104.581L194.145 102.8C194.136 102.254 193.69 101.817 193.145 101.817Z" fill="black"/>
<path d="M193.282 110.858L193.291 111.472L192.651 111.482L192.642 110.868L193.282 110.858ZM193.282 109.858H193.266L192.626 109.868C192.074 109.877 191.633 110.331 191.642 110.883L191.651 111.497C191.655 111.762 191.764 112.015 191.955 112.2C192.142 112.381 192.391 112.482 192.651 112.482H192.667L193.307 112.472C193.859 112.463 194.3 112.009 194.291 111.457L194.282 110.843C194.278 110.578 194.169 110.325 193.978 110.14C193.791 109.959 193.542 109.858 193.282 109.858Z" fill="black"/>
<path d="M193.655 97.8524L196.697 97.7634L196.785 100.881" stroke="black" stroke-linecap="round" stroke-linejoin="round"/>
<path d="M183.571 114.89L180.31 114.936L180.389 111.897" stroke="black" stroke-linecap="round" stroke-linejoin="round"/>
<path d="M193.684 114.759H196.736L196.756 111.651" fill="white"/>
<path d="M193.684 114.759H196.736L196.756 111.651" stroke="black" stroke-linecap="round" stroke-linejoin="round"/>
<path d="M180.971 100.993C176.187 100.993 171.53 100.282 166.786 100.78C164.863 100.982 162.996 100.652 161.099 100.844C151.446 101.822 141.736 100.993 132.062 100.993C130.62 100.993 129.441 99.8133 129.441 98.3723V49.4623C129.441 48.0203 130.621 46.8413 132.062 46.8413H143.027C146.364 46.8413 149.815 46.5844 153.139 46.8564C156.131 47.1014 159.137 46.7464 162.122 47.0024C168.297 47.5314 174.748 46.8413 180.972 46.8413C182.414 46.8413 183.593 48.0213 183.593 49.4623C183.593 55.4323 184.014 61.2734 183.741 67.2094C183.266 77.5544 183.593 87.9963 183.593 98.3713C183.593 99.8133 182.413 100.992 180.972 100.992L180.971 100.993Z" fill="white" stroke="black" stroke-miterlimit="10" stroke-linecap="round"/>
<path d="M143.605 88.3543C143.349 88.3543 143.102 88.2983 142.872 88.1893C141.068 87.3343 136.832 85.2363 136.43 84.2473C136.28 83.7323 136.578 83.1823 137.275 82.6053C138.454 81.6293 139.349 80.2683 139.863 78.6673L141.392 73.9103C141.423 73.8113 141.485 73.7243 141.568 73.6623L145.433 68.2153C145.796 67.7003 146.395 67.3923 147.032 67.3923C147.251 67.3923 147.466 67.4283 147.672 67.5003L154.273 69.8013C154.682 69.9443 155 70.2613 155.142 70.6713C155.285 71.0823 155.234 71.5263 155.002 71.8933L145.073 87.5473C144.752 88.0523 144.204 88.3533 143.607 88.3533L143.605 88.3543Z" fill="white"/>
<path d="M147.03 67.8923C147.189 67.8923 147.349 67.9183 147.505 67.9723L154.106 70.2733C154.371 70.3653 154.575 70.5703 154.668 70.8353C154.76 71.1003 154.727 71.3883 154.577 71.6263L144.65 87.2793C144.415 87.6473 144.015 87.8533 143.605 87.8533C143.43 87.8533 143.252 87.8153 143.086 87.7363C138.489 85.5543 137.029 84.3923 136.892 84.0563C136.821 83.8083 137.084 83.4093 137.593 82.9883C138.845 81.9513 139.794 80.5103 140.338 78.8183L141.867 74.0613C141.916 74.0243 141.961 73.9793 141.999 73.9263L145.842 68.5033C146.118 68.1123 146.569 67.8913 147.031 67.8913M147.03 66.8923C146.231 66.8923 145.481 67.2793 145.023 67.9273L141.212 73.3053C141.073 73.4253 140.97 73.5813 140.913 73.7563L139.384 78.5133C138.899 80.0233 138.059 81.3043 136.954 82.2193C135.866 83.1203 135.796 83.8653 135.929 84.3323C135.939 84.3673 135.951 84.4013 135.964 84.4353C136.309 85.2823 138.56 86.6973 142.655 88.6413C142.954 88.7833 143.273 88.8543 143.603 88.8543C144.372 88.8543 145.078 88.4663 145.491 87.8173L155.419 72.1623C155.733 71.6633 155.801 71.0623 155.61 70.5093C155.415 69.9513 154.986 69.5233 154.432 69.3303L147.831 67.0293C147.573 66.9393 147.302 66.8933 147.027 66.8933L147.03 66.8923Z" fill="black"/>
<path d="M129.44 84.0352L132.799 80.2972L133.501 78.2682C133.811 77.3722 134.298 76.5662 134.947 75.8722L137.507 73.1432C138.396 72.1932 139.097 71.1002 139.587 69.8932L140.139 68.5362C140.293 68.1562 140.642 67.9092 141.053 67.8922C141.492 67.8782 141.831 68.0922 142.017 68.4562L142.47 69.3442C142.812 70.0142 142.992 70.7382 143.006 71.4702" stroke="black" stroke-linecap="round" stroke-linejoin="round"/>
<path d="M147.773 84.3374C147.33 84.3114 146.923 84.0704 146.687 83.6924C146.451 83.3154 146.413 82.8434 146.583 82.4324L149.12 77.4404C149.421 76.7154 150.156 76.2254 150.977 76.2234H151.519L151.998 76.2884C152.669 76.3894 153.088 76.6304 153.27 77.0254C153.542 77.6134 153.152 78.2434 152.837 78.7504C152.724 78.9344 152.61 79.1094 152.551 79.2644C152.483 79.4444 152.431 79.7004 152.377 79.9714C152.258 80.5644 152.095 81.3734 151.565 81.8154C151.895 82.2394 151.993 82.6484 151.854 83.0374C151.413 84.2814 148.607 84.3444 148.049 84.3444C147.937 84.3444 147.843 84.3424 147.771 84.3374H147.773Z" fill="white"/>
<path d="M151.521 76.7224C151.521 76.7224 151.915 76.7814 151.917 76.7814C153.768 77.0594 152.384 78.3074 152.087 79.0854C151.77 79.9154 151.854 81.5794 150.678 81.6344C152.973 83.4994 149.291 83.8444 148.049 83.8444C147.95 83.8444 147.866 83.8424 147.802 83.8384C147.199 83.8024 146.812 83.1814 147.045 82.6244L149.565 77.6674C149.803 77.0974 150.361 76.7254 150.979 76.7244H151.52M151.521 75.7224H150.978C149.968 75.7254 149.063 76.3204 148.66 77.2424L146.155 82.1704C146.144 82.1924 146.133 82.2154 146.124 82.2384C145.89 82.7984 145.942 83.4404 146.263 83.9554C146.584 84.4704 147.138 84.7994 147.744 84.8364C147.823 84.8414 147.927 84.8444 148.05 84.8444C149.161 84.8444 151.802 84.6844 152.328 83.2044C152.486 82.7604 152.443 82.3144 152.203 81.8694C152.621 81.3104 152.77 80.5674 152.87 80.0704C152.918 79.8314 152.968 79.5844 153.022 79.4424C153.057 79.3504 153.173 79.1634 153.266 79.0124C153.623 78.4364 154.111 77.6474 153.726 76.8154C153.471 76.2634 152.912 75.9194 152.066 75.7934L151.669 75.7344C151.62 75.7274 151.571 75.7234 151.522 75.7234L151.521 75.7224Z" fill="black"/>
<path d="M140.637 87.7253L137.721 89.1843C137.286 89.4023 136.904 89.7233 136.616 90.1143L130.311 98.6773" stroke="black" stroke-miterlimit="10" stroke-linecap="round"/>
<path d="M168.629 87.4843C167.954 87.4843 167.335 87.0883 167.05 86.4733L160.113 71.4173C159.935 71.0283 159.933 70.5843 160.107 70.1963C160.286 69.8043 160.621 69.5113 161.029 69.3903L167.618 67.4253C167.759 67.3833 167.9 67.3633 168.043 67.3633C168.61 67.3633 169.117 67.6823 169.365 68.1973L173.971 77.7833C173.993 77.8293 174.008 77.8783 174.016 77.9293L174.267 79.6823C174.343 80.2113 174.811 80.8133 175.224 81.3443C175.421 81.5973 175.582 81.8063 175.697 81.9903L176.717 83.6123C176.865 83.8463 176.903 84.1353 176.818 84.4023C176.729 84.6703 176.545 84.8773 176.311 84.9743L169.259 87.3643C169.075 87.4393 168.855 87.4823 168.629 87.4823V87.4843Z" fill="white"/>
<path d="M168.043 67.8652C168.41 67.8652 168.748 68.0712 168.915 68.4162L173.521 78.0022L173.771 79.7552C173.866 80.4162 174.378 81.0742 174.829 81.6542C174.998 81.8722 175.159 82.0762 175.271 82.2562L176.292 83.8812C176.388 84.0332 176.363 84.1792 176.339 84.2532C176.315 84.3272 176.251 84.4602 176.118 84.5152L169.098 86.8932C168.944 86.9552 168.785 86.9852 168.628 86.9852C168.157 86.9852 167.712 86.7172 167.503 86.2642L160.566 71.2092C160.448 70.9532 160.447 70.6592 160.562 70.4022C160.678 70.1452 160.899 69.9522 161.17 69.8712L167.759 67.9062C167.853 67.8782 167.948 67.8652 168.041 67.8652M168.043 66.8652C167.853 66.8652 167.663 66.8932 167.478 66.9472L160.886 68.9132C160.339 69.0762 159.889 69.4682 159.653 69.9902C159.418 70.5142 159.421 71.1092 159.659 71.6272L166.596 86.6832C166.962 87.4752 167.76 87.9852 168.629 87.9852C168.908 87.9852 169.181 87.9342 169.442 87.8332L176.44 85.4622C176.461 85.4552 176.482 85.4472 176.503 85.4382C176.875 85.2832 177.163 84.9622 177.293 84.5572C177.424 84.1482 177.367 83.7062 177.137 83.3442L176.119 81.7242C175.988 81.5142 175.823 81.3012 175.648 81.0772C175.263 80.5822 174.819 80.0122 174.762 79.6132L174.512 77.8612C174.498 77.7602 174.468 77.6612 174.423 77.5692L169.817 67.9832C169.483 67.2922 168.804 66.8652 168.043 66.8652Z" fill="black"/>
<path d="M171.089 71.3044L172.016 70.4754C172.369 70.2244 172.746 70.1854 173.078 70.3204C173.386 70.4484 173.612 70.7094 173.694 71.0294L174.578 73.1764C174.935 73.7634 175.482 74.3464 176.122 74.7844L178.143 76.1694C179.165 76.8694 180.03 77.8064 180.644 78.8784L182.324 81.8044L183.488 82.6774" stroke="black" stroke-miterlimit="10" stroke-linecap="round"/>
<path d="M183.242 97.4044L177.509 89.6594C176.803 88.7054 175.837 87.9994 174.714 87.6174L172.271 86.7864" stroke="black" stroke-linecap="round" stroke-linejoin="round"/>
<path d="M165.39 86.7014C164.039 86.7014 162.952 84.3904 162.808 83.6894C162.763 83.4734 162.747 83.3214 162.736 83.2004C162.725 83.0894 162.677 82.9874 162.594 82.8944C162.406 82.6844 162.228 82.5494 162.072 82.4314C161.882 82.2874 161.702 82.1514 161.571 81.9364C161.32 81.5234 161.385 81.0374 161.563 80.4344C161.675 80.0484 161.849 79.6834 162.017 79.3294C162.094 79.1664 162.17 79.0054 162.239 78.8454C162.484 78.2744 163.022 77.9204 163.643 77.9204C164.199 77.9204 164.694 78.2094 164.968 78.6924L167.419 83.0024C167.69 83.4764 167.685 84.0634 167.406 84.5344L166.604 85.8884C166.205 86.5614 165.723 86.7024 165.389 86.7024L165.39 86.7014Z" fill="white"/>
<path d="M163.642 78.4204C163.987 78.4204 164.334 78.5904 164.532 78.9394L166.983 83.2494C167.165 83.5694 167.162 83.9624 166.974 84.2794L166.172 85.6324C165.932 86.0384 165.663 86.2014 165.388 86.2014C164.446 86.2014 163.437 84.2754 163.295 83.5894C163.169 82.9794 163.308 82.9434 162.965 82.5604C162.529 82.0754 162.161 81.9474 161.997 81.6774C161.87 81.4694 161.864 81.1774 162.041 80.5754C162.194 80.0544 162.483 79.5434 162.698 79.0424C162.874 78.6314 163.258 78.4204 163.643 78.4204M163.642 77.4204C162.83 77.4204 162.098 77.9024 161.778 78.6484C161.712 78.8024 161.638 78.9574 161.564 79.1134C161.388 79.4844 161.205 79.8684 161.081 80.2934C160.896 80.9254 160.775 81.5934 161.142 82.1964C161.322 82.4924 161.559 82.6714 161.768 82.8294C161.92 82.9444 162.064 83.0534 162.221 83.2284C162.226 83.2344 162.231 83.2394 162.236 83.2454V83.2484C162.249 83.3814 162.266 83.5504 162.316 83.7904C162.459 84.4844 163.637 87.2014 165.388 87.2014C165.768 87.2014 166.486 87.0634 167.033 86.1424L167.835 84.7894C168.205 84.1654 168.212 83.3854 167.853 82.7554L165.402 78.4454C165.037 77.8044 164.379 77.4204 163.642 77.4204Z" fill="black"/>
<path d="M157.472 67.3234C153.952 67.3234 151.089 64.4594 151.089 60.9404C151.089 57.4214 153.952 54.5574 157.472 54.5574C160.992 54.5574 163.856 57.4214 163.856 60.9404C163.856 64.4594 160.993 67.3234 157.472 67.3234Z" fill="#CCCABC"/>
<path d="M157.472 55.0574C160.721 55.0574 163.355 57.6914 163.355 60.9404C163.355 64.1894 160.721 66.8234 157.472 66.8234C154.223 66.8234 151.589 64.1894 151.589 60.9404C151.589 57.6914 154.223 55.0574 157.472 55.0574ZM157.472 54.0574C153.677 54.0574 150.589 57.1454 150.589 60.9404C150.589 64.7354 153.677 67.8234 157.472 67.8234C161.267 67.8234 164.355 64.7354 164.355 60.9404C164.355 57.1454 161.267 54.0574 157.472 54.0574Z" fill="black"/>
<path d="M154.438 61.5504C155.019 62.0914 155.601 62.6314 156.182 63.1724C156.439 63.4114 156.733 63.7944 157.081 63.8954C157.585 64.0424 157.881 63.6764 158.147 63.3184C159.089 62.0534 160.032 60.7874 160.974 59.5224C161.168 59.2614 161.017 58.8504 160.758 58.6984C160.451 58.5184 160.129 58.6524 159.934 58.9144C159.43 59.5914 158.926 60.2684 158.422 60.9454C158.181 61.2694 157.94 61.5924 157.699 61.9164C157.471 62.2234 157.249 62.6404 156.953 62.8824L157.219 62.7274L157.144 62.7484H157.464C157.589 62.8364 157.594 62.8324 157.481 62.7354L157.319 62.5844L157.076 62.3584L156.467 61.7924C156.075 61.4274 155.683 61.0634 155.291 60.6984C154.724 60.1714 153.871 61.0204 154.44 61.5494L154.438 61.5504Z" fill="black"/>
<path d="M73.5177 68.4083L73.5817 68.2583C74.5217 68.2263 75.4737 68.1943 76.4137 68.1833L76.4247 68.4294C76.3067 75.3224 75.1317 79.6724 73.3357 86.3204C72.2457 86.4484 70.5997 86.0313 69.5527 85.7753C70.4827 82.6223 72.8447 71.8603 73.5177 68.4083Z" fill="white" stroke="black" stroke-linecap="round" stroke-linejoin="round"/>
<path d="M92.1569 85.2194L92.1679 85.3154C86.2259 85.7854 79.8669 85.9564 73.3469 86.3204H73.3359C75.1309 79.6724 76.3069 75.3234 76.4249 68.4294L76.4139 68.1834C77.1299 68.1624 77.8349 68.1404 78.5409 68.1404C80.7959 68.0974 83.0399 68.0874 85.2949 68.1194C86.3209 68.1194 87.3579 68.1404 88.3939 68.1624L88.4049 68.1734C89.5379 74.7464 90.7569 78.7004 92.1569 85.2194Z" fill="white" stroke="black" stroke-linecap="round" stroke-linejoin="round"/>
<path d="M84.7872 68.0603C84.4482 67.0153 84.0652 65.9383 83.3862 65.0583C82.8912 64.4053 81.9962 63.7313 81.0992 63.9563C79.8282 64.2683 79.1592 66.5013 79.0752 68.1473" stroke="black" stroke-linecap="round" stroke-linejoin="round"/>
<path d="M171.691 124.618H165.995C165.827 124.618 165.69 124.755 165.69 124.923V130.619C165.69 130.788 165.827 130.924 165.995 130.924H171.691C171.86 130.924 171.996 130.788 171.996 130.619V124.923C171.996 124.755 171.86 124.618 171.691 124.618Z" fill="white" stroke="black" stroke-linecap="round" stroke-linejoin="round"/>
<path d="M217.637 82.1734C214.616 83.3494 212.496 85.3344 211.333 87.4244C210.334 89.1954 209.869 91.1074 209.706 92.9694C209.721 90.1094 208.198 87.3084 205.406 85.1624C204.298 84.3054 202.861 83.3094 201.192 82.9384C204.212 81.7524 206.415 79.9924 207.578 77.9024C208.577 76.1314 209.042 74.2194 209.205 72.3574C209.19 75.2174 210.713 78.0184 213.505 80.1644C214.613 81.0214 215.957 81.7934 217.636 82.1744L217.637 82.1734Z" fill="white"/>
<path d="M209.264 71.3594C209.252 71.6914 209.24 72.0234 209.206 72.3554C209.196 72.0244 209.219 71.6924 209.264 71.3594Z" fill="white"/>
<path d="M209.706 92.9683C209.716 93.2993 209.693 93.6313 209.648 93.9643C209.66 93.6323 209.672 93.3003 209.706 92.9683Z" fill="white"/>
<path d="M209.206 72.3555C209.043 74.2175 208.579 76.1295 207.579 77.9005C206.416 79.9905 204.213 81.7505 201.193 82.9365" stroke="black" stroke-linecap="round" stroke-linejoin="round"/>
<path d="M209.206 72.3554C209.196 72.0244 209.219 71.6924 209.264 71.3594C209.252 71.6914 209.24 72.0234 209.206 72.3554Z" stroke="black" stroke-linecap="round" stroke-linejoin="round"/>
<path d="M209.706 92.9685C209.869 91.1065 210.333 89.1945 211.333 87.4235C212.496 85.3335 214.616 83.3495 217.637 82.1725C215.958 81.7915 214.614 81.0195 213.506 80.1625C210.714 78.0165 209.192 75.2155 209.206 72.3555" stroke="black" stroke-linecap="round" stroke-linejoin="round"/>
<path d="M209.706 92.9683C209.716 93.2993 209.693 93.6313 209.648 93.9643C209.66 93.6323 209.672 93.3003 209.706 92.9683Z" stroke="black" stroke-linecap="round" stroke-linejoin="round"/>
<path d="M201.193 82.9363C202.861 83.3083 204.298 84.3033 205.407 85.1603C208.199 87.3063 209.721 90.1073 209.707 92.9673" stroke="black" stroke-linecap="round" stroke-linejoin="round"/>
<path d="M136.847 62.5324C135.092 61.9644 133.603 60.7884 132.24 59.5464C131.763 59.1124 131.294 58.6634 130.92 58.1384C130.519 57.5754 130.236 56.9364 130 56.2864C129.495 54.8994 129.535 52.8004 129.439 51.3274C129.379 51.8184 129.057 52.1214 128.963 52.6064C128.3 56.0324 125.424 59.6394 122.205 60.9854C122.076 61.0394 121.958 61.2534 122.096 61.2684C122.387 61.3014 122.52 61.4434 122.776 61.5844C124.054 62.2854 125.36 63.0084 126.32 64.1064C127.09 64.9864 127.595 66.0614 128.09 67.1204C128.607 68.2254 129.129 69.3464 129.341 70.5484C129.404 70.9064 129.439 71.2684 129.474 71.6304C129.551 69.6554 130.867 67.8804 132.237 66.4554C133.602 65.0354 135.047 63.3344 136.847 62.5344V62.5324Z" fill="white" stroke="black" stroke-linecap="round" stroke-linejoin="round"/>
<mask id="mask0_6223_517" style="mask-type:luminance" maskUnits="userSpaceOnUse" x="87" y="0" width="105" height="35">
<path d="M192 0.255371H87V34.7704H192V0.255371Z" fill="white"/>
</mask>
<g mask="url(#mask0_6223_517)">
<path d="M116.976 25.3495C116.976 25.7775 116.633 26.2915 116.291 26.5485L102.759 34.3415C102.331 34.5975 101.731 34.5975 101.388 34.3415L87.8559 26.5485C87.4279 26.2925 87.1709 25.7785 87.1709 25.3495V9.67645C87.1709 9.24845 87.5139 8.73446 87.8559 8.47746L101.389 0.683455C101.817 0.427455 102.417 0.427455 102.76 0.683455L116.292 8.47645C116.72 8.73245 116.977 9.24646 116.977 9.67546V25.3485L116.976 25.3495ZM192.001 10.7905H179.926V13.7025H184.294V26.1205H187.719V13.7025H192.087V10.7905H192.001ZM137.017 10.7905H124.855V13.7025H129.223V26.1205H132.648V13.7025H137.016L137.017 10.7905ZM172.046 10.3615C168.192 10.3615 166.136 12.7595 166.136 16.3565V26.2055H169.561V16.3565C169.561 14.8145 170.503 13.6155 172.131 13.6155C173.759 13.6155 174.701 14.9865 174.701 16.3565V26.2055H178.126V16.3565C178.126 12.8445 175.985 10.3615 172.131 10.3615H172.046ZM159.284 10.7905V26.1205H162.709V10.7905H159.284ZM147.808 16.8705V17.5555C147.893 17.5555 151.148 26.1205 151.148 26.1205H152.519L156.887 10.7905H153.547L151.491 18.8415L151.32 19.6985L151.149 18.8415L148.408 10.7905H147.295L144.554 18.8415L144.383 19.6985V18.8415C144.298 18.8415 142.242 10.7905 142.242 10.7905H138.902L143.27 26.1205H144.641L147.81 17.5555V16.8705H147.808Z" fill="black"/>
<path d="M109.097 17.5554L105.585 22.7804L103.787 20.0394L105.843 16.9564C106.271 16.4424 107.042 14.9004 106.099 12.7594C105.329 11.0464 103.615 10.2754 102.16 10.2754C100.705 10.2754 99.0772 11.0454 98.2212 12.7594C97.2792 14.8154 98.0502 16.3564 98.4772 16.8704C98.4772 16.8704 99.6762 18.5834 100.618 20.0394L102.16 22.3514L104.558 25.9484C104.558 25.9484 104.986 26.5474 105.586 26.5474C106.186 26.5474 106.614 25.9484 106.614 25.9484L112.181 17.7264H109.098L109.097 17.5554ZM102.159 17.7264C102.159 17.7264 101.217 16.3554 100.617 15.3284C99.9322 14.3004 100.617 12.6734 102.159 12.6734C103.701 12.6734 104.3 14.2154 103.701 15.3284C103.102 16.2704 102.159 17.7264 102.159 17.7264Z" fill="white"/>
<path d="M98.7337 22.6095L95.3087 17.7275C95.3087 17.7275 94.3667 16.3565 93.7667 15.3295C93.0817 14.3015 93.7667 12.6745 95.3087 12.6745C96.8507 12.6745 95.6517 12.6745 95.8227 12.6745L97.0217 10.4475C96.5077 10.1915 95.8227 10.1045 95.3087 10.1045C93.8527 10.1045 92.2257 10.8745 91.3697 12.5885C90.4277 14.6445 91.1987 16.1855 91.6257 16.6995L97.7057 25.6925C97.7057 25.6925 98.1337 26.3775 98.8187 26.3775C99.5037 26.3775 99.8467 25.8635 99.8467 25.7785L101.645 22.9525L100.103 20.6405L98.8187 22.5255L98.7337 22.6095Z" fill="white"/>
</g>
<path d="M45.3662 211.874H90.8422" stroke="black" stroke-linecap="round" stroke-linejoin="round"/>
<path d="M203.703 211.874H233.136" stroke="black" stroke-linecap="round" stroke-linejoin="round"/>
<path d="M162.133 211.874H175.737" stroke="black" stroke-linecap="round" stroke-linejoin="round"/>
<path d="M121.169 163.618C121.18 157.658 121.337 154.284 123.167 148.447C123.706 146.707 124.918 145.248 126.343 144.115C127.757 142.981 129.396 142.14 131.012 141.32L131.293 141.354C131.069 143.498 130.945 145.619 131.259 147.74C131.338 148.2 131.439 148.683 131.742 149.042C132.045 149.39 132.483 149.558 132.921 149.704C134.313 150.164 135.828 150.467 137.231 150.029C139.128 149.445 140.362 147.593 140.811 145.652H140.822C142.292 146.281 144.032 146.258 145.491 145.618C145.76 145.495 146.03 145.349 146.187 145.102C146.344 144.833 146.344 144.507 146.344 144.204V141.23H146.961C146.961 141.23 151.181 141.107 154.279 142.206C155.076 142.487 155.805 142.857 156.367 143.328C157.748 144.484 158.937 146.044 160.048 147.447C161.35 149.086 162.82 150.68 164.033 152.374C164.37 152.845 164.65 153.339 165.009 153.799C168.275 158.042 171.755 162.206 175.032 166.482L194.854 170.826L194.326 179.996L194.203 182.218L184.472 180.433H184.349L168.052 177.481C167.322 176.561 166.604 175.629 165.875 174.709C165.246 173.89 164.663 172.936 163.832 172.307C163.046 171.712 162.754 170.837 162.283 169.984C161.744 169.019 160.858 168.39 160.195 167.526C159.555 166.695 158.938 165.82 158.287 164.989C157.748 164.304 157.209 163.62 156.682 162.935C156.592 162.812 156.11 162.374 156.11 162.205L155.324 178.02V178.435H131.596" fill="white"/>
<path d="M121.169 163.618C121.18 157.658 121.337 154.284 123.167 148.447C123.706 146.707 124.918 145.248 126.343 144.115C127.757 142.981 129.396 142.14 131.012 141.32L131.293 141.354C131.069 143.498 130.945 145.619 131.259 147.74C131.338 148.2 131.439 148.683 131.742 149.042C132.045 149.39 132.483 149.558 132.921 149.704C134.313 150.164 135.828 150.467 137.231 150.029C139.128 149.445 140.362 147.593 140.811 145.652H140.822C142.292 146.281 144.032 146.258 145.491 145.618C145.76 145.495 146.03 145.349 146.187 145.102C146.344 144.833 146.344 144.507 146.344 144.204V141.23H146.961C146.961 141.23 151.181 141.107 154.279 142.206C155.076 142.487 155.805 142.857 156.367 143.328C157.748 144.484 158.937 146.044 160.048 147.447C161.35 149.086 162.82 150.68 164.033 152.374C164.37 152.845 164.65 153.339 165.009 153.799C168.275 158.042 171.755 162.206 175.032 166.482L194.854 170.826L194.326 179.996L194.203 182.218L184.472 180.433H184.349L168.052 177.481C167.322 176.561 166.604 175.629 165.875 174.709C165.246 173.89 164.663 172.936 163.832 172.307C163.046 171.712 162.754 170.837 162.283 169.984C161.744 169.019 160.858 168.39 160.195 167.526C159.555 166.695 158.938 165.82 158.287 164.989C157.748 164.304 157.209 163.62 156.682 162.935C156.592 162.812 156.11 162.374 156.11 162.205L155.324 178.02V178.435H131.596" stroke="black" stroke-linecap="round" stroke-linejoin="round"/>
<path d="M191.723 192.467C191.24 191.984 190.578 191.681 189.837 191.681C188.367 191.681 187.166 192.882 187.166 194.352V195.957C187.166 197.427 188.367 198.628 189.837 198.628C191.307 198.628 192.508 197.427 192.508 195.957V194.352C192.508 193.611 192.205 192.949 191.722 192.466L191.723 192.467Z" fill="black" stroke="black" stroke-linecap="round" stroke-linejoin="round"/>
<path d="M182.755 191.839C184.113 193.119 185.505 194.432 187.166 195.15V194.353C187.166 192.883 188.367 191.682 189.837 191.682C190.578 191.682 191.24 191.985 191.723 192.468C192.206 192.951 192.509 193.613 192.509 194.354V195.375C193.89 194.937 195.203 194.196 196.314 193.231C199.165 190.784 201.679 185.767 202.252 182.041L202.263 181.906L200.231 181.749C200.523 182.243 200.601 182.725 200.164 183.051C199.625 183.455 197.874 182.411 196.415 181.424L194.26 181.244L184.349 180.436H179.657C178.456 180.436 177.322 180.851 176.38 181.581L176.571 181.805C176.751 185.913 179.86 189.112 182.755 191.839Z" fill="white" stroke="black" stroke-linecap="round" stroke-linejoin="round"/>
<path d="M207.807 206.969L204.687 186.496C204.395 184.61 203.531 183.005 202.33 181.917L202.263 181.906L202.252 182.041C201.68 185.767 199.165 190.784 196.314 193.231C195.203 194.196 193.89 194.937 192.509 195.375V195.959C192.509 197.429 191.308 198.63 189.838 198.63C188.368 198.63 187.167 197.429 187.167 195.959V195.151C185.506 194.433 184.114 193.119 182.756 191.84C179.86 189.113 176.751 185.914 176.572 181.806L176.381 181.582C174.888 182.716 173.822 184.612 173.564 186.846L171.263 207.161C170.982 209.653 172.599 211.875 174.686 211.875H204.418C206.573 211.875 208.2 209.529 207.808 206.97L207.807 206.969Z" fill="white" stroke="black" stroke-linecap="round" stroke-linejoin="round"/>
<path d="M89.0225 224.255L91.6795 222.859C93.4645 219.537 99.0005 215.28 104.311 214.214L105.961 214.017L106.462 202.53L95.0935 201.023L93.9735 204.826L94.8045 206.648L91.7645 208.682L89.0225 224.255Z" fill="white" stroke="black" stroke-linecap="round" stroke-linejoin="round"/>
<path d="M115.519 163.291C115.822 163.302 116.125 163.224 116.383 163.1C116.484 163.089 116.596 163.078 116.697 163.078C117.359 163.067 117.977 163.089 118.56 163.134C121.691 163.381 123.6 164.38 124.969 165.794C126.54 167.41 127.393 169.576 128.549 171.72C128.706 172.001 128.863 172.292 129.032 172.573C129.818 173.909 130.738 176.041 131.636 178.409H155.364L155.779 186.142C155.779 186.142 166.857 194.504 167.07 205.997C167.115 208.332 165.443 210.15 162.749 211.564C152.21 217.097 126.024 216.402 126.024 216.402L125.867 216.424L124.834 209.544L123.801 209.522L123.812 209.129V205.784H106.437C106.437 205.784 106.426 204.561 106.459 202.529C106.616 193.034 107.739 165.905 115.506 163.29L115.519 163.291Z" fill="white" stroke="black" stroke-linecap="round" stroke-linejoin="round"/>
<path d="M131.657 178.401C133.828 184.101 135.948 191.198 135.969 191.269" stroke="black" stroke-linecap="round" stroke-linejoin="round"/>
<path d="M115.411 209.157V209.415L113.525 209.381L112.964 211.008C112.582 212.119 112.077 213.163 111.46 214.139L111.28 214.016H105.96L106.42 202.556C106.386 204.588 106.398 205.811 106.398 205.811H115.411V209.157Z" fill="white" stroke="black" stroke-linecap="round" stroke-linejoin="round"/>
<path d="M126.882 223.524H122.348L120.316 222.301L118.284 223.536L98.0469 223.57L106.05 219.204C108.272 217.992 110.124 216.241 111.46 214.142C112.077 213.166 112.582 212.122 112.964 211.011L113.525 209.384L115.411 209.418L123.762 209.553L124.795 209.575L125.828 216.455L126.883 223.526L126.882 223.524Z" fill="white" stroke="black" stroke-linecap="round" stroke-linejoin="round"/>
<path d="M115.411 209.416V209.157V206.026V205.813H123.773V206.026V209.157L123.762 209.55L115.411 209.416Z" fill="white" stroke="black" stroke-linecap="round" stroke-linejoin="round"/>
<path d="M200.231 181.737C200.231 181.737 200.904 182.737 200 183.052C199.096 183.367 196.415 181.423 196.415 181.423C195.483 180.794 194.664 180.188 194.339 179.998L194.743 173.174C200.456 173.791 201.713 173.398 203.733 174.79C205.944 176.316 206.214 177.955 206.887 180.301C207.572 182.658 208.021 184.97 208.021 187.417C206.09 187.237 204.979 184.162 203.565 182.883C203.06 182.423 202.746 182.131 202.398 181.839C202.129 181.615 201.837 181.379 201.41 181.053C200.815 180.615 199.872 179.628 198.593 179.729C198.896 180.144 199.805 180.964 200.232 181.738L200.231 181.737Z" fill="white" stroke="black" stroke-linecap="round" stroke-linejoin="round"/>
<path d="M207.447 187.079C207.22 187.079 207.007 186.941 206.922 186.716C205.828 183.83 204.309 181.023 202.528 178.601C202.345 178.351 202.399 178 202.649 177.816C202.897 177.633 203.249 177.684 203.434 177.937C205.274 180.44 206.844 183.339 207.973 186.32C208.083 186.609 207.937 186.934 207.646 187.043C207.581 187.067 207.512 187.079 207.447 187.079Z" fill="black"/>
<path d="M194.623 179.513C194.809 179.623 195.152 179.862 195.584 180.165C195.921 180.402 196.313 180.678 196.729 180.959C199.239 182.656 199.822 182.597 199.875 182.576C199.886 182.558 200.005 182.47 199.748 182.033C199.59 181.767 199.679 181.422 199.946 181.265C200.211 181.108 200.557 181.195 200.714 181.463C201.409 182.64 200.795 183.28 200.499 183.501C200.321 183.634 200.108 183.703 199.846 183.703C199.093 183.703 197.939 183.133 196.1 181.889C195.679 181.604 195.28 181.325 194.938 181.084C194.541 180.804 194.227 180.583 194.055 180.482" fill="black"/>
<path d="M147.737 159.163C147.052 160.274 147.198 160.734 145.526 161.094C143.932 161.431 141.16 162.396 139.6 161.532C138.983 161.195 138.725 160.6 138.59 159.916C138.511 158.098 138.354 156.134 138.287 154.338C138.287 154.248 138.287 154.136 138.343 154.069C138.41 153.957 138.556 153.923 138.68 153.934C142.002 154.057 144.595 154.192 147.132 154.259C147.267 156.268 147.469 157.177 147.379 159.04L147.738 159.163H147.737Z" fill="white" stroke="black" stroke-linecap="round" stroke-linejoin="round"/>
<path d="M127.668 181.772L128.094 205.242C128.097 205.392 128.039 205.538 127.933 205.645C127.828 205.752 127.684 205.813 127.533 205.813H123.773" stroke="black" stroke-linecap="round" stroke-linejoin="round"/>
<path d="M126.002 165.682C127.618 164.84 134.959 162.281 136.148 160.878C137.147 159.699 137.001 157.836 138.269 156.826C138.538 157.701 138.426 158.914 138.617 159.935C138.752 160.62 139.01 161.215 139.627 161.551C141.187 162.415 143.959 161.45 145.553 161.113C147.225 160.754 147.079 160.294 147.764 159.182C147.809 159.103 147.854 159.025 147.91 158.946C149.19 159.922 149.38 161.718 148.505 163.065C147.708 164.277 141.378 167.308 139.391 167.397C138.572 167.431 137.685 167.128 136.944 167.453C134.901 168.351 130.03 170.012 128.694 171.505L128.413 171.64C127.257 169.496 126.404 167.33 124.833 165.714L126 165.68L126.002 165.682Z" fill="white" stroke="black" stroke-linecap="round" stroke-linejoin="round"/>
<path d="M145.491 145.618C144.032 146.258 142.292 146.28 140.822 145.652H140.811C140.856 145.529 140.878 145.416 140.901 145.293C141.249 143.463 140.576 142.049 140.239 139.142L140.25 139.12C142.416 140.096 144.93 139.704 146.311 138.042L146.333 138.064C146.333 139.007 146.333 140.118 146.344 141.229V144.203C146.344 144.506 146.344 144.832 146.187 145.101C146.03 145.348 145.76 145.494 145.491 145.617V145.618Z" fill="white" stroke="black" stroke-linecap="round" stroke-linejoin="round"/>
<path d="M153.674 135.472C153.45 133.328 153.304 131.005 152.843 128.794C152.214 125.752 151.013 122.901 148.219 120.96C141.709 116.426 132.281 120.163 131.843 127.919C131.731 129.827 131.966 131.746 131.978 133.666C131.978 136.236 131.563 138.795 131.293 141.354C131.069 143.498 130.945 145.619 131.259 147.74C131.338 148.2 131.439 148.683 131.742 149.042C132.045 149.39 132.483 149.558 132.921 149.704C134.313 150.164 135.828 150.467 137.231 150.029C139.128 149.445 140.363 147.593 140.811 145.652C140.856 145.529 140.878 145.416 140.901 145.293C141.249 143.463 140.576 142.049 140.239 139.142L140.25 139.12C139.992 138.996 139.734 138.862 139.487 138.705C137.029 137.134 136.67 133.497 136.602 130.859C136.568 129.299 136.535 127.75 136.501 126.19C139.262 126.269 142.023 126.358 144.784 126.437C145.008 126.448 145.244 126.448 145.446 126.561C145.637 126.673 145.76 126.864 145.873 127.055C146.333 127.841 146.636 128.727 146.771 129.625C147.164 129.142 147.624 128.671 148.23 128.491C148.825 128.311 149.588 128.525 149.835 129.108C149.869 129.187 149.891 129.276 149.902 129.366C149.924 129.501 149.936 129.635 149.924 129.77C149.879 131.162 148.925 132.475 147.612 132.946L147.601 133.294C147.59 134.237 147.477 135.18 147.264 136.1C147.084 136.874 146.759 137.514 146.31 138.042L146.332 138.064C146.332 139.007 146.332 140.118 146.343 141.229H146.96C146.96 141.229 151.18 141.106 154.278 142.206C154.211 140.062 153.896 137.683 153.672 135.472H153.674Z" fill="#CCCABC" stroke="black" stroke-linecap="round" stroke-linejoin="round"/>
<path d="M146.771 129.624C147.164 129.141 147.624 128.67 148.23 128.49C148.825 128.31 149.588 128.524 149.835 129.107C149.869 129.186 149.891 129.275 149.902 129.365C149.924 129.5 149.936 129.634 149.924 129.769C149.879 131.161 148.925 132.474 147.612 132.945L147.601 133.293C147.59 134.236 147.478 135.179 147.264 136.099C147.084 136.873 146.759 137.513 146.31 138.041C144.929 139.702 142.415 140.095 140.249 139.119C139.991 138.996 139.733 138.861 139.486 138.704C137.028 137.133 136.669 133.496 136.601 130.858C136.567 129.298 136.534 127.749 136.5 126.189C139.261 126.268 142.022 126.357 144.783 126.436C145.007 126.447 145.243 126.447 145.445 126.559C145.636 126.671 145.759 126.862 145.872 127.053C146.332 127.839 146.635 128.725 146.77 129.623L146.771 129.624Z" fill="white" stroke="black" stroke-linecap="round" stroke-linejoin="round"/>
<path d="M150.631 198.663H140.092C132.995 198.663 128.235 199.857 128.187 199.869C128.141 199.881 128.094 199.887 128.048 199.887" stroke="black" stroke-linecap="round" stroke-linejoin="round"/>
<path d="M117.005 160.737C116.702 161.051 116.444 161.5 116.309 161.758C116.219 161.926 116.107 162.117 115.995 162.308C113.537 160.995 109.766 158.683 109.766 158.683C109.542 158.526 109.339 158.324 109.149 158.088C108.655 157.437 108.341 156.55 108.498 155.787C108.577 155.327 108.79 154.855 109.194 154.608C109.576 154.384 110.148 154.249 110.597 154.26C111.08 152.846 111.921 151.701 113.167 150.837C114.839 152.105 116.096 153.89 116.68 155.865C117.275 157.829 117.241 159.491 117.005 160.737Z" fill="#E60000" stroke="black" stroke-linecap="round" stroke-linejoin="round"/>
<path d="M116.309 161.758C116.444 161.5 116.702 161.051 117.005 160.737C117.252 160.49 117.533 160.322 117.791 160.423C117.971 160.502 117.971 160.782 117.948 160.984C117.869 161.545 117.521 162.017 117.185 162.454C117.017 162.678 116.714 162.948 116.343 163.127C116.051 163.149 115.759 163.217 115.479 163.318H115.468C115.434 163.318 115.401 163.307 115.378 163.307C115.569 163.015 115.782 162.656 115.995 162.308C116.107 162.117 116.219 161.926 116.309 161.758Z" fill="black" stroke="black" stroke-linecap="round" stroke-linejoin="round"/>
<path d="M109.766 158.683C109.766 158.683 113.537 160.995 115.995 162.308C115.782 162.656 115.568 163.015 115.378 163.307C115.378 163.307 108.486 163.632 107.824 163.004C107.386 162.589 106.915 162.061 106.892 160.703C106.892 160.198 107.464 158.256 109.148 158.088C109.339 158.324 109.542 158.526 109.766 158.683Z" fill="#E60000" stroke="black" stroke-linecap="round" stroke-linejoin="round"/>
<path d="M67.807 211.65C67.798 209.961 67.61 208.273 67.249 206.623" stroke="black" stroke-linecap="round" stroke-linejoin="round"/>
<path d="M64.318 211.918C64.048 210.384 63.372 208.923 62.376 207.726" stroke="black" stroke-linecap="round" stroke-linejoin="round"/>
<path d="M218.524 211.665C218.728 208.894 219.716 206.184 221.344 203.932" stroke="black" stroke-linecap="round" stroke-linejoin="round"/>
<path d="M221.939 211.51C222.356 209.993 223.089 208.563 224.079 207.34" stroke="black" stroke-linecap="round" stroke-linejoin="round"/>
</g>
<defs>
<clipPath id="clip0_6223_517">
<rect width="279" height="224" fill="white" transform="translate(0 0.255371)"/>
</clipPath>
</defs>
</svg>
