<svg width="375" height="125" viewBox="0 0 375 125" fill="none" xmlns="http://www.w3.org/2000/svg">
<path d="M236.638 98.1954C236.47 98.2058 236.292 98.2111 236.109 98.2215C232.619 98.3573 209.531 98.1849 206.03 98.3208C205.297 98.2946 202.676 98.279 198.965 98.2737C198.96 97.8977 198.955 97.5268 198.95 97.1508C199.154 93.0975 198.861 89.1279 198.61 85.0747C199.217 85.2993 201.064 85.4246 202.44 85.3828C203.502 85.3463 204.523 85.3724 205.606 85.3828C207.417 85.3985 212.624 84.6986 216.637 85.1844C216.648 85.1844 216.653 85.1844 216.669 85.1896C216.967 85.2366 217.281 85.2784 217.621 85.3254H217.637C219.976 85.597 220.902 85.6388 224.079 85.3254C228.024 85.0747 229.887 81.2931 230.389 79.5224C231.3 76.3101 231.53 73.0352 232.551 69.8699C233.754 69.6349 234.932 69.3476 235.978 69.0812C236.193 69.029 236.397 68.9349 236.559 68.7835C237.407 68.0052 237.956 66.736 238.082 65.6078C239.443 65.5555 240.74 65.6234 242.457 65.5973C245.288 65.4615 245.11 67.321 245.031 68.6163C244.921 70.387 244.702 72.1786 244.477 73.944C244.241 75.8453 243.734 77.7204 243.42 79.6425C243.017 82.134 242.792 84.6307 242.148 87.0752C241.326 90.1673 241.541 93.108 240.28 96.0225C239.526 97.7462 238.328 98.0962 236.627 98.2006L236.638 98.1954Z" fill="white"/>
<path d="M215.612 68.8878C214.848 68.6893 213.995 68.4961 213.142 68.3133C213.34 65.6703 213.372 64.5735 213.34 62.3588C212.247 63.7534 209.144 65.336 207.851 66.5478C207.636 66.7411 207.359 66.9866 207.035 67.2321C204.706 67.1798 202.56 67.1067 200.598 67.0493C200.52 67.0022 200.446 66.9396 200.368 66.8873C199.918 66.5322 199.363 66.2397 198.929 65.8688C197.092 64.3123 195.522 62.5207 193.8 60.8389C192.665 59.7211 191.393 58.7391 190.174 57.7154C190.054 57.6161 189.939 57.5221 189.823 57.4229C189.295 56.9789 189.038 56.4409 188.552 55.9238C188.206 55.5686 187.484 55.25 187.458 54.6493C187.913 54.4456 188.363 54.2106 188.803 53.9651C189.101 53.798 189.4 53.6204 189.687 53.4376C189.651 53.4689 189.614 53.4898 189.583 53.5264C189.619 53.495 189.651 53.4637 189.687 53.4376C190.41 52.8369 191.168 52.2728 191.89 51.6773C191.995 51.5938 192.089 51.5154 192.189 51.4266C193.178 51.9698 194.026 52.3772 195.025 52.9779C196.025 53.5786 196.679 54.2106 197.783 54.9471C198.683 55.5425 199.63 56.5036 200.593 57.4803C201.66 58.5668 202.754 59.6636 203.811 60.3113C204.141 60.515 204.465 60.4732 204.68 60.0449C204.826 59.7576 205.224 58.7757 205.732 57.4803H205.737C207.019 54.221 209.002 49.0135 209.332 48.2039C210.384 45.6393 210.682 41.3249 216.449 40.1706H216.454L216.47 40.3952C216.674 41.466 216.956 42.2703 218.034 42.2703C220.107 42.2651 221.352 40.1497 222.252 38.3059C223.032 38.9014 224.607 38.9745 225.617 39.5072C225.842 39.6274 226.057 39.7423 226.261 39.8468C228.516 41.0324 230.253 42.9911 231.148 45.3677L232.708 48.2039C233.613 49.938 234.701 53.2965 235.46 54.9627C236.925 58.1802 238.307 61.7007 238.108 65.289C238.103 65.3883 238.098 65.4875 238.077 65.592C237.951 66.7202 237.402 67.9947 236.554 68.7677C236.392 68.9192 236.182 69.008 235.973 69.0654C234.926 69.3318 233.749 69.6191 232.545 69.8541C232.101 69.9429 231.651 70.0213 231.211 70.0944C228.893 70.46 226.548 70.9197 224.277 71.5047C223.309 71.7554 220.646 72.9515 219.065 73.385C219.039 73.2753 218.961 73.0873 218.861 72.8679C218.678 72.4657 218.416 71.9643 218.254 71.5987C218.097 71.2487 217.877 70.9197 217.6 70.6481C217.197 70.2563 216.784 69.8646 216.355 69.4937C216.114 69.2796 215.863 69.0759 215.606 68.8669L215.612 68.8878Z" fill="white"/>
<path d="M236.114 98.2214C236.297 98.2162 236.47 98.211 236.643 98.1953C236.345 99.7205 236.062 101.016 235.706 102.51C235.408 103.8 234.262 104.735 232.933 104.735C232.388 104.735 231.839 104.719 231.3 104.719C231.153 104.714 231.012 104.714 230.876 104.714C229.976 104.724 227.977 104.724 225.952 104.724C223.77 104.724 221.551 104.724 220.583 104.735C216.323 104.787 206.114 104.813 199.258 104.813C199.211 102.63 199.039 100.447 198.981 98.2632C202.691 98.2684 205.308 98.2893 206.046 98.3102C209.547 98.1744 232.629 98.3468 236.125 98.211L236.114 98.2214Z" fill="white"/>
<path d="M222.263 38.3165C222.064 38.1651 221.917 37.9823 221.844 37.7472C221.478 36.5877 220.756 33.0985 220.625 32.3882C220.363 30.9988 221.902 29.9751 221.038 28.6954C220.138 27.353 219.201 29.2595 219.201 29.2595C218.809 27.9432 217.799 25.1697 216.873 25.0652C215.329 24.8981 213.545 24.7727 213.545 24.7675C213.168 24.9556 212.869 25.1749 212.623 25.41C212.613 25.4361 212.592 25.4518 212.576 25.4622C212.2 25.8383 211.959 26.2561 211.776 26.674C211.64 26.9404 211.535 27.212 211.446 27.4993C211.624 26.371 210.258 25.6189 211.975 23.7751C213.257 22.391 213.749 22.7461 214.157 22.5372C215.748 21.7381 217.511 21.0538 219.254 21.1478C220.394 21.2105 221.493 21.3724 222.556 21.9365C223.304 22.3283 223.801 22.6939 224.392 23.4826C224.984 24.2661 226.015 25.0705 226.962 25.6555C228.181 26.4076 229.254 27.5515 229.646 28.9513C229.976 30.1161 230.034 31.3279 229.96 32.4927C229.887 33.6574 230.013 34.561 230.646 35.6161C231.426 36.9063 232.43 37.8517 233.749 38.8284C235.068 39.8052 236.596 40.8185 236.402 42.7824C236.135 45.4619 235.267 48.2198 232.723 48.2145L231.164 45.3783C230.264 43.0018 228.527 41.0431 226.276 39.8574C226.072 39.7529 225.858 39.638 225.633 39.5179C224.623 38.9851 223.048 38.912 222.268 38.3165H222.263Z" fill="black"/>
<path d="M231.221 70.1101C231.666 70.0369 232.116 69.9586 232.556 69.8698C231.535 73.0351 231.305 76.31 230.395 79.5223C229.892 81.293 228.029 85.0746 224.084 85.3253C220.907 85.6387 219.976 85.5969 217.642 85.3253H217.626C217.312 85.2731 216.988 85.226 216.674 85.1895C216.663 85.1843 216.658 85.1843 216.642 85.1843C216.014 85.0798 215.486 84.9649 215.078 84.8291C211.509 83.6434 206.056 80.0394 195.454 76.9943C194.005 76.5764 193.235 76.5085 191.786 76.7383C187.866 78.5612 187.929 82.5152 187.767 89.4934C186.244 92.7997 184.203 96.7746 184.203 96.7746C183.026 96.3828 181.979 96.0694 181.032 95.8344C177.924 95.0509 175.898 94.9935 173.968 94.8472C173.036 94.7793 172.131 94.6905 171.136 94.492C173.397 91.9588 175.825 88.6055 177.463 85.576C182.864 77.0099 184.946 74.0902 187.772 68.9453C188.363 67.8745 189.661 67.3888 190.865 67.1955C193.46 66.7777 195.993 66.9343 200.609 67.0597C202.571 67.1119 204.722 67.1851 207.045 67.2425C208.28 67.3992 210.766 67.8171 213.147 68.3237C214.005 68.5065 214.853 68.6998 215.617 68.8983C215.873 69.102 216.119 69.3109 216.365 69.5251V69.5355C215.842 69.7862 214.8 69.5407 214.12 69.5198C212.99 69.4833 212.446 69.4049 211.488 69.3579C210.881 69.3214 210.086 69.3684 209.515 69.5407C208.861 69.734 208.448 70.1518 207.94 70.5697C207.626 70.8309 206.553 71.0241 206.632 72.0531C206.449 72.1001 206.265 72.1523 206.077 72.1941C205.517 72.3299 204.989 72.4814 204.45 72.6747C204.005 72.8314 203.492 72.8731 203.089 73.0873C202.906 73.1865 202.383 73.4895 202.833 73.9543C202.697 73.9648 202.56 73.97 202.424 73.97C202.173 73.9752 201.791 74.0797 201.796 74.3931C201.802 74.6438 201.812 74.5916 201.959 74.7065C202.074 74.7901 202.21 74.8475 202.351 74.8736C202.775 75.3907 203.649 75.6049 204.465 75.8295C204.549 75.8556 204.737 75.866 204.968 75.8713C205.465 76.7801 207.202 76.6286 207.741 76.613C208.578 76.5816 209.557 76.5607 210.363 76.3205C211.012 76.1324 211.65 75.7616 212.247 75.4377C212.849 75.1087 213.424 74.7953 214.068 74.5393C214.507 74.3618 215.005 74.2312 215.465 74.0954C215.8 73.9961 216.182 73.8238 216.553 73.7245C216.899 73.6357 217.244 73.5417 217.574 73.4111C218.013 73.2283 218.484 73.0403 218.825 72.9045L218.856 72.894C218.961 73.1134 219.039 73.3014 219.06 73.4111C220.64 72.9828 223.304 71.7815 224.272 71.5308C226.543 70.9406 228.888 70.4809 231.206 70.1205L231.221 70.1101Z" fill="white"/>
<path d="M231.379 112.773C231.415 113.781 231.447 117.474 231.352 118.482C230.656 118.399 229.128 118.414 228.417 118.482C228.071 117.156 227.689 115.171 227.407 113.536C226.779 109.901 226.486 108.814 225.936 104.719C227.967 104.719 229.966 104.719 230.86 104.709C231.002 104.709 231.138 104.709 231.284 104.714C231.284 104.714 231.316 111.227 231.368 112.773H231.379Z" fill="#CCCCCC"/>
<path d="M221.844 37.7471C221.917 37.9822 222.064 38.165 222.263 38.3164C221.363 40.1602 220.117 42.2756 218.045 42.2809C216.962 42.2809 216.684 41.4817 216.48 40.4057L216.464 40.1811L216.26 37.9613C216.26 37.9613 213.953 39.0686 213.251 37.9508C212.095 36.107 211.697 33.8349 211.409 31.8135C211.174 30.1526 211.095 28.8468 211.404 27.6715C211.519 27.3477 211.629 27.0082 211.776 26.6687C211.975 26.2613 212.241 25.8643 212.576 25.4569C212.592 25.4464 212.613 25.4256 212.623 25.4047C212.875 25.1696 213.168 24.9502 213.544 24.7622C213.544 24.7674 215.329 24.8876 216.873 25.0599C217.794 25.1644 218.804 27.9379 219.201 29.2542C219.201 29.2542 220.138 27.3529 221.038 28.6901C221.902 29.9698 220.363 30.9935 220.625 32.3829C220.761 33.0932 221.483 36.5823 221.844 37.7419V37.7471Z" fill="white"/>
<path d="M202.833 73.9388C202.383 73.4739 202.906 73.171 203.089 73.0717C203.492 72.8576 204.005 72.8158 204.45 72.6591C204.989 72.4659 205.517 72.3144 206.077 72.1786C206.265 72.1368 206.449 72.0898 206.632 72.0376C206.553 71.0086 207.621 70.8153 207.94 70.5542C208.442 70.1363 208.856 69.7184 209.515 69.5252C210.086 69.358 210.881 69.3058 211.488 69.3424C212.44 69.3894 212.99 69.4677 214.12 69.5043C214.8 69.5304 215.847 69.7707 216.36 69.52V69.5095C216.799 69.8804 217.208 70.2669 217.611 70.6638C217.888 70.9355 218.108 71.2645 218.265 71.6145C218.427 71.9801 218.689 72.4815 218.872 72.8837L218.84 72.8942C218.5 73.0352 218.024 73.2232 217.59 73.4008C217.26 73.5366 216.915 73.6254 216.569 73.7142C216.198 73.8134 215.816 73.9858 215.481 74.0851C215.02 74.2209 214.523 74.3514 214.084 74.529C213.44 74.785 212.864 75.0984 212.262 75.4274C211.666 75.7565 211.027 76.1221 210.379 76.3101C209.573 76.5452 208.594 76.5713 207.757 76.6026C207.218 76.6183 205.48 76.7698 204.983 75.8609C204.753 75.8557 204.565 75.8453 204.481 75.8192C203.665 75.5946 202.791 75.3752 202.367 74.8685C202.22 74.832 202.09 74.7797 201.974 74.6909C201.828 74.576 201.817 74.623 201.812 74.3776C201.807 74.0642 202.189 73.9597 202.44 73.9545C202.576 73.9545 202.712 73.9492 202.848 73.9388H202.833Z" fill="white"/>
<path d="M187.756 89.4883C187.919 82.5101 187.861 78.5561 191.775 76.7332C193.225 76.5034 193.994 76.5713 195.444 76.9892C206.051 80.0343 211.498 83.6331 215.067 84.824C215.481 84.965 216.009 85.0799 216.632 85.1792C212.618 84.6934 207.411 85.3985 205.601 85.3776C204.518 85.3672 203.497 85.3411 202.435 85.3776C201.059 85.4194 199.211 85.2941 198.604 85.0695C198.856 89.1227 199.149 93.0923 198.945 97.1455C198.95 97.5216 198.955 97.8925 198.96 98.2685C199.023 100.452 199.19 102.635 199.238 104.818C199.274 106.135 199.264 107.451 199.164 108.772C198.076 108.84 196.773 108.934 195.433 109.044C193.717 109.18 191.953 109.321 190.567 109.446C190.315 109.472 189.593 109.441 188.803 109.394C187.584 109.326 186.218 109.227 186.218 109.227C186.218 109.227 186.176 108.637 186.323 107.367C186.401 106.694 186.501 105.811 186.6 104.829C186.83 102.74 187.102 100.196 187.28 98.2738C187.327 97.7932 187.364 97.3545 187.395 96.9627C187.62 94.1631 187.694 91.6821 187.741 89.4988L187.756 89.4883Z" fill="white"/>
<path d="M213.34 62.3589C213.372 64.5735 213.34 65.6704 213.142 68.3134C210.761 67.8119 208.27 67.3941 207.04 67.2321C207.364 66.9814 207.642 66.7412 207.856 66.5479C209.149 65.3361 212.252 63.7535 213.346 62.3589H213.34Z" fill="white"/>
<path d="M211.446 27.4991C211.53 27.2118 211.64 26.9402 211.776 26.6738C211.629 27.0133 211.519 27.3528 211.404 27.6767C211.415 27.614 211.436 27.5566 211.446 27.4991Z" fill="black"/>
<path d="M200.598 57.491H205.737C205.235 58.7863 204.832 59.7683 204.685 60.0556C204.471 60.4839 204.146 60.5309 203.816 60.3219C202.759 59.6743 201.666 58.5774 200.598 57.491Z" fill="white"/>
<path d="M200.368 66.8875C200.446 66.9397 200.52 67.0024 200.598 67.0494C195.983 66.924 193.45 66.7621 190.854 67.1852C189.651 67.3784 188.353 67.8642 187.762 68.935C184.936 74.0746 182.853 76.9996 177.453 85.5657C175.443 85.6754 169.19 85.9052 167.17 85.8321C165.291 85.7589 162.439 86.1298 160.854 85.1478C159.143 84.0927 158.938 81.2879 158.436 79.5172C157.384 75.8192 157.238 72.0375 155.746 68.4335C155.155 67.0233 155.092 66.198 153.627 65.9212C153.365 65.8742 153.109 65.8324 152.868 65.7958V65.7854C153.402 64.4012 154.909 60.0398 155.882 58.8646C157.41 56.9999 160.613 57.611 162.874 57.5222C170.31 57.2454 177.877 57.2715 185.297 57.6058C187.573 57.7103 187.892 57.7207 190.169 57.7207H190.174C191.393 58.7392 192.665 59.7212 193.8 60.839C195.517 62.5261 197.092 64.3124 198.929 65.8689C199.368 66.2398 199.918 66.5323 200.368 66.8875Z" fill="white"/>
<path d="M189.305 117.281C189.578 117.271 189.787 117.255 189.844 117.255C190.352 117.239 190.802 117.15 191.325 117.192C192.424 117.281 193.466 117.38 194.554 117.328C194.999 117.302 195.486 117.26 195.941 117.312C196.202 117.338 196.459 117.396 196.689 117.5C196.893 117.589 197.144 118.226 196.726 118.529C189.897 118.529 183.042 118.529 176.668 118.524C176.474 118.493 176.291 118.425 176.144 118.258C175.778 117.845 175.956 117.412 176.401 117.271C176.432 117.26 176.469 117.244 176.5 117.239C179.462 117.25 183.915 117.537 186.872 117.312C187.49 117.354 188.62 117.312 189.3 117.281H189.305Z" fill="#474747"/>
<path d="M196.365 113.055C196.794 114.006 196.59 115.103 196.365 116.059C196.26 116.482 196.072 116.884 195.951 117.271V117.312C195.491 117.265 195.004 117.307 194.559 117.328C193.466 117.38 192.429 117.286 191.331 117.192C190.807 117.15 190.357 117.234 189.85 117.255C189.787 117.255 189.583 117.265 189.311 117.281C189.284 115.756 188.625 114.476 187.662 113.306C187.558 113.181 187.432 113.071 187.291 112.982C187.019 112.831 186.579 112.685 186.108 112.596C186.584 112.47 187.207 112.016 187.61 111.713C187.751 111.609 187.83 111.525 187.919 111.41C188.264 110.966 188.52 110.454 188.677 109.911C188.719 109.77 188.766 109.624 188.824 109.451V109.389C189.614 109.436 190.336 109.467 190.587 109.441C191.974 109.321 193.732 109.175 195.454 109.039C195.407 110.068 195.412 110.768 195.731 111.791C195.883 112.272 196.171 112.611 196.37 113.05L196.365 113.055Z" fill="white"/>
<path d="M191.718 51.4737L191.896 51.6878C191.174 52.2833 190.415 52.8474 189.693 53.4481C189.4 53.6309 189.101 53.8032 188.808 53.9756L188.735 53.8503C188.238 53.3593 187.641 53.025 187.029 52.7064C186.684 52.5236 186.333 52.3042 186.003 52.1423C185.674 51.9803 185.522 51.8759 185.171 51.7401C184.821 51.6147 184.345 51.4371 183.963 51.3222V51.3065C184.502 51.4476 185.145 51.3327 185.559 51.1916C186.092 51.014 186.438 50.6589 186.757 50.4029C187.076 50.147 187.469 49.8232 187.097 49.5829C187.06 49.5568 187.024 49.5411 186.982 49.5307C187.202 49.1859 187.338 48.8882 187.469 48.4808C187.589 48.0786 188.008 47.7913 187.814 47.2429C187.751 47.0653 187.212 46.334 187.066 46.1042L187.055 46.0781C186.537 45.6759 186.197 45.2476 186.05 44.6052C186.045 44.5738 186.045 44.5582 186.04 44.5373C186.024 44.3858 186.009 44.297 186.003 44.0985C186.003 43.8791 185.967 43.3046 186.38 43.4613C186.558 43.5344 186.631 43.6859 186.773 43.8687C186.914 44.0515 187.186 44.3283 187.39 44.5007C187.589 44.6678 187.898 44.8507 188.102 44.9656C188.306 45.0805 188.426 45.0335 188.562 45.2006C188.698 45.3678 188.745 45.7282 188.813 45.9319C189.028 46.6057 189.19 47.2429 189.447 47.8906C189.625 48.3293 189.64 48.8203 189.871 49.2382C190.362 50.1 191.038 50.7738 191.723 51.4737H191.718Z" fill="white"/>
<path d="M187.662 113.301C188.62 114.471 189.284 115.751 189.311 117.276C188.63 117.307 187.5 117.349 186.882 117.307C183.926 117.532 179.473 117.245 176.511 117.234C176.479 117.239 176.443 117.25 176.411 117.265C176.5 116.461 177.181 115.176 179.42 114.335C181.472 113.573 182.068 113.358 185.093 112.481C185.423 112.481 185.778 112.523 186.113 112.591C186.589 112.679 187.024 112.826 187.296 112.977C187.437 113.061 187.563 113.17 187.667 113.301H187.662Z" fill="#474747"/>
<path d="M187.809 47.2325C188.002 47.7757 187.584 48.0682 187.463 48.4704C187.338 48.8778 187.197 49.1755 186.977 49.5202C186.652 49.3949 186.244 49.5516 185.92 49.656C186.255 49.5359 186.767 49.2173 186.595 48.8412C186.396 48.4181 185.454 48.5644 185.067 48.5644C185.286 48.486 185.81 48.486 185.737 48.0786C185.668 47.6764 185.004 47.3735 184.606 47.3213C184.69 47.2481 184.988 47.4309 184.999 47.2011C185.03 46.6318 184.203 46.2453 183.717 46.0416C183.235 45.8431 182.785 45.6916 182.272 45.5871C181.974 45.5245 181.55 45.4461 181.351 45.7804C181.346 45.7856 181.346 45.7908 181.346 45.7961C180.802 45.1066 180.226 44.5112 179.865 43.6859C179.666 43.2315 179.708 42.8241 179.902 42.2965C180.09 41.7742 180.504 41.2258 180.76 40.6146C180.886 40.3169 181.33 38.8388 181.901 39.079C181.906 39.079 181.979 39.1051 182.623 39.8834C183.314 40.7191 185.208 43.3621 186.014 44.5268H186.045C186.045 44.5268 186.051 44.5582 186.056 44.5791C186.202 45.2267 186.542 45.6603 187.06 46.0572L187.071 46.0833C187.217 46.3132 187.756 47.0496 187.819 47.222L187.809 47.2325Z" fill="#E60000"/>
<path d="M187.756 89.4883C187.709 91.6716 187.636 94.1526 187.411 96.9523C187.38 97.3388 187.343 97.7827 187.296 98.2633C184.816 98.2633 182.246 98.2685 179.666 98.2685C180.106 97.5373 180.577 96.7903 180.975 96.0277L181.022 95.8345C181.969 96.0695 183.015 96.3777 184.193 96.7747C184.193 96.7747 186.234 92.7998 187.756 89.4935V89.4883Z" fill="white"/>
<path d="M179.666 98.2684C182.246 98.2684 184.815 98.2632 187.296 98.2632C187.118 100.185 186.846 102.724 186.616 104.818C183.769 104.818 180.331 104.813 177.065 104.803C177.301 104.604 177.515 104.385 177.667 104.176C178.541 102.975 178.803 101.533 178.944 100.097C178.991 99.6212 179.2 99.0728 179.441 98.6549C179.514 98.5296 179.588 98.399 179.666 98.2736V98.2684Z" fill="white"/>
<path d="M186.977 49.5204C187.019 49.5308 187.055 49.5517 187.092 49.5726C187.463 49.8076 187.066 50.1367 186.752 50.3926C186.438 50.6486 186.087 51.0037 185.553 51.1813C185.14 51.3224 184.496 51.4373 183.963 51.2962C183.816 51.2649 183.675 51.2127 183.554 51.1291C183.162 50.8732 180.98 46.564 181.336 45.8066C181.336 45.8066 181.336 45.791 181.341 45.7805C181.54 45.4462 181.969 45.5246 182.262 45.5873C182.78 45.6917 183.23 45.8432 183.706 46.0417C184.193 46.2402 185.02 46.6319 184.988 47.2012C184.978 47.4311 184.679 47.2483 184.596 47.3214C184.988 47.3736 185.658 47.6766 185.726 48.0787C185.799 48.4862 185.276 48.4862 185.056 48.5645C185.443 48.5645 186.385 48.4183 186.584 48.8413C186.762 49.2174 186.244 49.5308 185.909 49.6562C186.234 49.5517 186.642 49.395 186.966 49.5204H186.977Z" fill="white"/>
<path d="M181.022 95.8292L180.974 96.0225C180.582 96.7851 180.106 97.532 179.666 98.2632C179.588 98.3886 179.514 98.5192 179.441 98.6445C179.201 99.0624 178.991 99.6161 178.944 100.086C178.803 101.523 178.541 102.964 177.667 104.165C177.515 104.369 177.301 104.589 177.065 104.792C176.657 105.127 176.197 105.388 175.935 105.388C175.851 105.346 175.789 105.32 175.789 105.32C175.485 105.137 175.182 104.954 174.873 104.782C173.591 104.04 172.267 103.382 170.917 102.771C170.833 102.734 170.749 102.693 170.66 102.651C170.911 102.363 170.911 101.893 170.932 101.517C170.974 100.749 170.959 99.966 170.854 99.2034C170.812 98.89 170.754 98.5766 170.676 98.2737C170.587 97.9394 170.472 97.6208 170.31 97.3074C170.257 97.2029 170.184 97.0776 170.09 96.9418L170.174 96.9052C170.896 96.9052 171.566 96.8425 172.23 96.4926C173.015 96.0747 173.361 95.5367 173.941 94.842C175.872 94.9831 177.898 95.0405 181.006 95.824L181.022 95.8292Z" fill="white"/>
<path d="M175.94 105.393C176.155 105.498 176.542 105.701 176.657 105.921C176.987 107.508 173.894 106.056 171.43 104.766H171.424C170.467 104.27 169.598 103.795 169.069 103.544C165.731 101.946 162.612 100.222 159.504 98.2633H159.498C159.279 98.1223 159.054 97.9865 158.834 97.8455C158.635 97.694 158.138 97.4276 158.316 97.1038C158.426 96.9262 158.583 96.8322 158.776 96.8008C159.671 96.6389 161.257 97.8194 161.623 98.0231C161.743 98.091 161.895 98.1746 162.062 98.2633C162.617 98.5663 163.324 98.958 163.748 99.1722C164.13 99.3655 166.95 100.922 167.688 101.22C168.714 101.627 169.682 102.176 170.671 102.646C170.754 102.687 170.838 102.729 170.927 102.766C172.277 103.377 173.601 104.04 174.883 104.777C175.192 104.954 175.496 105.132 175.799 105.315C175.799 105.315 175.862 105.341 175.946 105.383L175.94 105.393Z" fill="#474747"/>
<path d="M177.458 85.5656C175.82 88.595 173.387 91.9483 171.131 94.4816C172.126 94.6801 173.031 94.7741 173.962 94.8368C173.381 95.5315 173.031 96.0747 172.251 96.4925C171.581 96.8425 170.917 96.9052 170.195 96.9052L170.111 96.9417C169.959 96.7224 169.771 96.503 169.608 96.3881C169.321 96.1948 168.928 96.1582 168.588 96.1008C168.096 96.012 167.636 95.824 167.159 95.6516C165.83 95.192 164.239 95.0718 162.847 95.0823C162.178 95.0823 159.666 95.5367 158.787 96.785C158.593 96.8216 158.436 96.9208 158.326 97.0932C158.143 97.417 158.64 97.6834 158.844 97.8349C159.064 97.9759 159.289 98.1117 159.509 98.2528C155.95 98.2528 153.454 98.2371 152.743 98.211C152.539 98.2057 152.34 98.1953 152.151 98.1796C150.482 98.0699 149.305 97.7148 148.561 96.0068C147.3 93.0922 147.51 90.1515 146.693 87.0594C146.05 84.6149 145.825 82.1182 145.422 79.6268C145.108 77.7046 144.6 75.8295 144.365 73.9282C144.14 72.1628 143.92 70.3712 143.81 68.6006C143.731 67.3052 143.553 65.4457 146.385 65.5816C148.949 65.6233 150.581 65.4457 152.884 65.7853C153.125 65.8218 153.381 65.8636 153.643 65.9106C155.108 66.1822 155.171 67.0075 155.762 68.423C157.259 72.0218 157.4 75.8086 158.452 79.5066C158.954 81.2773 159.158 84.0822 160.869 85.1373C162.455 86.1192 165.307 85.7484 167.186 85.8215C169.211 85.8946 175.459 85.6648 177.468 85.5551L177.458 85.5656Z" fill="white"/>
<path d="M170.859 99.2035C170.964 99.9661 170.98 100.75 170.938 101.517C170.911 101.893 170.911 102.364 170.666 102.651C169.677 102.186 168.708 101.632 167.683 101.225C166.94 100.927 164.124 99.3706 163.742 99.1774C163.324 98.9632 162.612 98.5715 162.057 98.2685C161.895 98.1797 161.743 98.0909 161.618 98.0282C161.246 97.8245 159.661 96.6389 158.771 96.806C159.65 95.5524 162.167 95.098 162.832 95.098C164.224 95.0876 165.815 95.2077 167.144 95.6674C167.62 95.8345 168.08 96.0225 168.572 96.1166C168.913 96.1688 169.305 96.2054 169.593 96.4038C169.755 96.5187 169.943 96.7381 170.095 96.9575C170.184 97.0933 170.257 97.2187 170.315 97.3231C170.472 97.6313 170.587 97.9551 170.681 98.2894C170.76 98.5924 170.817 98.9005 170.859 99.2191V99.2035Z" fill="#474747"/>
<path d="M169.064 103.544C169.593 103.8 170.461 104.27 171.419 104.766C170.184 104.761 169.09 104.751 168.196 104.735C167.227 104.724 164.998 104.724 162.827 104.724C160.791 104.724 158.808 104.724 157.902 104.714H157.599C157.018 104.714 156.432 104.74 155.846 104.74C154.517 104.74 153.365 103.805 153.072 102.515C152.722 101.016 152.434 99.7206 152.141 98.1902C152.329 98.2006 152.523 98.2163 152.732 98.2215C153.444 98.2476 155.94 98.2633 159.498 98.2633H159.504C162.612 100.222 165.731 101.946 169.069 103.544H169.064Z" fill="white"/>
<path d="M157.902 104.714C158.808 104.724 160.791 104.724 162.827 104.724C162.282 108.814 161.984 109.901 161.356 113.541C161.079 115.176 160.691 117.161 160.346 118.487C159.634 118.42 158.112 118.404 157.41 118.487C157.321 117.474 157.348 113.781 157.384 112.779C157.437 111.232 157.588 104.714 157.588 104.714H157.892H157.902Z" fill="#CCCCCC"/>
<path d="M211.404 27.938C211.373 27.938 211.347 27.938 211.315 27.9223C211.179 27.8753 211.106 27.7238 211.158 27.588L211.247 27.3373C211.336 27.0866 211.425 26.8307 211.535 26.5695C211.765 26.042 212.037 25.6293 212.393 25.2741C212.498 25.1697 212.66 25.1697 212.765 25.2741C212.869 25.3786 212.869 25.5405 212.765 25.645C212.461 25.9479 212.221 26.3083 212.016 26.7784C211.912 27.0239 211.823 27.2694 211.744 27.5097L211.655 27.7656C211.619 27.8701 211.514 27.938 211.409 27.938H211.404Z" fill="black"/>
<path d="M232.734 48.4756C232.64 48.4756 232.545 48.4286 232.493 48.3398L230.934 45.5036C230.044 43.1584 228.349 41.2467 226.151 40.0871C225.957 39.9879 225.753 39.8782 225.533 39.7633C225.073 39.5178 224.508 39.3768 223.958 39.2358C223.241 39.0529 222.566 38.8806 222.1 38.5254C221.844 38.3321 221.677 38.1023 221.593 37.8255C221.227 36.6607 220.51 33.1977 220.363 32.4351C220.232 31.7509 220.489 31.1502 220.719 30.6175C221.002 29.9593 221.221 29.4422 220.818 28.8416C220.651 28.5908 220.478 28.4707 220.321 28.4812C219.971 28.502 219.573 29.0923 219.437 29.3743C219.39 29.4736 219.285 29.5258 219.18 29.5206C219.071 29.5101 218.982 29.437 218.95 29.3378C218.28 27.1127 217.375 25.3838 216.847 25.3263C215.695 25.201 214.387 25.0965 213.832 25.0547C213.743 25.0495 213.67 25.0443 213.602 25.0338C213.304 25.1905 213.042 25.3733 212.801 25.5979C212.697 25.6972 212.529 25.692 212.43 25.5875C212.331 25.483 212.336 25.3159 212.44 25.2166C212.733 24.9398 213.053 24.7152 213.429 24.5324C213.477 24.5063 213.534 24.5011 213.586 24.5063C213.618 24.5063 213.717 24.5167 213.869 24.5272C214.429 24.569 215.742 24.6734 216.904 24.7988C217.919 24.9137 218.851 27.3216 219.28 28.6326C219.515 28.3192 219.866 27.9797 220.285 27.9536C220.651 27.9379 220.97 28.126 221.253 28.5438C221.818 29.3795 221.488 30.1421 221.2 30.8159C220.986 31.3226 220.777 31.8031 220.876 32.3307C221.012 33.0567 221.734 36.5301 222.09 37.6583C222.142 37.8307 222.247 37.9665 222.42 38.0971C222.802 38.3896 223.43 38.5515 224.089 38.7187C224.665 38.8649 225.261 39.0164 225.748 39.2775C225.994 39.4081 226.193 39.5178 226.386 39.6118C228.704 40.8341 230.484 42.845 231.405 45.2738L232.875 47.9376C234.707 47.8488 235.806 46.1043 236.141 42.7458C236.308 41.0325 235.031 40.0924 233.796 39.1783L233.592 39.0268C232.085 37.9091 231.138 36.9271 230.421 35.7414C229.725 34.5766 229.625 33.5895 229.699 32.4665C229.782 31.1659 229.678 30.0325 229.39 29.0139C229.045 27.7917 228.134 26.6791 226.821 25.8695C226.287 25.5405 224.958 24.663 224.178 23.634C223.602 22.8662 223.137 22.5371 222.43 22.1611C221.342 21.5865 220.206 21.4559 219.233 21.4037C217.433 21.2992 215.633 22.0775 214.267 22.7617C214.125 22.8349 213.979 22.8558 213.838 22.8766C213.503 22.9237 213.042 22.9916 212.158 23.9422C211.106 25.0704 211.31 25.7024 211.525 26.371C211.64 26.7262 211.76 27.097 211.692 27.5253C211.671 27.6663 211.535 27.7656 211.394 27.7447C211.253 27.7238 211.153 27.588 211.174 27.447C211.221 27.1388 211.132 26.862 211.022 26.5329C210.792 25.8225 210.504 24.9398 211.765 23.587C212.775 22.4954 213.361 22.4118 213.754 22.3595C213.869 22.3439 213.953 22.3334 214.021 22.2969C215.444 21.5813 217.328 20.7717 219.248 20.8814C220.274 20.9336 221.483 21.0746 222.66 21.7014C223.419 22.1036 223.953 22.4797 224.581 23.3206C225.083 23.984 226.015 24.7727 227.077 25.4256C228.5 26.3031 229.495 27.5305 229.877 28.8729C230.18 29.9541 230.285 31.1398 230.201 32.503C230.133 33.5581 230.222 34.42 230.85 35.475C231.536 36.6137 232.415 37.5225 233.885 38.6142L234.089 38.7657C235.382 39.7163 236.842 40.7923 236.643 42.8032C236.266 46.5639 234.942 48.4704 232.713 48.4704L232.734 48.4756Z" fill="black"/>
<path d="M118.048 118.801C117.901 118.801 117.786 118.686 117.786 118.54C117.786 118.394 117.901 118.279 118.048 118.279C118.31 118.279 144.14 118.2 145.798 118.232C146.646 118.242 152.319 118.258 160.351 118.258C165.077 118.263 170.66 118.274 176.678 118.263C194.936 118.279 217.15 118.263 231.363 118.258C235.607 118.253 242.347 118.247 247.831 118.242C252.619 118.242 256.45 118.237 256.837 118.232C256.978 118.232 257.099 118.347 257.099 118.493C257.099 118.639 256.983 118.754 256.837 118.754C256.45 118.754 252.614 118.754 247.826 118.765C242.342 118.765 235.607 118.775 231.358 118.78C217.15 118.791 194.931 118.806 176.673 118.785C170.655 118.791 165.071 118.785 160.346 118.78C152.313 118.78 146.63 118.77 145.783 118.754C144.129 118.723 118.304 118.801 118.043 118.801H118.048Z" fill="black"/>
<path d="M190.326 109.712C189.933 109.712 189.311 109.681 188.803 109.65C187.584 109.582 186.213 109.477 186.213 109.477C186.082 109.467 185.982 109.363 185.972 109.237C185.972 109.211 185.93 108.61 186.077 107.325C186.155 106.652 186.255 105.769 186.354 104.787C186.668 101.925 186.893 99.7779 187.034 98.2371C187.081 97.7565 187.118 97.3178 187.149 96.9313C187.38 94.0689 187.448 91.5879 187.495 89.483L187.51 88.7152C187.657 82.2331 187.746 78.3262 191.665 76.4981C191.686 76.4876 191.713 76.4824 191.733 76.4772C193.188 76.2473 193.999 76.3048 195.517 76.7383C202.581 78.7649 207.349 81.0318 210.829 82.6876C212.582 83.5233 213.968 84.1814 215.151 84.5731C215.528 84.6985 216.025 84.8134 216.679 84.9231C216.82 84.944 216.92 85.0798 216.894 85.2208C216.867 85.3618 216.737 85.4611 216.595 85.435C215.915 85.3253 215.387 85.2052 214.989 85.0693C213.775 84.6672 212.378 83.9986 210.609 83.1577C207.145 81.5123 202.404 79.2559 195.376 77.2398C193.947 76.8271 193.214 76.7749 191.859 76.9838C188.269 78.6761 188.186 82.254 188.039 88.7256L188.023 89.4934C187.971 91.7603 187.898 94.2309 187.678 96.9731C187.647 97.3648 187.61 97.8088 187.563 98.2893C187.422 99.8354 187.196 101.977 186.883 104.844C186.778 105.826 186.684 106.714 186.605 107.388C186.516 108.182 186.501 108.704 186.501 108.976C186.945 109.007 187.934 109.08 188.845 109.127C189.74 109.18 190.362 109.201 190.567 109.185C191.953 109.065 193.717 108.919 195.438 108.783C196.757 108.673 197.961 108.584 198.945 108.522C199.018 107.383 199.039 106.171 199.002 104.824C198.976 103.68 198.918 102.515 198.861 101.387C198.808 100.368 198.756 99.3131 198.725 98.2789C198.725 98.1326 198.835 98.0125 198.981 98.0125C199.128 98.0177 199.248 98.1222 199.248 98.2684C199.274 99.2974 199.332 100.352 199.384 101.366C199.442 102.494 199.504 103.664 199.531 104.818C199.572 106.276 199.546 107.576 199.457 108.798C199.447 108.929 199.342 109.033 199.211 109.039C198.191 109.101 196.904 109.195 195.486 109.31C193.769 109.446 192.006 109.587 190.624 109.712C190.556 109.718 190.462 109.723 190.347 109.723L190.326 109.712Z" fill="black"/>
<path d="M179.666 98.5296C179.52 98.5296 179.405 98.4147 179.405 98.2684C179.405 98.1222 179.52 98.0073 179.666 98.0073H187.296C187.442 98.002 187.558 98.1169 187.558 98.2632C187.558 98.4094 187.442 98.5243 187.296 98.5243H179.666V98.5296Z" fill="black"/>
<path d="M206.046 98.5768C205.287 98.5507 202.649 98.535 198.971 98.5298C198.829 98.5298 198.714 98.4149 198.709 98.2738L198.693 97.1508C198.882 93.4841 198.662 89.9741 198.426 86.2552L198.353 85.0852C198.348 84.9964 198.39 84.9128 198.458 84.8606C198.531 84.8084 198.62 84.7927 198.704 84.8241C199.238 85.0225 201.017 85.1636 202.435 85.1166C203.309 85.0852 204.146 85.0957 205.031 85.1113H205.611C206.156 85.1166 207.03 85.0643 208.05 84.9912C210.499 84.8188 213.848 84.5786 216.669 84.9233C216.679 84.9233 216.695 84.9233 216.711 84.9285C217.004 84.9755 217.318 85.0173 217.652 85.0591C220.007 85.3307 220.944 85.3673 224.058 85.0591C227.668 84.8293 229.578 81.4237 230.144 79.4441C230.562 77.9764 230.84 76.4669 231.106 75.0044C231.426 73.286 231.75 71.5049 232.305 69.7812C232.336 69.6924 232.409 69.6245 232.504 69.6036C233.508 69.4051 234.592 69.1544 235.916 68.8201C236.114 68.7679 236.271 68.6895 236.386 68.5851C237.135 67.9061 237.7 66.7204 237.831 65.5713C237.846 65.4407 237.951 65.3467 238.082 65.3415C238.83 65.3101 239.563 65.3206 240.337 65.3258C240.992 65.331 241.682 65.3415 242.462 65.3258C243.519 65.2788 244.267 65.4877 244.744 65.9735C245.424 66.6629 245.356 67.7024 245.309 68.5433V68.6269C245.194 70.408 244.969 72.2413 244.749 73.9754C244.613 75.088 244.377 76.2058 244.152 77.2922C243.99 78.0757 243.823 78.88 243.692 79.6844C243.577 80.4104 243.472 81.1417 243.373 81.8677C243.132 83.6018 242.881 85.3986 242.42 87.1379C242.09 88.3811 241.928 89.6137 241.771 90.8099C241.541 92.5544 241.3 94.3616 240.536 96.1271C239.751 97.9239 238.469 98.3522 236.664 98.4619C236.491 98.4723 236.313 98.4775 236.13 98.488C234.377 98.5559 227.611 98.5454 221.064 98.535C214.539 98.5245 207.794 98.5193 206.051 98.582L206.046 98.5768ZM199.227 98.0074C202.775 98.0127 205.313 98.0336 206.04 98.0545C207.773 97.9866 214.523 97.997 221.054 98.0074C227.595 98.0179 234.356 98.0283 236.099 97.9604C236.277 97.9552 236.455 97.95 236.617 97.9395C238.312 97.8351 239.359 97.4851 240.044 95.9182C240.782 94.2206 241.002 92.5335 241.237 90.742C241.4 89.5302 241.562 88.2818 241.902 87.0074C242.352 85.2941 242.603 83.5183 242.844 81.7998C242.949 81.0686 243.048 80.3373 243.168 79.6008C243.304 78.786 243.472 77.9712 243.634 77.1877C243.859 76.117 244.089 75.0044 244.225 73.9128C244.445 72.1891 244.67 70.3662 244.775 68.6008V68.5172C244.827 67.7441 244.88 66.8719 244.367 66.3495C244.006 65.9839 243.367 65.822 242.472 65.8586C241.682 65.8742 240.981 65.8638 240.327 65.8586C239.636 65.8533 238.977 65.8429 238.317 65.8586C238.129 67.0703 237.538 68.2456 236.737 68.9768C236.559 69.1387 236.324 69.2589 236.041 69.332C234.775 69.6558 233.723 69.8961 232.755 70.0946C232.237 71.7399 231.923 73.4479 231.619 75.1037C231.347 76.5766 231.065 78.0966 230.646 79.5904C230.478 80.1702 228.888 85.2785 224.099 85.5814C220.944 85.8948 219.992 85.8583 217.611 85.5814C217.244 85.5396 216.93 85.4926 216.627 85.4456C216.616 85.4456 216.601 85.4456 216.59 85.4352C213.796 85.1061 210.499 85.3412 208.087 85.5135C207.014 85.5866 206.166 85.6441 205.606 85.6441H205.025C204.146 85.6232 203.319 85.6128 202.456 85.6441C201.294 85.6754 199.745 85.5971 198.897 85.4195L198.95 86.2239C199.185 89.9533 199.405 93.4789 199.217 97.1613L199.232 98.0074H199.227Z" fill="black"/>
<path d="M170.1 97.2083C170.017 97.2083 169.938 97.1665 169.886 97.0986C169.734 96.8844 169.567 96.6964 169.446 96.6128C169.253 96.4823 168.96 96.4352 168.677 96.3935L168.536 96.3726C168.101 96.2942 167.698 96.1427 167.311 96.0017L167.065 95.9129C165.961 95.5316 164.543 95.3488 162.842 95.3593C162.288 95.3593 159.839 95.7719 159.001 96.9419C158.954 97.015 158.87 97.0673 158.776 97.0673C158.63 97.0673 158.515 96.9524 158.515 96.8113C158.515 96.7486 158.53 96.7016 158.562 96.6546C159.535 95.2757 162.178 94.8422 162.837 94.8422C164.59 94.8265 166.071 95.025 167.233 95.4272L167.489 95.5212C167.876 95.6622 168.243 95.798 168.625 95.8659L168.756 95.8868C169.08 95.9338 169.452 95.9913 169.75 96.195C170.001 96.3726 170.231 96.686 170.32 96.8113C170.404 96.9315 170.373 97.0934 170.252 97.1769C170.205 97.2083 170.153 97.224 170.106 97.224L170.1 97.2083Z" fill="black"/>
<path d="M159.493 98.5244C156.128 98.5244 153.465 98.5088 152.716 98.4827C152.507 98.4774 152.308 98.4618 152.12 98.4513C150.341 98.3364 149.08 97.9029 148.305 96.1218C147.541 94.3563 147.3 92.5543 147.07 90.8045C146.913 89.6084 146.751 88.3757 146.421 87.1326C145.961 85.3933 145.709 83.5965 145.469 81.8624C145.364 81.1364 145.265 80.4051 145.15 79.6739C145.019 78.8695 144.851 78.0651 144.689 77.2816C144.464 76.2004 144.234 75.0827 144.093 73.9649C143.873 72.236 143.648 70.3974 143.538 68.6215V68.538C143.48 67.7023 143.417 66.6576 144.098 65.9681C144.574 65.4824 145.322 65.2735 146.39 65.3257C147.159 65.3361 147.85 65.3309 148.499 65.3257C150.001 65.31 151.293 65.2943 152.915 65.5346C153.161 65.5712 153.418 65.613 153.685 65.6652C155.066 65.9211 155.354 66.6785 155.757 67.7231C155.83 67.9112 155.909 68.1149 155.998 68.3343C156.903 70.5228 157.327 72.8053 157.735 75.0095C158.002 76.4668 158.284 77.9763 158.698 79.444C158.808 79.841 158.907 80.2745 159.006 80.7394C159.357 82.3429 159.755 84.1606 161 84.9232C162.136 85.6283 164.009 85.5918 165.668 85.5709C166.212 85.5604 166.725 85.5552 167.191 85.5709C169.164 85.644 175.36 85.4194 177.447 85.3045C177.589 85.2888 177.714 85.4089 177.725 85.55C177.735 85.691 177.62 85.8164 177.479 85.8268C175.386 85.9417 169.158 86.1611 167.17 86.0932C166.72 86.0723 166.212 86.0827 165.673 86.0932C163.946 86.1193 161.989 86.1559 160.723 85.3672C159.289 84.4844 158.865 82.5518 158.494 80.8491C158.394 80.3947 158.3 79.9611 158.19 79.5851C157.766 78.0965 157.484 76.5713 157.212 75.1035C156.809 72.9255 156.395 70.669 155.506 68.5327C155.411 68.3134 155.333 68.1044 155.26 67.9112C154.867 66.8927 154.674 66.386 153.58 66.1823C153.323 66.1353 153.072 66.0935 152.832 66.0569C151.251 65.8219 149.974 65.8376 148.499 65.8532C147.845 65.8585 147.149 65.8689 146.369 65.8532C145.469 65.8115 144.83 65.9786 144.469 66.3442C143.956 66.8665 144.009 67.7388 144.056 68.5119V68.5954C144.171 70.3609 144.391 72.189 144.611 73.9074C144.747 74.9991 144.977 76.1116 145.202 77.1824C145.364 77.9711 145.537 78.7859 145.668 79.5955C145.788 80.3268 145.887 81.0632 145.992 81.7945C146.233 83.5129 146.484 85.294 146.934 87.0073C147.269 88.2817 147.436 89.5301 147.599 90.7419C147.834 92.5282 148.059 94.2205 148.792 95.9181C149.467 97.4694 150.498 97.8245 152.157 97.929C152.34 97.9394 152.533 97.9499 152.737 97.9603C153.48 97.9864 156.134 98.0021 159.498 98.0021C159.645 98.0021 159.76 98.117 159.76 98.2633C159.76 98.4095 159.645 98.5244 159.498 98.5244H159.493Z" fill="black"/>
<path d="M171.419 105.027C170.184 105.022 169.09 105.012 168.19 104.996C166.322 104.97 159.765 104.996 157.897 104.97H157.599C157.311 104.97 157.023 104.975 156.73 104.98C156.437 104.985 156.139 104.991 155.84 104.991C154.386 104.991 153.14 103.993 152.811 102.562C152.418 100.885 152.146 99.6317 151.879 98.2319C151.853 98.0908 151.947 97.955 152.088 97.9289C152.23 97.9028 152.366 97.9968 152.392 98.1378C152.659 99.5324 152.926 100.781 153.318 102.447C153.59 103.622 154.647 104.468 155.84 104.468C156.134 104.468 156.427 104.463 156.72 104.458C157.013 104.453 157.306 104.447 157.599 104.447H157.902C159.781 104.474 166.333 104.447 168.201 104.474C169.101 104.484 170.189 104.5 171.424 104.505C171.571 104.505 171.686 104.625 171.686 104.766C171.686 104.907 171.566 105.027 171.424 105.027H171.419Z" fill="black"/>
<path d="M199.248 105.074C199.102 105.074 198.986 104.96 198.986 104.813C198.986 104.667 199.102 104.552 199.248 104.552C205.355 104.552 216.077 104.531 220.567 104.474C221.535 104.463 223.759 104.463 225.941 104.463H225.952C227.977 104.463 229.966 104.463 230.866 104.453C231.012 104.453 231.153 104.453 231.305 104.458C231.567 104.458 231.839 104.458 232.111 104.469C232.383 104.469 232.655 104.479 232.927 104.479C234.115 104.479 235.178 103.628 235.45 102.458C235.842 100.797 236.109 99.5483 236.381 98.1485C236.381 98.0022 236.496 97.9082 236.643 97.9082C236.789 97.9082 236.905 98.0492 236.905 98.1903C236.627 99.6528 236.355 100.906 235.963 102.573C235.633 103.998 234.387 105.001 232.933 105.001C232.655 105.001 232.383 105.001 232.106 104.991C231.834 104.991 231.567 104.98 231.3 104.98C231.148 104.975 231.012 104.98 230.876 104.975C229.981 104.986 227.982 104.986 225.952 104.986H225.936C223.765 104.986 221.551 104.986 220.588 104.996C216.093 105.054 205.371 105.074 199.258 105.074H199.248Z" fill="black"/>
<path d="M186.616 105.074C183.769 105.074 180.331 105.069 177.065 105.059C176.919 105.059 176.804 104.938 176.804 104.797C176.804 104.651 176.903 104.526 177.065 104.536C180.326 104.547 183.764 104.552 186.61 104.552C186.757 104.552 186.872 104.667 186.872 104.813C186.872 104.959 186.757 105.074 186.61 105.074H186.616Z" fill="black"/>
<path d="M228.422 118.749C228.302 118.749 228.197 118.67 228.171 118.555C227.742 116.905 227.318 114.528 227.156 113.588C226.957 112.429 226.789 111.53 226.637 110.71C226.313 108.95 226.057 107.555 225.685 104.761C225.664 104.62 225.769 104.484 225.91 104.468C226.051 104.453 226.187 104.552 226.203 104.693C226.575 107.477 226.831 108.861 227.156 110.616C227.307 111.436 227.475 112.34 227.674 113.499C227.988 115.333 228.338 117.072 228.621 118.211C229.322 118.164 230.421 118.153 231.112 118.205C231.18 116.952 231.153 113.771 231.117 112.789C231.065 111.259 231.033 104.797 231.033 104.73C231.033 104.583 231.148 104.468 231.295 104.468C231.441 104.468 231.556 104.583 231.556 104.73C231.556 104.792 231.588 111.248 231.64 112.773C231.677 113.839 231.703 117.511 231.614 118.519C231.609 118.587 231.572 118.655 231.52 118.696C231.462 118.738 231.394 118.764 231.326 118.754C230.667 118.676 229.165 118.686 228.448 118.754C228.438 118.754 228.432 118.754 228.422 118.754V118.749Z" fill="black"/>
<path d="M185.92 49.9121C185.815 49.9121 185.71 49.8442 185.674 49.7397C185.627 49.6039 185.695 49.4524 185.831 49.4054C186.082 49.3166 186.307 49.1547 186.359 49.0293C186.37 48.998 186.37 48.9771 186.359 48.9458C186.27 48.7577 185.616 48.7943 185.334 48.8047C185.229 48.81 185.14 48.8152 185.067 48.8152C184.941 48.8152 184.831 48.7264 184.81 48.601C184.789 48.4757 184.857 48.3555 184.978 48.3085C185.035 48.2876 185.103 48.272 185.182 48.2563C185.26 48.2406 185.449 48.1988 185.48 48.1518C185.438 47.8907 184.936 47.6191 184.57 47.5668C184.47 47.5512 184.381 47.478 184.355 47.384C184.324 47.2848 184.355 47.1803 184.433 47.1124C184.522 47.0341 184.627 47.0288 184.711 47.0341C184.632 46.8408 184.36 46.5796 183.617 46.2715C183.104 46.0573 182.675 45.9215 182.22 45.8327C181.89 45.7648 181.681 45.7544 181.587 45.885C181.55 45.979 181.456 46.0469 181.346 46.0469C181.199 46.0469 181.084 45.932 181.084 45.7857C181.084 45.7387 181.1 45.6813 181.126 45.6342C181.424 45.1328 182.032 45.2582 182.325 45.3156C182.811 45.4149 183.272 45.5559 183.816 45.7857C184.454 46.0469 185.297 46.4804 185.26 47.196C185.26 47.2117 185.26 47.2273 185.26 47.2378C185.6 47.3997 185.935 47.6556 185.998 48.016C186.014 48.11 186.014 48.1936 185.998 48.2667C186.359 48.2981 186.699 48.4025 186.841 48.7107C186.919 48.8726 186.919 49.0502 186.851 49.2121C186.689 49.6091 186.171 49.8233 186.019 49.8755C185.988 49.8859 185.961 49.8912 185.93 49.8912L185.92 49.9121Z" fill="black"/>
<path d="M184.502 51.6199C184.303 51.6199 184.099 51.599 183.9 51.5468C183.722 51.5102 183.554 51.4423 183.408 51.3379C182.911 51.0192 180.676 46.5952 181.105 45.6916C181.168 45.561 181.325 45.5035 181.456 45.5662C181.587 45.6289 181.644 45.7856 181.582 45.9162C181.43 46.2348 182.916 50.2514 183.711 50.9148C183.8 50.9775 183.9 51.0192 184.02 51.0454C184.496 51.1707 185.082 51.0715 185.475 50.9409C185.862 50.8103 186.139 50.5753 186.406 50.3507C186.469 50.2984 186.532 50.2462 186.589 50.1992C186.694 50.1156 186.966 49.8962 186.982 49.8022C186.971 49.8022 186.888 49.7761 186.883 49.7709C186.678 49.6873 186.349 49.797 186.087 49.8806L185.893 49.9433C185.757 49.9903 185.606 49.9171 185.564 49.7813C185.522 49.6455 185.59 49.4993 185.726 49.4523L185.925 49.3896C186.265 49.2799 186.694 49.1389 187.076 49.2904C187.118 49.3008 187.181 49.3321 187.238 49.3687C187.442 49.4993 187.495 49.6664 187.505 49.7813C187.526 50.1156 187.186 50.3872 186.919 50.6066C186.862 50.6536 186.804 50.7006 186.746 50.7529C186.469 50.9879 186.124 51.2804 185.642 51.4423C185.48 51.4946 185.02 51.6356 184.507 51.6356L184.502 51.6199Z" fill="black"/>
<path d="M187.05 46.3289C186.992 46.3289 186.935 46.3132 186.888 46.2714C186.275 45.7961 185.935 45.2999 185.789 44.6522C185.757 44.5112 185.846 44.3702 185.988 44.3388C186.129 44.3075 186.27 44.3963 186.302 44.5373C186.422 45.0648 186.694 45.4618 187.207 45.864C187.322 45.9528 187.343 46.1147 187.254 46.2296C187.202 46.2975 187.123 46.3289 187.045 46.3289H187.05Z" fill="black"/>
<path d="M191.718 51.7349C191.65 51.7349 191.582 51.7088 191.529 51.6566L191.435 51.5573C190.76 50.8679 190.122 50.215 189.64 49.3636C189.489 49.0867 189.42 48.8047 189.358 48.5279C189.311 48.3346 189.269 48.157 189.201 47.9846C189.018 47.5198 188.887 47.0758 188.745 46.6057C188.688 46.4072 188.625 46.2087 188.562 46.0103C188.541 45.9476 188.52 45.864 188.499 45.7752C188.468 45.6342 188.421 45.4357 188.358 45.3626C188.327 45.3208 188.311 45.3208 188.233 45.2947C188.165 45.2738 188.076 45.2477 187.971 45.185C187.73 45.0492 187.432 44.8664 187.223 44.6888C186.992 44.5008 186.715 44.203 186.569 44.0202C186.532 43.9732 186.5 43.9314 186.469 43.8844C186.391 43.7747 186.349 43.7225 186.286 43.6912C186.27 43.7538 186.26 43.8635 186.26 44.0307V44.0829C186.265 44.2448 186.275 44.3336 186.291 44.459C186.291 44.459 186.291 44.4851 186.302 44.5112C186.302 44.5269 186.312 44.5687 186.312 44.5791C186.312 44.7254 186.197 44.8455 186.05 44.8455C185.914 44.8455 185.805 44.7462 185.789 44.6104C185.789 44.6 185.789 44.5948 185.789 44.5896L185.778 44.5217C185.763 44.3806 185.747 44.2814 185.742 44.0881C185.742 44.0881 185.742 44.0359 185.742 44.0307C185.742 43.8008 185.736 43.4091 185.993 43.2315C186.087 43.1688 186.244 43.1062 186.474 43.195C186.684 43.2785 186.788 43.4248 186.893 43.5658C186.919 43.6024 186.951 43.6389 186.982 43.6807C187.113 43.8426 187.364 44.109 187.563 44.2709C187.767 44.4433 188.107 44.6366 188.238 44.7149C188.29 44.7462 188.337 44.7567 188.39 44.7776C188.494 44.8089 188.636 44.8507 188.772 45.0126C188.908 45.1798 188.965 45.42 189.018 45.6342C189.033 45.7073 189.049 45.7752 189.07 45.8275C189.133 46.0364 189.195 46.2349 189.253 46.4333C189.389 46.893 189.52 47.3265 189.693 47.7705C189.776 47.9742 189.823 48.1831 189.871 48.3816C189.928 48.6375 189.986 48.8726 190.101 49.0815C190.551 49.8702 191.168 50.497 191.817 51.1656L191.911 51.2648C192.011 51.3693 192.011 51.5312 191.911 51.6357C191.859 51.6827 191.796 51.7088 191.728 51.7088L191.718 51.7349Z" fill="black"/>
<path d="M186.971 49.7866C186.825 49.7866 186.71 49.6717 186.71 49.5254C186.71 49.4628 186.731 49.4105 186.767 49.3635C186.971 49.0397 187.097 48.7629 187.217 48.392C187.265 48.2353 187.343 48.0995 187.422 47.9741C187.573 47.7182 187.652 47.5667 187.568 47.3212C187.531 47.222 187.244 46.8146 187.092 46.5952C186.987 46.4437 186.893 46.3132 186.846 46.2348C186.767 46.1147 186.804 45.9528 186.93 45.8744C187.05 45.7961 187.212 45.8326 187.291 45.958C187.338 46.0311 187.427 46.1565 187.526 46.3027C187.819 46.7258 188.018 47.0131 188.065 47.1541C188.238 47.6399 188.039 47.9741 187.877 48.2458C187.814 48.3554 187.751 48.4547 187.725 48.5539C187.594 48.977 187.442 49.2956 187.212 49.6665C187.202 49.6821 187.191 49.6978 187.176 49.7135C187.128 49.7657 187.06 49.7971 186.987 49.7971L186.971 49.7866Z" fill="black"/>
<path d="M181.346 46.0781C181.278 46.0781 181.215 46.052 181.163 45.9998C181.142 45.9789 181.126 45.958 181.111 45.9266C181.006 45.7961 180.901 45.6655 180.797 45.5401C180.367 45.0178 179.923 44.4746 179.619 43.7903C179.405 43.3046 179.415 42.8449 179.651 42.2077C179.755 41.9152 179.923 41.6279 180.095 41.3198C180.242 41.0586 180.399 40.7922 180.514 40.5154C180.53 40.4736 180.551 40.4161 180.582 40.343C180.812 39.7162 181.1 39.032 181.534 38.844C181.67 38.7865 181.817 38.7761 181.953 38.8231C182.058 38.8387 182.189 38.9536 182.822 39.7215C183.528 40.5781 185.428 43.2262 186.223 44.3806C186.307 44.5007 186.275 44.6626 186.155 44.7462C186.035 44.8298 185.873 44.7984 185.789 44.6783C185.014 43.5553 183.099 40.8862 182.414 40.0505C181.979 39.523 181.822 39.3611 181.77 39.314C181.759 39.314 181.749 39.314 181.738 39.3193C181.472 39.4342 181.168 40.249 181.069 40.5206C181.037 40.6042 181.011 40.6721 180.995 40.7139C180.87 41.0168 180.708 41.2989 180.551 41.5705C180.388 41.8577 180.237 42.1241 180.142 42.3748C179.954 42.8867 179.944 43.2106 180.101 43.571C180.373 44.1925 180.776 44.6783 181.205 45.2006C181.32 45.3416 181.435 45.4827 181.55 45.6289C181.571 45.655 181.587 45.6916 181.597 45.7229C181.629 45.8169 181.608 45.9214 181.534 45.9945C181.482 46.0468 181.414 46.0729 181.351 46.0729L181.346 46.0781Z" fill="black"/>
<path d="M188.73 54.1011C188.662 54.1011 188.599 54.075 188.547 54.028C188.07 53.5579 187.495 53.2393 186.903 52.9259C186.746 52.8423 186.589 52.7535 186.433 52.6647C186.244 52.5603 186.061 52.4506 185.883 52.3618C185.784 52.3095 185.7 52.2678 185.621 52.226C185.449 52.1319 185.307 52.0588 185.077 51.9753L184.915 51.9178C184.596 51.8029 184.208 51.6619 183.889 51.5626C183.753 51.5208 183.675 51.3746 183.717 51.2388C183.758 51.103 183.905 51.0194 184.041 51.0664C184.371 51.1657 184.768 51.3067 185.098 51.4268L185.266 51.4843C185.532 51.5835 185.689 51.6671 185.873 51.7663C185.946 51.8081 186.03 51.8499 186.124 51.8969C186.312 51.9909 186.506 52.1006 186.699 52.2103C186.851 52.2939 187.003 52.3827 187.155 52.461C187.762 52.7796 188.395 53.1296 188.923 53.6519C189.028 53.7511 189.028 53.9183 188.923 54.0228C188.871 54.075 188.803 54.1011 188.735 54.1011H188.73Z" fill="black"/>
<path d="M207.077 76.89C206.281 76.89 205.172 76.7698 204.748 75.9968C204.68 75.8714 204.727 75.7095 204.853 75.6416C204.978 75.5737 205.14 75.6207 205.208 75.7461C205.59 76.446 207.056 76.3781 207.605 76.3572L207.862 76.3467C208.662 76.3206 209.567 76.2841 210.305 76.0699C210.865 75.908 211.425 75.5998 211.969 75.2969L212.137 75.2029C212.76 74.8634 213.335 74.55 213.989 74.294C214.377 74.1373 214.8 74.0172 215.214 73.9023L215.413 73.8448C215.559 73.803 215.711 73.7456 215.868 73.6881C216.077 73.6098 216.292 73.5314 216.506 73.474C216.836 73.3852 217.176 73.2964 217.495 73.171C217.768 73.0561 218.055 72.9412 218.317 72.8367L218.746 72.6644C218.877 72.6069 219.034 72.6748 219.086 72.8054C219.139 72.936 219.076 73.0927 218.945 73.1449L218.516 73.3173C218.254 73.4217 217.972 73.5367 217.7 73.6516C217.349 73.7926 216.993 73.8866 216.642 73.9754C216.449 74.0276 216.25 74.1008 216.056 74.1739C215.884 74.2366 215.721 74.2992 215.564 74.3463L215.366 74.4037C214.968 74.5186 214.554 74.6335 214.193 74.7798C213.571 75.0253 213.011 75.3334 212.414 75.6573L212.231 75.7565C211.666 76.0699 211.08 76.3938 210.462 76.5713C209.662 76.8064 208.72 76.8377 207.893 76.8691L207.642 76.8795C207.495 76.8847 207.302 76.8952 207.092 76.8952L207.077 76.89Z" fill="black"/>
<path d="M205.496 76.1378C205.35 76.1378 205.177 76.1378 204.968 76.1325C204.669 76.1221 204.497 76.1116 204.397 76.0803L204.272 76.0437C203.455 75.8191 202.613 75.5893 202.158 75.0409C202.063 74.9312 202.079 74.7641 202.189 74.6753C202.299 74.5812 202.466 74.5969 202.555 74.7066C202.906 75.1245 203.67 75.3334 204.408 75.5371L204.539 75.5737C204.565 75.5789 204.654 75.5998 204.978 75.605C205.428 75.6154 205.936 75.605 206.072 75.5893C206.088 75.5841 206.108 75.5789 206.124 75.5737C206.815 75.4587 207.485 75.3595 208.118 75.2864C208.259 75.2655 208.39 75.3699 208.411 75.5162C208.427 75.6572 208.327 75.7878 208.181 75.8087C207.568 75.8818 206.914 75.9758 206.239 76.0855C206.124 76.1169 205.915 76.1378 205.491 76.1378H205.496Z" fill="black"/>
<path d="M202.817 75.1714C202.644 75.1714 202.466 75.1557 202.299 75.1192C202.116 75.0826 201.948 75.0095 201.807 74.905L201.744 74.858C201.566 74.7327 201.545 74.623 201.535 74.3879C201.524 73.9283 201.985 73.7089 202.414 73.6932C202.545 73.6932 202.676 73.6932 202.801 73.6776C203.246 73.6514 203.691 73.594 204.125 73.5418C204.465 73.5 204.805 73.453 205.146 73.4268C205.669 73.3851 206.203 73.3015 206.715 73.2231C207.108 73.1605 207.5 73.103 207.898 73.056C208.039 73.0403 208.17 73.1448 208.186 73.2858C208.202 73.4268 208.097 73.5574 207.956 73.5731C207.568 73.6149 207.181 73.6776 206.799 73.735C206.276 73.8186 205.737 73.9022 205.193 73.9439C204.863 73.9701 204.528 74.0171 204.193 74.0589C203.754 74.1163 203.293 74.1738 202.838 74.1999C202.707 74.2103 202.561 74.2208 202.419 74.2208C202.273 74.2208 202.053 74.2835 202.053 74.3775C202.053 74.4036 202.053 74.4297 202.053 74.4454C202.074 74.461 202.095 74.4767 202.116 74.4924C202.189 74.5446 202.288 74.5864 202.404 74.6125C202.67 74.6752 202.979 74.6543 203.277 74.6282C203.398 74.6177 203.513 74.6125 203.623 74.6073C204.434 74.576 205.255 74.4976 206.051 74.4245C206.658 74.367 207.265 74.3096 207.882 74.273C208.029 74.2626 208.149 74.3722 208.16 74.5185C208.17 74.6647 208.06 74.7849 207.914 74.7953C207.302 74.8319 206.7 74.8893 206.098 74.9468C205.297 75.0199 204.471 75.0983 203.644 75.1296C203.539 75.1296 203.434 75.1401 203.319 75.1505C203.157 75.161 202.984 75.1766 202.806 75.1766L202.817 75.1714Z" fill="black"/>
<path d="M202.833 74.1999C202.765 74.1999 202.697 74.1737 202.644 74.1215C202.398 73.8656 202.377 73.6357 202.404 73.4843C202.445 73.2388 202.634 73.0194 202.969 72.8418C203.241 72.7008 203.539 72.6277 203.832 72.5598C204.01 72.518 204.193 72.4762 204.361 72.4135C204.884 72.2255 205.407 72.074 206.014 71.9278C206.203 71.886 206.381 71.839 206.559 71.7919C207.296 71.6039 208.024 71.4054 208.756 71.2017C209.29 71.0555 209.829 70.904 210.373 70.763C210.515 70.7264 210.656 70.81 210.693 70.951C210.729 71.092 210.645 71.2331 210.504 71.2696C209.965 71.4107 209.426 71.5621 208.892 71.7084C208.155 71.9121 207.427 72.1158 206.684 72.2986C206.501 72.3456 206.318 72.3978 206.124 72.4396C205.538 72.5807 205.03 72.7269 204.528 72.9097C204.34 72.9776 204.141 73.0246 203.942 73.0716C203.67 73.1343 203.413 73.197 203.204 73.3067C202.948 73.4425 202.916 73.5417 202.911 73.5678C202.901 73.6305 202.974 73.7141 203.016 73.7611C203.115 73.8656 203.115 74.0327 203.011 74.1319C202.958 74.179 202.895 74.2051 202.827 74.2051L202.833 74.1999Z" fill="black"/>
<path d="M206.632 72.3038C206.496 72.3038 206.381 72.1993 206.37 72.0635C206.297 71.1025 207.045 70.7316 207.495 70.5123C207.61 70.4548 207.72 70.4026 207.773 70.3556L207.998 70.1675C208.427 69.8019 208.83 69.4572 209.442 69.2743C210.096 69.0811 210.933 69.0498 211.504 69.0811C211.901 69.102 212.226 69.1281 212.555 69.1542C213.006 69.1908 213.471 69.2273 214.125 69.2482C214.329 69.2535 214.565 69.2796 214.811 69.3109C215.345 69.3684 215.946 69.4363 216.245 69.2952C216.376 69.2326 216.533 69.2848 216.595 69.4154C216.658 69.546 216.606 69.7027 216.475 69.7653C216.041 69.9743 215.387 69.9011 214.759 69.8332C214.528 69.8071 214.303 69.781 214.115 69.7758C213.45 69.7549 212.974 69.7183 212.519 69.6818C212.194 69.6556 211.87 69.6295 211.477 69.6139C210.813 69.5773 210.075 69.64 209.594 69.7862C209.091 69.9377 208.746 70.2302 208.343 70.5749L208.113 70.7682C208.013 70.8518 207.882 70.9144 207.736 70.9876C207.239 71.2331 206.862 71.4681 206.904 72.0322C206.914 72.1785 206.804 72.3038 206.663 72.3143C206.658 72.3143 206.647 72.3143 206.642 72.3143L206.632 72.3038Z" fill="black"/>
<path d="M205.742 57.7521C205.711 57.7521 205.679 57.7468 205.648 57.7364C205.512 57.6842 205.449 57.5327 205.501 57.3969C206.197 55.621 207.103 53.2758 207.835 51.3693C208.453 49.771 208.945 48.4861 209.097 48.1152C209.269 47.6921 209.426 47.2116 209.588 46.7102C210.42 44.1299 211.462 40.9124 216.407 39.9252C216.548 39.8939 216.684 39.9879 216.716 40.1289C216.742 40.27 216.653 40.4058 216.512 40.4371C211.865 41.3668 210.881 44.4172 210.091 46.8669C209.923 47.384 209.766 47.8697 209.588 48.3085C209.437 48.6741 208.945 49.9538 208.332 51.5521C207.6 53.4586 206.695 55.809 205.993 57.5797C205.951 57.6842 205.852 57.7468 205.747 57.7468L205.742 57.7521Z" fill="black"/>
<path d="M204.183 60.7032C204.021 60.7032 203.848 60.6509 203.68 60.5412C202.566 59.857 201.425 58.6974 200.415 57.6737L200.357 57.6162C199.405 56.6552 198.505 55.7411 197.647 55.177C197.15 54.8427 196.747 54.5345 196.359 54.2368C195.888 53.8764 195.444 53.5369 194.899 53.2131C194.266 52.8318 193.701 52.534 193.099 52.2207C192.817 52.0692 192.529 51.9177 192.225 51.7558C192.184 51.7924 192.142 51.8289 192.095 51.8655C191.718 52.1789 191.362 52.4505 191.011 52.7325C190.624 53.0355 190.237 53.3384 189.86 53.6518C189.75 53.7406 189.583 53.7302 189.494 53.6153C189.4 53.5056 189.415 53.3384 189.525 53.2496C189.907 52.931 190.3 52.6281 190.687 52.3199C191.038 52.0431 191.388 51.7715 191.728 51.4894C191.849 51.3902 191.938 51.317 192.021 51.2439C192.105 51.1708 192.225 51.1603 192.32 51.2126C192.675 51.4058 193.01 51.5834 193.34 51.761C193.942 52.0796 194.517 52.3826 195.161 52.7691C195.731 53.1086 196.187 53.4586 196.668 53.8294C197.05 54.1219 197.443 54.4249 197.929 54.7487C198.829 55.3441 199.75 56.2739 200.724 57.2558L200.781 57.3133C201.77 58.3161 202.89 59.4548 203.953 60.1077C204.031 60.1547 204.141 60.207 204.23 60.1808C204.329 60.1547 204.403 60.0398 204.45 59.9458C204.591 59.6742 204.978 58.7236 205.491 57.4021C205.543 57.2663 205.695 57.1984 205.831 57.2506C205.967 57.3028 206.035 57.4543 205.983 57.5901C205.454 58.9482 205.067 59.8883 204.921 60.1808C204.753 60.5151 204.533 60.6405 204.376 60.6823C204.314 60.6979 204.246 60.7084 204.183 60.7084V60.7032Z" fill="black"/>
<path d="M189.588 53.7929C189.52 53.7929 189.452 53.7668 189.405 53.7146C189.311 53.6206 189.305 53.4639 189.389 53.3646C189.431 53.3176 189.473 53.2863 189.504 53.2602C189.504 53.2602 189.515 53.2549 189.515 53.2497L189.525 53.2393C189.635 53.1452 189.803 53.1609 189.891 53.2758C189.986 53.3855 189.97 53.5527 189.86 53.6415L189.755 53.7302C189.708 53.772 189.646 53.7929 189.588 53.7929Z" fill="black"/>
<path d="M200.598 67.3158C200.551 67.3158 200.504 67.3054 200.462 67.2793C200.41 67.2479 200.352 67.2061 200.3 67.1696L200.216 67.1121C200.002 66.945 199.782 66.7987 199.552 66.6472C199.285 66.4697 199.007 66.2868 198.761 66.0831C197.537 65.0385 196.407 63.8789 195.318 62.756C194.758 62.1814 194.198 61.6016 193.623 61.0375C192.785 60.2123 191.854 59.4497 190.949 58.708C190.635 58.452 190.321 58.1909 190.012 57.9297C189.891 57.8357 189.776 57.7364 189.661 57.6372C189.332 57.3604 189.101 57.047 188.876 56.7493C188.725 56.5403 188.562 56.3262 188.369 56.1225C188.285 56.0389 188.165 55.9449 188.034 55.8456C187.673 55.574 187.228 55.2293 187.202 54.6809C187.202 54.5764 187.259 54.4772 187.353 54.4301C187.793 54.2317 188.233 54.0071 188.672 53.7564C188.965 53.5892 189.264 53.4116 189.551 53.234C189.672 53.1557 189.834 53.1922 189.912 53.3176C189.991 53.4377 189.949 53.5997 189.829 53.678C189.536 53.8608 189.232 54.0384 188.934 54.2108C188.541 54.4354 188.149 54.6391 187.756 54.8219C187.845 55.0517 188.102 55.245 188.348 55.433C188.494 55.5427 188.63 55.6472 188.745 55.7621C188.96 55.9919 189.133 56.2217 189.295 56.4411C189.509 56.7336 189.714 57.0052 189.996 57.2402C190.111 57.3343 190.226 57.4335 190.342 57.5275C190.655 57.7887 190.969 58.0498 191.283 58.3058C192.194 59.0527 193.136 59.8257 193.989 60.6667C194.57 61.236 195.135 61.8158 195.695 62.3956C196.778 63.5081 197.893 64.6624 199.102 65.6862C199.321 65.8742 199.578 66.0414 199.845 66.2137C200.075 66.3652 200.316 66.5219 200.535 66.6995L200.619 66.7569C200.661 66.7883 200.698 66.8196 200.739 66.8405C200.865 66.9136 200.902 67.0756 200.823 67.2009C200.776 67.2793 200.687 67.3263 200.598 67.3263V67.3158Z" fill="black"/>
<path d="M207.035 67.4933C206.956 67.4933 206.878 67.4567 206.825 67.394C206.736 67.2791 206.757 67.1172 206.872 67.0284C207.139 66.8195 207.406 66.5949 207.668 66.3546C208.223 65.8323 209.091 65.2577 210.007 64.6466C211.242 63.8214 212.519 62.9752 213.126 62.1969C213.215 62.082 213.382 62.0611 213.492 62.1552C213.607 62.244 213.628 62.4059 213.539 62.5208C212.88 63.3617 211.566 64.234 210.295 65.0802C209.395 65.6808 208.547 66.2449 208.018 66.7359C207.746 66.9866 207.464 67.2217 207.186 67.4358C207.139 67.4724 207.082 67.4881 207.024 67.4881L207.035 67.4933Z" fill="black"/>
<path d="M215.612 69.149C215.612 69.149 215.57 69.149 215.544 69.1386C214.853 68.9557 214.047 68.7729 213.084 68.564C210.74 68.0678 208.249 67.6499 207.003 67.488C206.862 67.4671 206.757 67.3366 206.778 67.1955C206.794 67.0545 206.93 66.95 207.071 66.9709C208.332 67.1328 210.839 67.5559 213.194 68.0521C214.167 68.2611 214.978 68.4491 215.68 68.6319C215.821 68.6685 215.905 68.8095 215.868 68.9505C215.837 69.0654 215.732 69.1438 215.617 69.1438L215.612 69.149Z" fill="black"/>
<path d="M213.142 68.5746C213.142 68.5746 213.126 68.5746 213.121 68.5746C212.974 68.5641 212.869 68.4388 212.88 68.2925C213.084 65.5869 213.11 64.49 213.079 62.3642C213.068 61.6643 212.99 61.1524 212.906 60.5569C212.77 59.6429 212.618 58.6035 212.624 56.5403C212.629 55.4121 212.995 53.8608 213.346 52.3617C213.607 51.2387 213.859 50.1784 213.895 49.5099C213.906 49.3636 214.031 49.2539 214.173 49.2644C214.319 49.2748 214.429 49.3949 214.418 49.5412C214.377 50.2568 214.125 51.338 213.859 52.4819C213.529 53.8869 213.157 55.4748 213.152 56.5455C213.147 58.5721 213.293 59.5907 213.429 60.4838C213.518 61.0949 213.597 61.6225 213.607 62.3537C213.639 64.6467 213.602 65.7645 213.408 68.3395C213.398 68.4753 213.283 68.5798 213.147 68.5798L213.142 68.5746Z" fill="black"/>
<path d="M175.94 105.654C175.794 105.654 175.679 105.539 175.679 105.393C175.679 105.247 175.794 105.132 175.94 105.132C176.087 105.132 176.479 104.944 176.903 104.599C177.128 104.411 177.327 104.207 177.458 104.025C178.311 102.855 178.552 101.434 178.682 100.076C178.73 99.5953 178.928 99.0155 179.216 98.5245C179.295 98.3887 179.368 98.2634 179.446 98.138L179.771 97.6C180.085 97.0882 180.404 96.5554 180.687 96.0226C178.128 95.4011 176.291 95.2757 174.664 95.1608L174.077 95.119C174.004 95.2026 173.941 95.2861 173.873 95.3697C173.439 95.9025 173.062 96.3673 172.366 96.7382C171.749 97.062 171.131 97.1561 170.535 97.1769C170.535 97.1822 170.545 97.1926 170.545 97.1978C170.702 97.506 170.828 97.8351 170.932 98.2164C171.006 98.5036 171.068 98.817 171.116 99.1774C171.215 99.9139 171.241 100.708 171.194 101.544V101.664C171.168 102.04 171.142 102.515 170.859 102.834C170.765 102.943 170.597 102.954 170.488 102.86C170.378 102.766 170.367 102.599 170.461 102.489C170.624 102.301 170.645 101.946 170.666 101.632V101.512C170.718 100.713 170.692 99.9505 170.597 99.2506C170.55 98.9058 170.498 98.6186 170.43 98.3522C170.336 98.0127 170.226 97.7097 170.085 97.4381C170.038 97.3441 169.97 97.2292 169.881 97.1038C169.839 97.0411 169.823 96.9576 169.844 96.8844C169.865 96.8113 169.922 96.7486 169.99 96.7173L170.074 96.6807C170.106 96.6651 170.142 96.6599 170.179 96.6599C170.906 96.6599 171.513 96.5972 172.115 96.2786C172.712 95.9599 173.041 95.5578 173.46 95.0459C173.549 94.9414 173.638 94.8265 173.732 94.7168C173.743 94.7011 173.758 94.6855 173.774 94.6698C173.826 94.6228 173.9 94.5967 173.973 94.5967L174.695 94.6489C176.401 94.769 178.337 94.8996 181.084 95.5943C181.226 95.6309 181.309 95.7719 181.273 95.9129L181.226 96.1062C181.226 96.1062 181.215 96.1428 181.205 96.1636C180.901 96.7486 180.551 97.3232 180.216 97.8821L179.891 98.4201C179.813 98.5454 179.745 98.6656 179.677 98.7857C179.426 99.2192 179.248 99.7311 179.206 100.133C179.064 101.564 178.808 103.069 177.882 104.338C177.72 104.557 177.5 104.787 177.238 105.007C177.05 105.163 176.401 105.659 175.94 105.659V105.654Z" fill="black"/>
<path d="M184.193 97.0306C184.167 97.0306 184.135 97.0306 184.109 97.0149C182.942 96.6232 181.911 96.3202 180.959 96.0799C180.817 96.0434 180.734 95.9024 180.77 95.7613C180.807 95.6203 180.948 95.5367 181.09 95.5733C181.995 95.7979 182.973 96.0852 184.067 96.4456C184.501 95.5994 186.213 92.2148 187.526 89.3733C187.526 89.3733 187.531 89.3629 187.537 89.3577C187.578 89.2689 187.667 89.2114 187.772 89.2114C187.919 89.2114 188.034 89.3263 188.034 89.4726C188.034 89.5144 188.023 89.5614 188.002 89.5979C186.495 92.8677 184.454 96.8425 184.433 96.8843C184.386 96.9731 184.297 97.0254 184.198 97.0254L184.193 97.0306Z" fill="black"/>
<path d="M176.092 106.871C175.26 106.871 173.779 106.286 171.335 105.012C171.325 105.012 171.314 105.001 171.304 104.996C170.932 104.803 170.577 104.615 170.247 104.442C169.724 104.165 169.274 103.93 168.949 103.774C165.631 102.186 162.502 100.457 159.383 98.4983C159.373 98.4931 159.357 98.4878 159.347 98.4774L158.572 97.9812C158.326 97.8088 157.808 97.4536 158.08 96.9731C158.232 96.7328 158.452 96.5814 158.729 96.5396C159.561 96.3881 160.801 97.1873 161.466 97.6156C161.586 97.6939 161.686 97.7566 161.749 97.7932L162.429 98.1692C162.931 98.4461 163.502 98.7594 163.857 98.9423C163.957 98.9945 164.224 99.1355 164.58 99.3288C165.579 99.8668 167.243 100.77 167.782 100.985C168.452 101.251 169.106 101.58 169.734 101.899C170.079 102.076 170.43 102.249 170.781 102.416C170.864 102.457 170.948 102.499 171.027 102.531C172.513 103.204 173.811 103.868 175.009 104.557C175.318 104.73 175.616 104.912 175.919 105.095C175.925 105.095 175.982 105.121 176.056 105.158C176.506 105.377 176.778 105.586 176.888 105.8C176.898 105.821 176.908 105.847 176.914 105.868C177.013 106.349 176.84 106.589 176.678 106.714C176.537 106.819 176.343 106.876 176.092 106.876V106.871ZM171.519 104.521C171.519 104.521 171.539 104.531 171.55 104.536C175.04 106.359 176.097 106.495 176.364 106.297C176.427 106.25 176.427 106.124 176.411 106.02C176.364 105.957 176.228 105.826 175.83 105.628C175.762 105.591 175.71 105.571 175.705 105.571C175.365 105.372 175.061 105.189 174.753 105.017C173.57 104.333 172.283 103.68 170.817 103.016C170.734 102.98 170.645 102.938 170.55 102.891C170.2 102.729 169.849 102.551 169.499 102.369C168.881 102.055 168.237 101.731 167.589 101.476C167.023 101.251 165.338 100.342 164.334 99.7936C163.988 99.6056 163.721 99.4646 163.627 99.4123C163.266 99.2295 162.69 98.9109 162.183 98.6341L161.503 98.258C161.435 98.2215 161.325 98.1483 161.189 98.0648C160.671 97.7305 159.457 96.947 158.829 97.0619C158.698 97.0828 158.609 97.1403 158.541 97.2447C158.541 97.3022 158.656 97.4014 158.881 97.5581C158.923 97.5894 158.965 97.6156 158.996 97.6365L159.614 98.023C159.614 98.023 159.634 98.0334 159.645 98.0386C162.753 99.9974 165.872 101.721 169.185 103.304C169.514 103.46 169.97 103.701 170.498 103.983C170.817 104.15 171.163 104.333 171.524 104.521H171.519Z" fill="black"/>
<path d="M207.029 67.4934C205.517 67.4568 204.073 67.415 202.712 67.3733L200.588 67.3106C200.441 67.3106 200.331 67.1852 200.331 67.0442C200.331 66.8979 200.452 66.783 200.598 66.7883L202.723 66.8509C204.083 66.8927 205.522 66.9345 207.035 66.9711C207.181 66.9711 207.291 67.0964 207.291 67.2375C207.291 67.3785 207.171 67.4934 207.029 67.4934Z" fill="black"/>
<path d="M173.957 95.1033C173.957 95.1033 173.947 95.1033 173.936 95.1033C173.078 95.0406 172.136 94.957 171.074 94.7429C170.979 94.722 170.906 94.6593 170.875 94.5705C170.843 94.4817 170.864 94.3825 170.927 94.3146C173.308 91.6403 175.663 88.3288 177.222 85.4456C178.892 82.7974 180.242 80.6924 181.393 78.8957C184.004 74.8215 185.579 72.3666 187.531 68.8148C188.206 67.5874 189.687 67.1121 190.812 66.9293C193.068 66.5636 195.219 66.6315 198.788 66.7412L200.603 66.7935C200.75 66.7935 200.86 66.9188 200.86 67.0598C200.86 67.2061 200.734 67.3106 200.593 67.3158L198.772 67.2636C195.24 67.1539 193.105 67.0912 190.896 67.4464C189.886 67.6083 188.568 68.0209 187.992 69.0656C186.03 72.633 184.454 75.0984 181.833 79.1777C180.681 80.9745 179.337 83.0742 177.672 85.7067C176.171 88.4855 173.926 91.6769 171.623 94.3146C172.481 94.4608 173.256 94.534 173.973 94.581C174.119 94.5914 174.224 94.7168 174.213 94.863C174.203 94.9988 174.088 95.1033 173.952 95.1033H173.957Z" fill="black"/>
<path d="M217.621 85.5814C217.621 85.5814 217.59 85.5814 217.574 85.5814C217.265 85.5292 216.946 85.4874 216.637 85.4509C216.496 85.4352 216.391 85.3046 216.407 85.1636C216.423 85.0173 216.553 84.9181 216.695 84.9338C217.014 84.9703 217.344 85.0121 217.663 85.0696C217.804 85.0957 217.898 85.2315 217.877 85.3725C217.856 85.4979 217.747 85.5919 217.621 85.5919V85.5814Z" fill="black"/>
<path d="M198.61 85.3305C198.474 85.3305 198.358 85.2261 198.348 85.085C198.311 84.4844 198.275 83.8785 198.243 83.2674C198.238 83.1211 198.348 83.001 198.489 82.9958C198.631 82.9801 198.756 83.1002 198.761 83.2413C198.793 83.8471 198.829 84.453 198.866 85.0485C198.876 85.1947 198.767 85.3149 198.62 85.3253C198.615 85.3253 198.61 85.3253 198.604 85.3253L198.61 85.3305Z" fill="black"/>
<path d="M175.94 105.654C175.914 105.654 175.857 105.654 175.804 105.639C175.668 105.597 175.59 105.451 175.632 105.315C175.674 105.179 175.82 105.101 175.956 105.142C176.103 105.142 176.207 105.257 176.207 105.398C176.207 105.539 176.082 105.654 175.935 105.654H175.94Z" fill="black"/>
<path d="M176.406 117.526C176.406 117.526 176.385 117.526 176.375 117.526C176.233 117.511 176.129 117.38 176.144 117.239C176.197 116.759 176.589 115.119 179.321 114.095C181.377 113.327 181.979 113.113 185.014 112.235C185.041 112.23 185.061 112.225 185.088 112.225C185.417 112.225 185.784 112.267 186.16 112.34C186.652 112.434 187.113 112.585 187.422 112.758C187.599 112.862 187.751 112.998 187.866 113.144C189.007 114.534 189.546 115.85 189.572 117.281L189.049 117.291C189.028 115.98 188.526 114.769 187.463 113.473C187.38 113.369 187.275 113.28 187.16 113.212C186.914 113.076 186.5 112.94 186.061 112.857C185.731 112.789 185.412 112.758 185.124 112.752C182.141 113.619 181.54 113.834 179.504 114.591C177.05 115.51 176.71 116.9 176.668 117.302C176.652 117.438 176.537 117.532 176.406 117.532V117.526Z" fill="black"/>
<path d="M182.775 118.958C182.262 118.958 181.754 118.958 181.252 118.958H180.226C180.116 118.958 180.001 118.942 179.881 118.926C179.729 118.911 179.572 118.89 179.457 118.911C179.143 118.968 177.395 118.884 177.081 118.837L176.945 118.822C176.84 118.811 176.736 118.801 176.631 118.78C176.448 118.754 176.176 118.686 175.951 118.425C175.726 118.169 175.642 117.876 175.721 117.6C175.799 117.328 176.019 117.114 176.328 117.02C176.354 117.009 176.406 116.994 176.453 116.983C176.469 116.983 176.49 116.978 176.506 116.983C177.484 116.983 178.62 117.02 179.823 117.056C182.199 117.129 184.889 117.208 186.862 117.056C187.348 117.088 188.159 117.077 189.3 117.025L189.604 117.009C189.729 117.004 189.813 116.999 189.85 116.999C190.012 116.994 190.179 116.978 190.347 116.962C190.666 116.936 190.99 116.905 191.357 116.936L191.587 116.957C192.597 117.041 193.555 117.119 194.554 117.072L194.748 117.062C195.151 117.035 195.569 117.015 195.977 117.056C196.276 117.082 196.553 117.156 196.804 117.265C197.04 117.37 197.191 117.694 197.218 117.965C197.249 118.284 197.129 118.571 196.888 118.749C196.668 118.905 196.354 118.973 195.951 118.947C195.37 118.905 194.758 118.916 194.162 118.926C193.842 118.931 193.523 118.937 193.214 118.937C192.707 118.937 192.194 118.911 191.697 118.879C191.268 118.858 190.839 118.832 190.41 118.827C189.29 118.811 187.966 118.806 186.61 118.874C185.334 118.947 184.046 118.963 182.775 118.963V118.958ZM179.577 118.378C179.698 118.378 179.818 118.393 179.938 118.404C180.038 118.414 180.137 118.425 180.226 118.425H181.252C183 118.44 184.805 118.446 186.579 118.346C187.95 118.273 189.284 118.284 190.41 118.299C190.844 118.305 191.278 118.331 191.718 118.352C192.252 118.383 192.806 118.409 193.356 118.409C193.617 118.409 193.879 118.409 194.146 118.399C194.753 118.388 195.376 118.378 195.977 118.42C196.318 118.44 196.49 118.378 196.574 118.315C196.652 118.258 196.694 118.174 196.694 118.064C196.694 117.892 196.605 117.751 196.574 117.725C196.386 117.641 196.166 117.589 195.92 117.563C195.548 117.521 195.156 117.547 194.774 117.568L194.575 117.579C193.539 117.631 192.566 117.547 191.535 117.464L191.304 117.443C190.985 117.417 190.692 117.443 190.383 117.469C190.211 117.485 190.033 117.5 189.855 117.506C189.813 117.506 189.734 117.506 189.625 117.516L189.316 117.532C188.154 117.584 187.327 117.594 186.856 117.563C184.899 117.714 182.189 117.636 179.802 117.563C178.62 117.526 177.5 117.495 176.532 117.49C176.521 117.49 176.511 117.495 176.5 117.5C176.343 117.553 176.249 117.631 176.223 117.73C176.197 117.829 176.239 117.955 176.343 118.075C176.432 118.179 176.537 118.232 176.71 118.258C176.809 118.273 176.903 118.284 176.997 118.294L177.144 118.31C177.463 118.352 179.143 118.425 179.363 118.383C179.431 118.373 179.504 118.367 179.572 118.367L179.577 118.378Z" fill="black"/>
<path d="M186.108 112.852C185.993 112.852 185.888 112.773 185.857 112.659C185.82 112.518 185.904 112.377 186.04 112.34C186.501 112.215 187.191 111.692 187.448 111.499C187.568 111.41 187.631 111.342 187.709 111.243C188.023 110.841 188.269 110.355 188.421 109.833L188.568 109.368C188.609 109.232 188.756 109.154 188.897 109.196C189.033 109.237 189.112 109.384 189.07 109.525L188.923 109.984C188.756 110.564 188.473 111.112 188.118 111.567C188.013 111.697 187.919 111.802 187.756 111.917C187.28 112.277 186.663 112.711 186.171 112.841C186.15 112.847 186.124 112.852 186.103 112.852H186.108Z" fill="black"/>
<path d="M195.951 117.526C195.951 117.526 195.899 117.526 195.873 117.516C195.737 117.474 195.658 117.328 195.7 117.187C195.752 117.03 195.81 116.868 195.873 116.701C195.962 116.471 196.051 116.231 196.108 115.991C196.323 115.082 196.522 114.032 196.124 113.16C196.045 112.993 195.956 112.836 195.868 112.685C195.726 112.439 195.574 112.183 195.475 111.87C195.13 110.773 195.135 110.031 195.182 109.028C195.187 108.887 195.313 108.788 195.449 108.778C195.59 108.778 195.705 108.892 195.705 109.034C195.658 110.005 195.653 110.7 195.972 111.713C196.056 111.969 196.181 112.188 196.318 112.418C196.417 112.585 196.516 112.758 196.6 112.94C197.066 113.964 196.851 115.113 196.616 116.111C196.548 116.383 196.454 116.639 196.359 116.884C196.302 117.035 196.244 117.192 196.197 117.338C196.161 117.448 196.061 117.521 195.946 117.521L195.951 117.526Z" fill="black"/>
<path d="M152.873 66.0465C152.842 66.0465 152.811 66.0412 152.779 66.0308C152.643 65.9786 152.575 65.8271 152.627 65.6913C152.716 65.4562 152.837 65.1376 152.978 64.7615C153.679 62.8707 154.851 59.7055 155.684 58.6974C156.966 57.1357 159.273 57.1983 161.314 57.2506C161.869 57.2662 162.387 57.2767 162.868 57.261C170.304 56.9842 177.856 57.0103 185.313 57.3446C187.605 57.449 187.929 57.4595 190.174 57.4595C190.321 57.4595 190.436 57.5744 190.436 57.7207C190.436 57.8669 190.321 57.9818 190.174 57.9818C187.919 57.9818 187.594 57.9714 185.292 57.8669C177.845 57.5326 170.31 57.5013 162.889 57.7833C162.392 57.799 161.864 57.7833 161.304 57.7729C159.388 57.7206 157.212 57.6632 156.092 59.0265C155.312 59.9719 154.114 63.205 153.47 64.9391C153.329 65.3204 153.208 65.639 153.119 65.8741C153.077 65.9786 152.978 66.0412 152.873 66.0412V66.0465Z" fill="black"/>
<path d="M219.076 73.6621C219.029 73.6621 218.982 73.6516 218.94 73.6255C218.877 73.5889 218.835 73.5263 218.819 73.4584C218.809 73.4114 218.772 73.2912 218.631 72.9987C218.537 72.795 218.432 72.5756 218.322 72.3563C218.212 72.1317 218.102 71.9123 218.019 71.7295C217.867 71.39 217.663 71.0975 217.417 70.8572C216.972 70.4185 216.569 70.0476 216.182 69.7185C215.941 69.5096 215.695 69.3059 215.439 69.097C215.371 69.0395 215.334 68.956 215.345 68.8672C215.355 68.7784 215.407 68.7052 215.481 68.6635C215.988 68.3971 216.512 68.1464 217.03 67.8956C217.532 67.6554 218.05 67.4099 218.542 67.1487C218.689 67.0286 219.097 66.8771 220.237 66.4488C220.714 66.2712 221.164 66.1041 221.321 66.031C221.567 65.916 221.813 65.8011 222.064 65.6862C222.901 65.2997 223.765 64.8975 224.555 64.4588C224.869 64.2864 225.183 64.1036 225.502 63.9156C226.821 63.153 228.186 62.3695 229.584 61.9046C229.212 60.7973 228.244 58.8856 227.307 57.0261C226.198 54.8376 225.057 52.5707 224.754 51.3851C224.717 51.244 224.801 51.103 224.942 51.0664C225.083 51.0299 225.225 51.1135 225.261 51.2545C225.554 52.3879 226.685 54.6287 227.778 56.7911C228.846 58.9065 229.856 60.9018 230.17 62.0039C230.206 62.1397 230.133 62.2859 229.992 62.3277C228.563 62.7612 227.14 63.5813 225.769 64.3752C225.45 64.558 225.13 64.746 224.816 64.9184C224.01 65.3676 223.137 65.775 222.289 66.1668L221.546 66.5115C221.373 66.5898 220.933 66.757 220.426 66.945C219.887 67.1435 219.086 67.4464 218.914 67.5405C218.898 67.5614 218.872 67.577 218.851 67.5875C218.333 67.8643 217.788 68.1255 217.26 68.3762C216.862 68.5642 216.47 68.7575 216.077 68.9507C216.229 69.0761 216.376 69.2014 216.522 69.332C216.915 69.6663 217.328 70.0476 217.778 70.4916C218.071 70.7789 218.312 71.1236 218.49 71.5205C218.568 71.6981 218.678 71.9123 218.783 72.1317C218.893 72.3563 219.003 72.5809 219.097 72.7846C219.154 72.8995 219.196 73.0039 219.233 73.0875C220.054 72.842 221.122 72.4242 222.074 72.0481C222.974 71.6929 223.754 71.39 224.209 71.2751C226.334 70.7266 228.673 70.2461 231.169 69.8596C231.609 69.7864 232.054 69.7081 232.493 69.6193C232.634 69.5932 232.77 69.682 232.802 69.823C232.833 69.964 232.739 70.1051 232.598 70.1312C232.153 70.22 231.698 70.3035 231.253 70.3767C228.772 70.7684 226.449 71.2385 224.34 71.7869C223.916 71.8966 223.116 72.21 222.263 72.5443C221.206 72.9569 220.007 73.427 219.128 73.6673C219.107 73.6725 219.081 73.6777 219.06 73.6777L219.076 73.6621Z" fill="black"/>
<path d="M238.092 65.8636C238.092 65.8636 238.061 65.8636 238.045 65.8636C237.904 65.8375 237.81 65.7017 237.831 65.5607C237.846 65.4719 237.852 65.3779 237.857 65.2943C238.061 61.6537 236.606 58.1176 235.23 55.0882C234.911 54.383 234.534 53.3854 234.136 52.3355C233.582 50.8626 233.006 49.3374 232.488 48.345C232.42 48.2144 232.472 48.0577 232.598 47.995C232.729 47.9271 232.886 47.9794 232.948 48.1047C233.482 49.1285 234.063 50.6641 234.623 52.1527C235.015 53.1974 235.392 54.1845 235.706 54.874C237.109 57.9557 238.59 61.5649 238.375 65.3204C238.37 65.4301 238.359 65.545 238.344 65.6547C238.323 65.7801 238.213 65.8689 238.087 65.8689L238.092 65.8636Z" fill="black"/>
<path d="M160.346 118.749C160.346 118.749 160.33 118.749 160.32 118.749C159.603 118.681 158.101 118.665 157.442 118.749C157.374 118.759 157.3 118.738 157.243 118.691C157.185 118.65 157.154 118.582 157.149 118.514C157.06 117.506 157.086 113.839 157.123 112.768C157.175 111.243 157.327 104.771 157.327 104.709C157.327 104.563 157.437 104.453 157.594 104.453C157.74 104.453 157.85 104.578 157.85 104.719C157.85 104.782 157.698 111.254 157.646 112.784C157.609 113.766 157.583 116.947 157.651 118.2C158.342 118.153 159.441 118.159 160.142 118.206C160.43 117.062 160.78 115.328 161.089 113.494C161.288 112.335 161.455 111.431 161.607 110.611C161.932 108.856 162.188 107.472 162.56 104.688C162.581 104.547 162.711 104.448 162.853 104.463C162.994 104.484 163.099 104.615 163.078 104.756C162.706 107.55 162.45 108.94 162.125 110.705C161.974 111.525 161.806 112.424 161.607 113.583C161.445 114.528 161.026 116.9 160.592 118.55C160.561 118.665 160.456 118.744 160.341 118.744L160.346 118.749Z" fill="black"/>
<path d="M218.05 42.542C216.737 42.542 216.428 41.513 216.224 40.458L216.03 38.3478C215.313 38.6298 213.67 39.1208 213.026 38.0918C211.839 36.1958 211.436 33.8767 211.148 31.8553C210.912 30.2048 210.823 28.8467 211.148 27.6141C211.148 27.588 211.164 27.5514 211.174 27.5096L211.19 27.4469C211.284 27.1335 211.394 26.8463 211.54 26.5642C211.744 26.1463 212.016 25.7337 212.372 25.3002C212.383 25.2897 212.393 25.2793 212.404 25.2688C212.409 25.2584 212.414 25.2532 212.425 25.2427C212.917 24.6734 213.518 24.125 214.267 23.5556C215.23 22.8192 218.814 21.5134 221.242 24.0466C222.786 25.6658 224.141 29.2855 223.456 33.4066C223.43 33.5476 223.299 33.6469 223.157 33.6208C223.016 33.5999 222.917 33.4641 222.943 33.3178C223.597 29.3743 222.325 25.9322 220.865 24.407C218.804 22.255 215.585 23.2109 214.586 23.9735C213.874 24.5115 213.304 25.0338 212.838 25.5666C212.817 25.6031 212.791 25.6292 212.76 25.6554C212.44 26.0471 212.194 26.4232 212.011 26.794C211.88 27.0552 211.781 27.3111 211.697 27.5775L211.661 27.729C211.352 28.899 211.441 30.1891 211.671 31.7822C211.948 33.7513 212.341 36.0078 213.476 37.815C213.947 38.5724 215.564 38.0083 216.145 37.7314C216.224 37.6949 216.313 37.6949 216.386 37.7419C216.459 37.7837 216.512 37.862 216.517 37.9456L216.742 40.39C216.956 41.4869 217.208 42.0249 218.05 42.0249C219.918 42.0197 221.111 40.0923 222.032 38.2067C222.137 37.9926 222.236 37.7784 222.336 37.5747C222.54 37.1517 222.723 36.7599 222.896 36.4361C222.964 36.3107 223.121 36.2585 223.252 36.3264C223.377 36.3943 223.43 36.551 223.362 36.6816C223.194 37.0002 223.011 37.3867 222.812 37.7993C222.713 38.003 222.613 38.2172 222.509 38.4366C221.52 40.4684 220.217 42.542 218.061 42.5472L218.05 42.542Z" fill="black"/>
<path d="M205.742 57.7521H200.598C200.452 57.7521 200.336 57.6371 200.336 57.4909C200.336 57.3446 200.452 57.2297 200.598 57.2297H205.737C205.883 57.2297 206.004 57.3446 206.004 57.4909C206.004 57.6371 205.889 57.7521 205.747 57.7521H205.742Z" fill="black"/>
<path d="M180.676 42.5995C180.268 42.5995 179.891 42.2391 179.839 42.1869C179.734 42.0877 179.734 41.9205 179.839 41.8161C179.938 41.7116 180.106 41.7116 180.21 41.8161C180.362 41.9623 180.634 42.1294 180.739 42.0615C180.896 41.9571 181.152 41.4191 181.32 40.949L180.912 39.732C180.865 39.5962 180.938 39.4499 181.079 39.4029C181.215 39.3559 181.367 39.429 181.409 39.5649L181.843 40.8654C181.859 40.9177 181.859 40.9751 181.843 41.0326C181.775 41.2311 181.425 42.2391 181.022 42.5003C180.912 42.5734 180.791 42.5995 180.681 42.5995H180.676Z" fill="black"/>
<path d="M162.868 8.41881C162.779 8.41881 162.69 8.3718 162.643 8.28823C162.24 7.60399 161.853 6.89885 161.492 6.1885C161.424 6.05791 161.476 5.90122 161.607 5.83854C161.738 5.77586 161.895 5.82287 161.958 5.95345C162.319 6.65336 162.701 7.35327 163.093 8.02707C163.167 8.15242 163.125 8.30912 162.999 8.38225C162.957 8.40836 162.91 8.41881 162.868 8.41881Z" fill="black"/>
<path d="M156.552 14.1226C156.521 14.1226 156.489 14.1226 156.463 14.1069C155.642 13.8039 154.783 13.5637 153.92 13.3861C153.779 13.36 153.684 13.2189 153.716 13.0779C153.742 12.9369 153.883 12.8429 154.025 12.8742C154.914 13.0518 155.793 13.3025 156.646 13.6159C156.782 13.6681 156.85 13.8144 156.803 13.9502C156.767 14.0546 156.662 14.1226 156.557 14.1226H156.552Z" fill="black"/>
<path d="M154.176 24.4124C154.072 24.4124 153.978 24.3497 153.936 24.2504C153.878 24.1199 153.946 23.9632 154.077 23.9109L156.746 22.8141C156.882 22.7618 157.034 22.8245 157.086 22.9551C157.143 23.0909 157.075 23.2424 156.945 23.2946L154.276 24.3915C154.244 24.4071 154.208 24.4124 154.176 24.4124Z" fill="black"/>
<path d="M172.277 8.46587C172.235 8.46587 172.199 8.45542 172.157 8.43975C172.026 8.37185 171.979 8.21515 172.042 8.0898C172.382 7.42123 172.696 6.72654 172.968 6.02663C173.02 5.89082 173.172 5.82292 173.308 5.87515C173.444 5.92739 173.512 6.07886 173.46 6.21466C173.183 6.93024 172.863 7.6406 172.513 8.32484C172.466 8.41364 172.377 8.46587 172.277 8.46587Z" fill="black"/>
<path d="M178.442 14.2636C178.332 14.2636 178.232 14.1957 178.196 14.086C178.149 13.9502 178.222 13.7987 178.358 13.7569C179.242 13.4592 180.127 13.151 181.006 12.8429C181.142 12.7958 181.294 12.8637 181.341 12.9996C181.388 13.1354 181.32 13.2868 181.184 13.3338C180.299 13.6472 179.415 13.9554 178.531 14.2531C178.504 14.2636 178.473 14.2688 178.447 14.2688L178.442 14.2636Z" fill="black"/>
<path d="M180.875 24.5062C180.838 24.5062 180.807 24.501 180.77 24.4853C179.917 24.1145 179.059 23.7332 178.217 23.3362C178.086 23.2735 178.028 23.1168 178.091 22.9862C178.154 22.8557 178.311 22.7982 178.442 22.8609C179.274 23.2526 180.127 23.6339 180.98 23.9995C181.111 24.057 181.173 24.2085 181.116 24.3443C181.074 24.4435 180.974 24.501 180.875 24.501V24.5062Z" fill="black"/>
<path d="M165.846 32.383V29.6565C165.846 29.505 165.972 29.3849 166.129 29.3796C166.84 29.3796 168.656 29.364 168.918 29.3535C169.117 29.3535 169.274 29.4998 169.274 29.6878V32.1897C169.274 32.3725 169.127 32.5188 168.939 32.524C168.609 32.5397 168.086 32.5867 167.557 32.571C167.023 32.571 165.841 32.6911 165.841 32.3778L165.846 32.383Z" fill="#E60000"/>
<path d="M166.652 32.8582C166.191 32.8582 165.872 32.8164 165.705 32.6545C165.626 32.5814 165.584 32.4822 165.584 32.3829V29.6564C165.584 29.3639 165.83 29.1236 166.129 29.1184C166.84 29.1184 168.651 29.1027 168.912 29.0923C169.085 29.0923 169.242 29.1497 169.357 29.2647C169.472 29.3743 169.535 29.5258 169.535 29.6877V32.1897C169.535 32.5135 169.279 32.7747 168.949 32.7851C168.865 32.7851 168.771 32.7955 168.667 32.8008C168.347 32.8217 167.95 32.8426 167.547 32.8321C167.463 32.8321 167.348 32.8321 167.222 32.8426C167.013 32.853 166.819 32.8582 166.647 32.8582H166.652ZM166.108 32.2941C166.322 32.3568 166.934 32.3359 167.207 32.3255C167.337 32.3255 167.458 32.315 167.557 32.315C167.95 32.3307 168.332 32.3046 168.64 32.2889C168.75 32.2837 168.844 32.2784 168.933 32.2732C168.98 32.2732 169.017 32.2419 169.017 32.2001V29.6982C169.017 29.6982 169.007 29.6564 168.996 29.6512C168.986 29.6407 168.965 29.6198 168.928 29.6251C168.667 29.6303 166.845 29.6459 166.134 29.6512L166.108 32.3046V32.2941Z" fill="black"/>
<path d="M173.826 17.5021C173.826 17.9669 173.769 18.4161 173.648 18.8497C173.523 19.2832 173.34 19.7011 173.099 20.098C172.863 20.5524 172.591 20.7457 172.298 21.2576C172.288 21.268 172.283 21.2837 172.272 21.2941C171.974 21.6754 171.655 22.0515 171.309 22.4119C170.603 23.1588 170.043 23.8169 169.635 24.3811C169.399 24.7206 169.232 25.0601 169.137 25.3839C169.038 25.7078 169.001 25.8174 169.001 26.2248V26.9927L166.516 26.9195C166.317 26.9561 166.134 26.8098 166.134 26.6166V26.392C166.134 25.9115 166.165 25.4779 166.238 25.1071C166.301 24.5952 166.406 24.3393 166.547 24.1251C166.683 23.9057 166.872 23.6132 167.118 23.2163C167.243 23.0178 167.384 22.9238 167.531 22.7201C167.683 22.4694 167.845 22.3388 168.023 22.1298C168.285 21.9157 168.567 21.4717 168.876 21.1949C169.185 20.8763 169.467 20.5263 169.718 20.1659C169.97 19.8055 170.179 19.419 170.346 19.0116C170.509 18.6042 170.734 18.202 170.734 17.7476C170.734 17.0424 170.535 16.4522 170.106 16.003C169.42 15.2822 168.128 15.0576 166.945 15.0576C165.93 15.0576 165.051 15.1621 164.302 15.3658C163.931 15.4703 163.585 15.5486 163.271 15.7314C163.141 15.7836 163.01 15.8359 162.889 15.8986C162.67 16.0082 162.403 15.8672 162.382 15.6217C162.366 15.3919 162.282 14.8905 162.261 14.6136L162.183 13.5115C162.172 13.3601 162.251 13.2243 162.397 13.172C163.004 12.9422 163.68 12.749 164.412 12.587C165.249 12.4042 166.191 12.3154 167.233 12.3154C168.572 12.3154 169.76 12.5609 170.786 13.0415C171.817 13.522 172.581 14.1749 173.078 14.9949C173.575 15.815 173.821 16.6507 173.821 17.5178L173.826 17.5021Z" fill="#E60000"/>
<path d="M168.996 27.2486H168.991L166.537 27.1754C166.369 27.1963 166.207 27.1493 166.081 27.0449C165.951 26.9352 165.877 26.7785 165.877 26.6113V26.3867C165.877 25.8749 165.914 25.4257 165.987 25.0548C166.045 24.5795 166.149 24.2661 166.333 23.9788L166.903 23.07C166.987 22.9394 167.07 22.8454 167.154 22.7566C167.212 22.6992 167.269 22.6365 167.332 22.5529C167.437 22.3805 167.562 22.2447 167.683 22.1142C167.73 22.0619 167.782 22.0097 167.834 21.947C167.981 21.8217 168.112 21.665 168.248 21.4978C168.394 21.3202 168.546 21.1374 168.708 20.9859C168.986 20.6987 169.258 20.3644 169.514 19.9988C169.75 19.6592 169.949 19.2988 170.111 18.8967C170.147 18.8079 170.184 18.7191 170.226 18.6303C170.357 18.3273 170.482 18.04 170.482 17.7371C170.482 17.0894 170.294 16.5619 169.928 16.1701C169.211 15.418 167.756 15.3031 166.955 15.3031C165.966 15.3031 165.103 15.4023 164.386 15.606L164.234 15.6478C163.925 15.7314 163.659 15.8045 163.418 15.9455C163.256 16.0134 163.135 16.0604 163.02 16.1179C162.832 16.2067 162.617 16.2015 162.439 16.1022C162.267 16.003 162.151 15.8306 162.136 15.6321C162.125 15.5225 162.104 15.3501 162.083 15.1725C162.057 14.974 162.031 14.7651 162.021 14.6188L161.942 13.5167C161.921 13.2451 162.073 13.0101 162.324 12.9109C162.947 12.6758 163.638 12.4773 164.381 12.3154C165.223 12.1326 166.191 12.0386 167.259 12.0386C168.63 12.0386 169.865 12.2893 170.927 12.7855C172 13.2869 172.806 13.9764 173.329 14.8382C173.847 15.6948 174.114 16.588 174.114 17.4968C174.114 17.9878 174.051 18.4631 173.926 18.9123C173.795 19.3667 173.601 19.8107 173.345 20.2286C173.219 20.4688 173.078 20.6464 172.942 20.824C172.816 20.9859 172.685 21.1479 172.549 21.3829C172.539 21.4038 172.518 21.4247 172.502 21.4456C172.194 21.853 171.864 22.2343 171.524 22.5895C170.838 23.3103 170.284 23.9632 169.87 24.5273C169.65 24.8407 169.499 25.1541 169.415 25.4466C169.315 25.7809 169.289 25.8644 169.289 26.2144V26.9822C169.284 27.0501 169.253 27.118 169.206 27.1702C169.158 27.2172 169.09 27.2434 169.022 27.2434L168.996 27.2486ZM166.516 26.6531H166.521L168.735 26.7158V26.2144C168.735 25.7913 168.782 25.6503 168.871 25.3421C168.981 24.9556 169.158 24.59 169.415 24.2243C169.844 23.6341 170.414 22.9655 171.116 22.2291C171.445 21.8843 171.759 21.5135 172.063 21.1322C172.063 21.1322 172.068 21.1217 172.073 21.1165C172.225 20.8554 172.371 20.6673 172.502 20.5002C172.638 20.333 172.753 20.1816 172.863 19.9726C173.104 19.5809 173.277 19.1839 173.397 18.7765C173.507 18.3743 173.565 17.946 173.565 17.5021C173.565 16.6925 173.329 15.8881 172.858 15.115C172.387 14.342 171.655 13.7204 170.681 13.266C169.692 12.8012 168.53 12.5661 167.238 12.5661C166.212 12.5661 165.281 12.6549 164.475 12.8273C163.758 12.984 163.093 13.1772 162.497 13.4018C162.465 13.4123 162.445 13.4436 162.45 13.4802L162.528 14.5823C162.539 14.7233 162.565 14.9166 162.591 15.1046C162.617 15.2926 162.638 15.4754 162.649 15.5904C162.649 15.6217 162.67 15.6374 162.69 15.6478C162.706 15.653 162.738 15.6687 162.779 15.6478C162.905 15.5851 163.041 15.5329 163.172 15.4754C163.444 15.3135 163.758 15.2247 164.088 15.1359L164.239 15.0942C165.003 14.88 165.919 14.7755 166.95 14.7755C167.981 14.7755 169.488 14.9531 170.299 15.8045C170.765 16.2955 171 16.9432 171 17.7267C171 18.1393 170.849 18.4892 170.702 18.8288C170.666 18.9123 170.629 19.0011 170.592 19.0847C170.409 19.5287 170.2 19.9204 169.938 20.2913C169.666 20.6778 169.378 21.0329 169.069 21.3516C168.918 21.4874 168.782 21.6545 168.646 21.8217C168.489 22.0097 168.342 22.1873 168.19 22.3126C168.164 22.3492 168.112 22.4067 168.054 22.4641C167.944 22.5842 167.845 22.6887 167.756 22.835C167.667 22.9551 167.599 23.0282 167.531 23.1013C167.463 23.1745 167.4 23.2424 167.337 23.3364L166.767 24.2452C166.647 24.4333 166.558 24.6474 166.495 25.1227C166.427 25.4779 166.395 25.8958 166.395 26.3711V26.5957C166.422 26.6375 166.437 26.6531 166.469 26.6427C166.484 26.6427 166.5 26.6427 166.516 26.6427V26.6531Z" fill="black"/>
</svg>
