<?xml version="1.0" encoding="UTF-8"?><svg id="Layer_1" xmlns="http://www.w3.org/2000/svg" xmlns:xlink="http://www.w3.org/1999/xlink" viewBox="0 0 279 224"><defs><clipPath id="clippath"><path d="m238.91,150.58c-.55.24-1.14.54-1.75.88-4.01,2.16-9.19,6.02-13.36,8.43-.95.54-1.84,1.01-2.66,1.36-5.7-7.49-8.63-19.09-15-26.03-.33-.36-.67-.72-1-1.09-1.98-2.14-3.98-4.28-5.62-6.69-2.62-3.84-4.29-8.25-6.33-12.42-.92-1.88-1.98-3.79-3.68-5.01-1.29-.92-2.85-1.37-4.39-1.75-4.36-1.04-10.67-1.09-16.53-1.02v-.05c.11-.03.36-.13.72-.28,4.25-1.74,24.23-10.58,33.27-12.05,1.33-.22,2.77-.39,3.99.21,1.13.56,1.85,1.68,2.51,2.76,4.74,7.69,9.49,15.37,14.23,23.05,1.84,2.98,3.68,5.95,5.26,9.08,3.46,6.88,5.66,14.49,10.34,20.61Z" fill="none"/></clipPath><clipPath id="clippath-1"><path d="m168.57,107.25c5.86-.06,12.17-.02,16.53,1.02,1.54.37,3.1.83,4.39,1.75,1.69,1.22,2.76,3.13,3.68,5.01,2.05,4.17,3.71,8.58,6.33,12.42,1.64,2.41,3.64,4.55,5.62,6.69l-.48.44c.04,2.71,3.34,39.66,3.31,46.45-.34-.02-.7-.03-1.09-.04-5.38-.19-14.05-.09-19.7,0-.62.02-1.2.03-1.74.04.33-8.47,1.58-16.94,1.11-25.37-.5-8.7.03-18.1-1.73-26.66-6.96,1.93-13.41,2.99-21.45,3.96-11.9,1.43-29.67,4.98-35.98-8.41-2.42-5.12-1.79-17.09-2.23-22.39v-.07s37-6.2,37-6.2l.03.22c2.34,3.48,4.68,6.96,7.03,10.45l.07.37c-.36.14-.61.25-.72.28v.05Z" fill="none"/></clipPath></defs><path d="m270.07,151.77c5.33,1.16-7.69,13.91-9.56,15.26-1.25.91-15.91,12.07-16.8,11.21-2.08-1.99-4.09-2.73-6.12-5.31,1.18,3.2.92,4.78,1.62,8.25-2.73,1.04-5.44,1.97-8.13,3.11-1.58-8.3-5.49-15.84-7.16-24.17l-.12-.23c4.17-2.41,9.35-6.27,13.36-8.43l.16.29c7.07,2.75,14.54,4.35,22.14,2.75,2.36-.5,4.84-1.27,7.17-1.94,1.1-.32,2.25-1.04,3.44-.79Z" fill="#fff"/><g clip-path="url(#clippath)" fill="none"><rect x="177.35" y="93.67" width="90.05" height="98.23" fill="none"/><rect x="177.35" y="93.67" width="90.05" height="98.23" rx="10.33" ry="10.33" fill="#d1d1d1"/><rect x="87.3" y="93.67" width="90.05" height="98.23" fill="none"/><rect x="87.3" y="93.67" width="90.05" height="98.23" rx="10.33" ry="10.33" fill="#d1d1d1"/></g><path d="m227.47,202.69c1.8,1.2,2.42,2.71,3.19,4.65-6.89.74-26.57-2.16-29.62-2.43-2.37-.22-4.63-1-7.04-1.1-.23-2.41.11-5.48-.57-7.82-1.66,2.7-2.96,4.54-4.79,6.92-.96-.58-6.81-2.2-8.44-3.16,3.04-5.82,5-12.27,6.99-18.51v-.26c5.64-.09,14.31-.19,19.7,0l-.02.78c1.04,4.94,3.74,9.82,7.68,13.03,3.93,3.21,8.72,5.09,12.93,7.89Z" fill="#fff"/><path d="m210.71,5.5c3.96,7.34,5.22,16.09,2.09,23.97-.22.53-.47,1.07-.91,1.43-.41.33-.94.43-1.49.45h-.02c-3.36-.43-5.15-7.35-5.59-9.82-.89-5.09-2.66-15.76,4.19-17.43v-.06c.14,0,.27.02.39.05.64.2,1.03.82,1.34,1.41Z" fill="#d1d1d1"/><path d="m210.38,31.35c-.3.01-.62,0-.92-.02-7.12-.44-14.24-.89-21.36-1.34-1.89-.11-3.78-.23-5.67-.35.96-4.2,2.26-8.36,3.09-12.65.14-.72.23-1.57.09-2.3.04-.02.09-.03.14-.03.31,0,.59.2.88.28.59.19,1.24-.09,1.68-.53.43-.43.69-1.01.95-1.57.73.5,1.63,1.01,2.45.67.68-.28,1.01-1.04,1.26-1.74.48-1.35.92-2.72,1.3-4.11,4.56-1.29,9.13-2.48,13.74-3.5.32-.06.64-.13.96-.11v.06c-6.85,1.67-5.08,12.34-4.2,17.43.44,2.47,2.23,9.38,5.59,9.82Z" fill="#fff"/><g clip-path="url(#clippath-1)" fill="none"><rect x="177.35" y="93.67" width="90.05" height="98.23" fill="none"/><rect x="177.35" y="93.67" width="90.05" height="98.23" rx="10.33" ry="10.33" fill="#d1d1d1"/><rect x="87.3" y="93.67" width="90.05" height="98.23" fill="none"/><rect x="87.3" y="93.67" width="90.05" height="98.23" rx="10.33" ry="10.33" fill="#d1d1d1"/></g><path d="m194.4,5.8c.24.54.08,1.16-.07,1.73-.01.04-.02.09-.04.13-3.76,1.06-7.51,2.21-11.25,3.39,1.06-4.31,3.44-6.94,9.19-6.39.86.07,1.84.34,2.18,1.14Z" fill="#fff"/><path d="m194.28,7.66c-.38,1.4-.83,2.76-1.3,4.11-.25.69-.58,1.46-1.26,1.74-.82.34-1.72-.18-2.45-.67-.26.56-.52,1.14-.95,1.57-.44.43-1.1.71-1.68.53-.29-.08-.57-.28-.88-.28-.05,0-.1.01-.14.03-.12-.7-.44-1.3-1.11-1.57-.72.45-1.34,1.07-1.82,1.79-.05-.06-.08-.13-.11-.21-.11-.3-.08-.63-.04-.94.12-.96.28-1.87.5-2.71,3.74-1.18,7.49-2.33,11.25-3.39Z" fill="#fff"/><path d="m188.09,30.21c.13,12.95-.12,23.09-1.36,35.96-.3,3.12-3.11,5.4-6.23,5.06-1.75-.19-2.07.04-5.34-1.25,3.65-12.94,6.68-25.7,7.05-39.29.06-.35.14-.7.23-1.05,1.89.12,3.78.24,5.67.35v.22Z" fill="#fff"/><path d="m185.61,14.68c.13.73.05,1.58-.09,2.3-.83,4.29-2.13,8.45-3.09,12.65-1.67-.1-3.35-.21-5.03-.32-2.47-4.72-3-10.42-1.42-15.51l-.14-.43c1.19-.38,2.39-.78,3.58-1.17-.11.16-.21.32-.25.51-.24,1.05-1.01,7.47,1.63,6.3.73-.32.85-1.27,1.01-2.05.16-.74.47-1.45.88-2.07.43.63,1.55.59,2.25.13.22-.13.43-.3.67-.35Z" fill="#fff"/><path d="m185.61,14.68c-.24.05-.45.22-.67.35-.7.45-1.82.5-2.25-.13.48-.71,1.1-1.33,1.82-1.79.66.27.98.87,1.11,1.57Z" fill="#fff"/><path d="m179.41,12.2c1.21-.39,2.41-.78,3.62-1.16-.22.84-.37,1.75-.5,2.71-.04.31-.07.64.04.94.03.07.06.14.11.21-.41.62-.72,1.32-.88,2.07-.17.78-.28,1.73-1.01,2.05-2.65,1.17-1.87-5.25-1.63-6.3.04-.19.13-.35.25-.51Z" fill="#fff"/><path d="m177.4,29.32c1.68.11,3.36.22,5.03.32-.08.35-.17.7-.23,1.05-.08.33-.16.67-.22,1l-8.04-1.41h-.08c-.07-.41-.13-.81-.22-1.21,1.25.08,2.5.17,3.75.24Z" fill="#fff"/><path d="m182.2,30.69c-.37,13.59-3.4,26.35-7.05,39.29-.29,1.04-.6,2.1-.9,3.15-.24.8-.47,1.6-.95,2.28-.87,1.23-2.4,1.82-3.9,1.96-2.65.27-5.69-.05-8.75-.64-3.64-.68-7.3-1.74-10.31-2.62l-.09-.03c1.57-4.42,2.68-9.1,4.4-13.36-.06-.03-.11-.06-.18-.08,2.49.65,7.38,2.12,7.44,1.99,1.37-2.86,2.75-5.92,4.08-9.08,3.2-7.62,6.12-15.83,7.95-23.26l8.04,1.41c.06-.33.13-.67.22-1Z" fill="#fff"/><path d="m180.37,9.28c1.25,1.45-.29,2.04-.95,2.92-1.19.39-2.39.79-3.58,1.17-.4.13-.82.27-1.22.4l-.12-.38c.73-2.25,2.82-4.01,5.17-4.36l.16-.25c.2.13.37.3.55.5Z" fill="#fff"/><path d="m179.82,8.78l-.16.25c-2.35.35-4.43,2.11-5.17,4.36l.12.38c-1.42.48-2.83.95-4.25,1.42.02-1.49.49-2.92,1.78-4.26,1.6-1.65,5.38-3.77,7.67-2.15Z" fill="#fff"/><path d="m177.4,29.32c-1.25-.07-2.5-.16-3.75-.24-.44-2.43-1.03-4.83-1.74-7.19-.66-2.22-1.58-4.51-1.54-6.7,1.42-.47,2.83-.94,4.25-1.42.4-.13.82-.27,1.22-.4l.14.43c-1.58,5.09-1.05,10.79,1.42,15.51Z" fill="#fff"/><path d="m173.65,29.08c-6.88-.42-13.77-.86-20.66-1.29-.81-.04-1.64-.1-2.37-.47-.52-.25-.91-.66-1.17-1.16-.07-.12-.12-.26-.19-.4-.5-1.38-.1-3.18,1.22-3.91l.18-.14c6.56-2.09,13.12-4.32,19.71-6.52-.04,2.19.88,4.47,1.54,6.7.7,2.37,1.29,4.76,1.74,7.19Z" fill="#fff"/><path d="m154.48,60.64c.06.02.11.05.18.08-1.73,4.26-2.83,8.94-4.4,13.36l.09.03c3.02.89,6.68,1.94,10.31,2.62l-.03.19,1.75,18.93-.21.03-37.02,6.2h-.07c-3.43-11.18-4.15-20.98-4.08-31.79.02-3.93.16-8,.3-12.33.17-5,1.55-7.3,5.59-9.89,1.35-.87,2.85-1.55,3.97-2.73.37-.38,2.65-4.55,2.31-4.55.3,0,.6,0,.91.02,1.24.05,2.5.22,3.75.33,2.53.23,5.07.45,7.53,1.07.5.11.98.26,1.47.41.41,1.27.76,2.55,1.01,3.53l.1.08c5.25,2.3,12.52,4.88,17.78,7.17l.27.11c-1.33,3.16-2.71,6.22-4.08,9.08-.06.12-4.95-1.34-7.44-1.99Z" fill="#fff"/><path d="m165.28,189.25c.24,2.31.17,30.68.17,30.68h-31.88c-5.47-.05-10.92-.14-16.38-.2v-50.44h-.04v-34.61h48.3c0,14.6-.58,29.03-.61,43.6-.01,3.72.08,7.32.44,10.96Z" fill="#e80000"/><path d="m152.02,34.09c.03,3.24-3.61,4.71-6.29,4.81-.01,1.12-.34,2.14-.34,3.27l-.02.07c-2.46-.62-5-.85-7.53-1.07-1.25-.11-2.51-.28-3.75-.33v-.28c.04-.6,1.45-7.16,1.35-7.16-1.88-.13-4.27-3.13-3.2-4.97,1.22-2.08,3.85-1.18,4.92.51.09-2.27-.12-4.67.88-6.78.9-1.91,2.49-3.6,4.4-4.51l.3-.49c2.92,1.89,5.01,5.18,6.54,8.61.06.14.11.28.19.4.95,2.18,1.67,4.39,2.25,6.33.16.52.31,1.04.31,1.59Z" fill="#fff"/><path d="m142.73,17.15l-.3.49c-1.91.91-3.5,2.59-4.4,4.51-1,2.11-.79,4.51-.88,6.78-1.06-1.68-3.7-2.58-4.92-.51-1.06,1.84,1.32,4.84,3.2,4.97.09,0-1.31,6.56-1.34,7.16v.28c-.32-.02-.62-.02-.92-.02.33,0-1.94,4.16-2.31,4.55-1.12,1.18-2.61,1.86-3.97,2.73-4.04,2.59-5.43,4.89-5.59,9.89-.14,4.33-.28,8.4-.3,12.33h-.32c-10.82-.29-13.97-11.19-9.83-20.38,1.75-3.86,4.74-7.04,8.03-9.71,2.51-2.03,5.18-4.31,4.94-7.88-.2-2.89-1.27-5.16-.09-8.15,1.75-4.4,8.77-8.7,13.37-8.7,2.16,0,4.02.63,5.63,1.68Z"/><path d="m133.56,219.93h-16.38v-.2c5.46.05,10.91.14,16.38.2Z" fill="#e80000"/><path d="m117.14,194.27v25.46c-6.83-.06-13.64-.05-20.43.2h-5.05c-2.26-.14-4.53-.43-6.78-.44-5.32-.01-10.65.06-16,.17v-50.36c0-.34,20.96.39,22.5.4,8.62.02,17.12-.4,25.76-.4v24.98Z" fill="#fff"/><path d="m68.89,169.3v50.36c-5.72.09-11.46.22-17.2.28h-31.1s-1.18-69.04,0-69.06c3.66-.06,48.3-1.01,48.3,0v18.42Z" fill="#fff"/><path d="m68.89,220.43H20.59c-.27,0-.5-.22-.5-.49,0-.17-.3-17.46-.44-34.53-.3-35.02.19-35.03.93-35.04l1.67-.03c45.92-.88,46.63-.19,46.97.14.1.09.17.26.17.39v18.42c0,.28-.22.5-.5.5s-.5-.22-.5-.5v-18.09c-1.53-.28-9.96-.56-46.12.14l-1.34.03c-.67,3.75-.29,42.16.15,68.07h47.81c.28,0,.5.22.5.5s-.22.5-.5.5Zm-48.29-69.06h0,0Z"/><path d="m117.19,220.43h-48.3c-.28,0-.5-.22-.5-.5v-50.63c0-.13.06-.27.16-.37.27-.26.41-.39,18.87.16,2.08.06,3.6.11,3.97.11,4.4.01,8.85-.1,13.15-.2,4.12-.1,8.38-.2,12.61-.2.28,0,.54.22.54.5v50.63c0,.28-.22.5-.5.5Zm-47.8-1h47.3v-49.63c-4.09,0-8.17.11-12.12.2-4.31.1-8.78.2-13.18.2-.38,0-1.9-.05-4-.11-5.28-.16-15.86-.47-18-.36v49.71Z"/><path d="m165.44,220.43h-48.26c-.28,0-.54-.22-.54-.5v-85.24c0-.28.22-.5.5-.5h48.3c.28,0,.5.22.5.5,0,7.5-.16,15.08-.31,22.41-.14,6.93-.29,14.1-.3,21.18-.01,4.34.12,7.71.44,10.91.24,2.31.17,29.57.17,30.73,0,.28-.22.5-.5.5Zm-47.8-1h47.3c0-3.8.05-28.04-.16-30.13-.32-3.24-.46-6.64-.45-11.02.01-7.09.16-14.27.3-21.2.15-7.16.3-14.56.31-21.89h-47.3v84.24Z"/><path d="m11.07,137.38c-.18,0-.35-.09-.44-.26-.13-.24-.04-.55.2-.68,3.31-1.78,6.7-3.54,9.99-5.25,5.51-2.86,11.22-5.82,16.65-8.95,4.83-2.79,8.85-4.94,12.63-6.75,6.47-3.07,12.46-6.04,18.31-9.08,4.64-2.42,9.22-5.17,13.65-7.83,3.94-2.37,8.02-4.81,12.14-7.03.36-.19.95-.51,8.35,4.87,2.84,2.04,6.04,3.91,9.14,5.72.89.52,1.77,1.03,2.63,1.54,2.55,1.52,5.12,3.12,7.59,4.67,1.18.74,2.36,1.48,3.54,2.21.24.14.31.45.16.69-.14.24-.45.31-.69.16-1.19-.73-2.37-1.47-3.55-2.21-2.47-1.55-5.03-3.15-7.57-4.66-.86-.51-1.74-1.02-2.63-1.54-3.12-1.82-6.34-3.7-9.19-5.75-4.35-3.16-6.82-4.65-7.41-4.78-4.07,2.2-8.11,4.62-12.01,6.96-4.44,2.67-9.03,5.42-13.7,7.86-5.86,3.04-11.86,6.02-18.34,9.09-3.76,1.8-7.75,3.93-12.56,6.71-5.45,3.15-11.17,6.11-16.69,8.98-3.28,1.7-6.67,3.46-9.97,5.24-.08.04-.16.06-.24.06Z"/><path d="m192.11,98.27c-.15,0-.29-.07-.39-.19-.17-.22-.13-.53.08-.7,3.79-2.97,7.61-6.03,11.3-8.99,5.33-4.27,10.83-8.68,16.34-12.9,1.3-1,2.57-2.06,3.79-3.08,1.65-1.38,3.35-2.81,5.17-4.1,9.17-6.49,18.18-13.71,26.9-20.69,3.55-2.85,7.11-5.69,10.67-8.49.22-.17.53-.13.7.08.17.22.13.53-.08.7-3.57,2.8-7.11,5.64-10.67,8.49-8.73,6.99-17.75,14.21-26.95,20.72-1.79,1.27-3.48,2.68-5.11,4.05-1.23,1.03-2.5,2.1-3.82,3.11-5.49,4.21-11,8.62-16.32,12.89-3.7,2.96-7.52,6.02-11.31,9-.09.07-.2.11-.31.11Z"/><path d="m250.19,40.38c-.26,0-.48-.21-.5-.47-.02-.28.2-.51.47-.53l16.25-.91c.32-.02.51.2.53.47.02.28-.2.51-.47.53l-16.25.91s-.02,0-.03,0Z"/><path d="m262.91,55.38s-.08,0-.12-.01c-.27-.07-.43-.34-.36-.61l3.99-15.91c.07-.27.34-.43.61-.36.27.07.43.34.36.61l-3.99,15.91c-.06.23-.26.38-.49.38Z"/><path d="m185.45,181.54c-.13,0-.26-.05-.36-.15-.1-.1-.15-.23-.14-.37.12-2.96.35-5.96.57-8.86.42-5.41.84-11,.54-16.46-.16-2.71-.21-5.55-.27-8.29-.12-5.94-.24-12.07-1.35-17.78-7.06,1.92-13.52,2.93-21.01,3.83-.97.12-1.98.25-3.01.38-11.62,1.5-27.53,3.56-33.48-9.08-1.8-3.8-1.95-11.11-2.07-16.98-.05-2.22-.09-4.14-.21-5.59-.02-.28.18-.52.46-.54.26-.02.52.18.54.46.12,1.48.16,3.41.21,5.65.12,5.78.27,12.96,1.97,16.57,5.65,11.97,20.51,10.05,32.45,8.51,1.04-.13,2.05-.26,3.02-.38,7.62-.92,14.17-1.94,21.38-3.94.13-.04.28-.02.39.05.12.07.2.19.23.33,1.22,5.94,1.35,12.32,1.47,18.48.05,2.73.11,5.56.26,8.25.31,5.53-.12,11.16-.54,16.59-.21,2.72-.42,5.53-.54,8.29.38,0,.78-.02,1.2-.03,6.1-.1,14.46-.18,19.73,0,.2,0,.39.01.56.02-.07-5.04-1.37-21.08-2.32-32.9-.54-6.73-.97-12.04-.99-13.02,0-.28.22-.5.49-.51.3,0,.5.22.51.49.01.95.44,6.25.98,12.95.99,12.29,2.35,29.11,2.33,33.51,0,.14-.06.27-.16.36s-.23.15-.37.13c-.33-.02-.67-.03-1.03-.04-5.29-.18-13.63-.1-19.71,0-.56.02-1.1.03-1.6.04h-.14s0,0,0,0Z"/><path d="m221.14,161.76c-.15,0-.3-.07-.4-.2-2.63-3.45-4.7-7.82-6.7-12.04-2.38-5.03-4.85-10.22-8.27-13.95l-1.09-1.18c-1.94-2.09-3.94-4.25-5.58-6.65-1.9-2.78-3.32-5.88-4.69-8.88-.55-1.21-1.1-2.41-1.68-3.6-.84-1.71-1.87-3.64-3.52-4.83-1.27-.91-2.84-1.33-4.22-1.67-4.37-1.05-10.76-1.07-16.41-1.01l-2.03.03c-2.71.04-5.27.07-7.41.01-.28,0-.49-.24-.49-.51,0-.27.23-.49.5-.49h.01c2.12.06,4.67.02,7.37-.01l1.81-.02s.06-.03.1-.04c.08-.02.24-.09.47-.18l.2-.08c.59-.24,1.49-.62,2.63-1.11,6.86-2.9,22.92-9.7,30.75-10.97,1.44-.24,2.95-.41,4.29.25,1.3.64,2.08,1.92,2.72,2.95l14.23,23.05c1.82,2.94,3.69,5.97,5.28,9.12,1.17,2.32,2.2,4.75,3.21,7.1,1.97,4.62,4.01,9.4,7.09,13.42.09.12.12.28.09.43-.04.15-.14.27-.29.33-.5.22-1.08.5-1.7.86-2.15,1.16-4.69,2.84-7.14,4.47-2.1,1.4-4.28,2.84-6.21,3.96-1.17.66-1.98,1.08-2.71,1.39-.06.03-.13.04-.2.04Zm-49.47-55.02c4.84,0,9.87.17,13.55,1.05,1.47.35,3.15.82,4.57,1.83,1.84,1.33,2.95,3.38,3.84,5.2.59,1.2,1.14,2.41,1.7,3.62,1.35,2.96,2.75,6.02,4.6,8.73,1.6,2.34,3.58,4.47,5.49,6.53l1.09,1.18c3.52,3.84,6.02,9.11,8.44,14.2,1.92,4.05,3.9,8.23,6.36,11.55.61-.28,1.3-.65,2.25-1.18,1.9-1.1,4.06-2.53,6.15-3.92,2.47-1.64,5.03-3.34,7.22-4.52.43-.24.83-.45,1.21-.63-2.94-4.01-4.92-8.65-6.84-13.14-1-2.34-2.03-4.75-3.18-7.05-1.57-3.11-3.43-6.12-5.23-9.04l-14.24-23.06c-.69-1.13-1.35-2.1-2.31-2.57-1.08-.53-2.41-.37-3.69-.16-7.72,1.25-23.7,8.02-30.52,10.91-.39.17-.76.32-1.09.46.21,0,.42,0,.63,0Z"/><path d="m145.39,42.66c-.28,0-.5-.22-.5-.5,0-.61.09-1.19.18-1.74.08-.52.16-1.02.16-1.53,0-.27.21-.49.48-.5,2.26-.08,5.84-1.31,5.81-4.3,0-.49-.15-1-.29-1.45-.47-1.57-1.21-3.94-2.23-6.28-.11-.25,0-.55.26-.66.25-.11.55,0,.66.26,1.04,2.39,1.8,4.79,2.27,6.39.15.51.33,1.1.33,1.73.03,3.51-3.6,5.04-6.31,5.28-.03.42-.09.82-.16,1.21-.08.54-.17,1.05-.17,1.59,0,.28-.22.5-.5.5Z"/><path d="m120.68,70.8h-.01c-5.62-.15-8.56-2.98-10.03-5.34-2.63-4.2-2.72-10.23-.24-15.75,1.56-3.45,4.23-6.69,8.17-9.9,2.73-2.2,4.97-4.28,4.76-7.46-.06-.82-.19-1.61-.31-2.36-.32-1.93-.63-3.76.25-6,1.74-4.38,8.85-9.02,13.84-9.02,2.13,0,4.11.59,5.91,1.77,2.6,1.68,4.87,4.65,6.72,8.82.11.25,0,.55-.25.66-.25.11-.55,0-.66-.25-1.78-3.99-3.92-6.81-6.36-8.39-1.63-1.07-3.43-1.6-5.36-1.6-4.18,0-11.19,4.07-12.91,8.39-.78,1.99-.51,3.6-.2,5.47.13.78.27,1.59.33,2.46.26,3.96-2.85,6.47-5.12,8.31-3.81,3.1-6.39,6.22-7.89,9.53-2.35,5.21-2.29,10.89.17,14.8,1.93,3.08,5.11,4.76,9.21,4.87.28,0,.49.24.49.51,0,.27-.23.49-.5.49Z"/><path d="m227.86,207.97c-6.38,0-16.93-1.33-23.02-2.09-1.79-.23-3.21-.4-3.84-.46-1.09-.1-2.17-.32-3.21-.53-1.24-.25-2.52-.51-3.81-.56-.25,0-.46-.2-.48-.45-.08-.88-.09-1.82-.1-2.82-.01-1.27-.02-2.56-.2-3.74-1.32,2.08-2.49,3.73-4.17,5.92-.16.2-.44.25-.65.12-.38-.23-1.83-.71-3.24-1.18-1.99-.66-4.24-1.41-5.2-1.98-.23-.13-.31-.43-.19-.66,2.82-5.41,4.73-11.42,6.57-17.23l.38-1.2c.08-.26.37-.41.63-.33.26.08.41.37.33.63l-.38,1.2c-1.81,5.69-3.67,11.58-6.41,16.94,1.05.5,2.99,1.14,4.59,1.67,1.43.48,2.44.82,3.03,1.07,1.79-2.34,3-4.1,4.52-6.56.1-.17.3-.26.49-.23.2.03.36.17.41.36.46,1.57.47,3.41.49,5.18,0,.81.01,1.58.06,2.31,1.21.09,2.38.33,3.52.56,1.01.21,2.06.42,3.1.51.65.06,2,.23,3.88.46,6.32.79,19.2,2.41,24.97,2.02-.63-1.55-1.26-2.8-2.75-3.79-1.69-1.13-3.53-2.13-5.29-3.09-2.61-1.42-5.31-2.9-7.67-4.83-3.87-3.16-6.73-8.01-7.85-13.31-.06-.27.12-.54.39-.59.27-.05.54.12.59.39,1.07,5.08,3.81,9.73,7.5,12.75,2.29,1.88,4.95,3.33,7.52,4.73,1.79.98,3.64,1.99,5.37,3.14,1.95,1.3,2.61,2.96,3.38,4.88.06.15.04.31-.04.44-.08.13-.22.22-.38.24-.8.09-1.77.12-2.85.12Z"/><path d="m231.08,184.79c-.08,0-.16-.02-.24-.06-.13-.07-.23-.2-.25-.35-.8-4.18-2.22-8.26-3.59-12.2-1.35-3.85-2.74-7.84-3.57-11.97-.05-.27.12-.53.39-.59.26-.06.53.12.59.39.82,4.06,2.2,8.01,3.53,11.83,1.32,3.79,2.69,7.7,3.51,11.74,1.62-.67,3.25-1.27,4.84-1.86.78-.29,1.56-.58,2.35-.88-.21-1.11-.33-2.04-.43-2.87-.2-1.57-.37-2.92-1.09-4.89-.08-.23.01-.49.23-.61.21-.12.48-.06.64.13,1.18,1.5,2.34,2.34,3.56,3.24.78.57,1.58,1.15,2.4,1.92.72-.14,3.72-1.78,15.35-10.47.46-.34.78-.58.92-.68,1.82-1.32,11.21-10.75,10.6-13.67-.05-.25-.2-.56-.85-.7-.72-.15-1.45.13-2.23.44-.33.13-.65.25-.96.34l-1.44.42c-1.9.56-3.87,1.13-5.77,1.53-6.77,1.43-13.9.54-22.43-2.77-.26-.1-.38-.39-.28-.65.1-.26.39-.39.65-.28,8.34,3.24,15.29,4.11,21.86,2.73,1.86-.39,3.81-.96,5.69-1.51l1.44-.42c.29-.08.58-.2.88-.31.84-.33,1.8-.7,2.81-.48,1.14.25,1.51.94,1.62,1.47.8,3.81-9.69,13.74-10.99,14.69-.14.1-.46.34-.91.68-15.43,11.54-16.05,10.96-16.54,10.49-.8-.77-1.61-1.36-2.4-1.93-.74-.54-1.49-1.09-2.25-1.79.25,1.05.37,1.98.49,2.99.12.96.24,1.95.5,3.21.05.24-.08.48-.31.57-.92.35-1.84.69-2.75,1.03-1.76.65-3.58,1.33-5.36,2.08-.06.03-.13.04-.19.04Zm12.97-6.91s0,0,0,0t0,0Z"/><path d="m147.38,81.08c-.06,0-.12-.01-.18-.04-6.6-2.59-13.45-7.01-20.95-13.51-.21-.18-.23-.5-.05-.71.18-.21.5-.23.71-.05,7.25,6.29,13.88,10.6,20.25,13.18.95-1.7,1.79-3.63,2.62-6.04.66-1.85,1.24-3.78,1.81-5.64.74-2.43,1.5-4.94,2.43-7.31-2.2-1.07-4.33-2.2-6.4-3.29-3.39-1.78-6.89-3.63-10.45-5.16-.25-.11-.37-.4-.26-.66.11-.25.4-.37.66-.26,3.59,1.55,7.11,3.4,10.52,5.2,2.16,1.14,4.39,2.31,6.62,3.4h0s.07.03.14.06c.23.12.38.42.28.66-.99,2.45-1.79,5.09-2.57,7.66-.57,1.88-1.16,3.82-1.82,5.69-.92,2.65-1.84,4.74-2.91,6.58-.09.16-.26.25-.43.25Z"/><path d="m125.14,102.59c-.23,0-.48-.13-.54-.34-3.71-12.11-4.17-22.51-4.1-31.95.02-4.01.16-8.25.3-12.34.17-5.07,1.58-7.57,5.82-10.29.38-.24.76-.47,1.15-.69,1.01-.59,1.97-1.15,2.73-1.96.34-.37,1.96-3.37,2.19-4.09,0-.04-.01-.07-.01-.11,0-.28.22-.5.5-.5.31,0,.62,0,.94.02.86.04,1.75.13,2.61.22.38.04.77.08,1.15.12,2.54.23,5.12.46,7.61,1.09.5.11,1,.26,1.5.42.15.05.27.17.32.32.45,1.38.8,2.7,1.02,3.57.07.27-.09.54-.36.61-.27.07-.54-.09-.61-.36-.2-.8-.52-1.99-.92-3.26-.39-.12-.78-.23-1.18-.33-2.42-.61-4.97-.84-7.43-1.06-.43-.04-.81-.08-1.2-.12-.84-.09-1.72-.18-2.56-.21-.17-.01-.33-.02-.48-.02-.47,1.44-2.33,4.37-2.36,4.39-.86.9-1.92,1.53-2.94,2.13-.37.22-.75.44-1.11.67-3.95,2.54-5.2,4.75-5.36,9.49-.14,4.09-.28,8.32-.3,12.31-.06,9.25.38,19.42,3.93,31.23l36.4-6.1-1.7-18.46c-.03-.28.18-.52.45-.54.27-.02.52.18.54.45l1.75,18.93c.02.26-.16.5-.42.54l-.21.03-37.01,6.2s-.06,0-.09,0Z"/><path d="m182.11,32.6s-.02,0-.03,0c-.28-.02-.48-.26-.47-.53l.09-1.4c.02-.28.27-.49.53-.47.28.02.48.26.47.53l-.09,1.41c-.02.26-.24.47-.5.47Z"/><path d="m167.39,77.98c-1.98,0-4.23-.25-6.83-.75-3.58-.67-7.22-1.71-10.36-2.64-.26-.08-.42-.36-.34-.62.08-.26.36-.42.62-.34,3.11.92,6.73,1.95,10.26,2.61,3.45.66,6.27.87,8.61.63.92-.09,2.61-.44,3.54-1.75.42-.59.63-1.29.85-2.04l.36-1.26c.19-.66.38-1.32.56-1.98,3.43-12.15,6.65-25.31,7.03-39.17,0-.27.23-.49.5-.49h.01c.28,0,.49.24.49.51-.38,13.97-3.62,27.2-7.07,39.41-.18.66-.37,1.32-.57,1.99l-.36,1.27c-.24.79-.48,1.61-.99,2.33-1.16,1.64-3.16,2.07-4.26,2.17-.65.07-1.34.1-2.07.1Z"/><path d="m161.96,63.13c-.44,0-1.46-.29-4.16-1.05-1.23-.35-2.51-.71-3.45-.96-.16-.06-.26-.08-.36-.1l.21-.98-.12.49.14-.48c.14.03.28.07.43.13.89.23,2.18.59,3.41.94,1.31.37,2.89.82,3.55.97,1.31-2.75,2.63-5.69,3.91-8.73,3.49-8.3,6.23-16.32,7.92-23.19.07-.27.33-.43.6-.37.27.07.43.34.37.6-1.7,6.92-4.46,14.99-7.97,23.34-1.34,3.17-2.71,6.24-4.09,9.11-.09.17-.14.28-.41.28Z"/><path d="m134.09,41.05s-.02,0-.03,0c-.28-.01-.49-.25-.47-.53.02-.31.28-1.65.72-3.82.21-1.04.46-2.28.57-2.91-1.09-.31-2.26-1.3-2.91-2.54-.6-1.13-.66-2.23-.17-3.08.54-.92,1.39-1.44,2.4-1.45.86.01,1.76.34,2.48.94,0-.04,0-.08,0-.13.02-1.87.05-3.81.9-5.59.98-2.08,2.67-3.8,4.64-4.74.25-.12.55-.01.67.24s.01.55-.24.67c-1.77.84-3.28,2.4-4.17,4.27-.75,1.58-.78,3.41-.8,5.18,0,.47-.01.94-.03,1.41,0,.22-.16.41-.37.46-.21.05-.43-.03-.55-.22-.55-.87-1.57-1.48-2.48-1.48h-.03c-.66.01-1.18.33-1.55.96-.42.73-.07,1.64.18,2.11.59,1.12,1.75,2.04,2.62,2.11.14,0,.27.08.35.18q.19.23-.54,3.83c-.29,1.44-.68,3.42-.7,3.67-.01.27-.23.47-.5.47Z"/><path d="m150.67,22.21c-.21,0-.41-.14-.48-.35-.08-.26.06-.54.33-.63,5.2-1.65,10.49-3.43,15.61-5.15l4.09-1.37c.26-.09.54.05.63.32.09.26-.05.54-.32.63l-4.09,1.37c-5.12,1.72-10.42,3.5-15.62,5.15-.05.02-.1.02-.15.02Z"/><path d="m179.41,12.7c-.21,0-.41-.13-.48-.35-.08-.26.06-.54.32-.63,1.21-.39,2.41-.78,3.62-1.16.27-.08.54.06.63.33.08.26-.06.54-.33.63-1.21.38-2.41.76-3.61,1.16-.05.02-.1.02-.15.02Z"/><path d="m210.41,31.85c-.27,0-.49-.21-.5-.48,0-.28.21-.51.48-.52.54-.02.92-.13,1.19-.35.35-.28.56-.74.76-1.23,2.86-7.22,2.11-15.8-2.07-23.55-.27-.52-.59-1.02-1.05-1.17-.07-.02-.16-.03-.24-.03-.26-.01-.51.03-.77.09-4.38.97-8.86,2.11-13.79,3.51-.27.07-.54-.08-.62-.34-.08-.27.08-.54.34-.62,4.95-1.4,9.46-2.55,13.77-3.51,0,0,.1-.02.1-.02.32-.06.65-.12,1-.1.15,0,.29.02.47.06.84.26,1.31.98,1.67,1.66,4.32,8,5.09,16.89,2.11,24.39-.25.6-.53,1.21-1.06,1.63-.58.47-1.29.54-1.78.56h-.02Z"/><path d="m210.14,31.86c-.24,0-.48,0-.71-.03-7.12-.44-14.24-.89-21.36-1.34-1.89-.11-3.78-.23-5.67-.35-.28-.02-.48-.26-.47-.53.02-.28.27-.49.53-.47,1.89.12,3.78.24,5.67.35,7.12.46,14.24.9,21.36,1.34.29.02.59.03.87.02.3-.02.51.21.52.48,0,.28-.21.51-.48.52-.08,0-.17,0-.26,0Z"/><path d="m173.65,29.58s-.02,0-.03,0c-6.88-.42-13.78-.86-20.66-1.29-.89-.04-1.76-.12-2.56-.52-.58-.28-1.07-.76-1.39-1.37-.06-.1-.11-.23-.17-.36,0,0-.04-.1-.04-.1-.55-1.53-.16-3.64,1.45-4.51.24-.13.55-.04.68.2.13.24.04.55-.2.68-1.12.61-1.39,2.19-.99,3.3.06.15.1.24.15.32.23.44.56.77.95.96.63.31,1.39.38,2.17.42,6.89.43,13.78.87,20.66,1.29.28.02.49.25.47.53-.02.27-.24.47-.5.47Z"/><path d="m210.71,31.87c-.11,0-.22,0-.33-.02-4.22-.54-5.9-9.24-6.08-10.23-.85-4.85-2.83-16.2,4.56-18.01.27-.06.54.1.6.37.07.27-.1.54-.37.6-6.48,1.58-4.61,12.29-3.81,16.86.56,3.09,2.35,9.04,5.16,9.41.11,0,.19.02.27.02.28,0,.5.22.5.5s-.22.5-.5.5Z"/><path d="m181.12,71.76c-.23,0-.45-.01-.68-.04-.33-.04-.6-.05-.86-.07-1.14-.08-1.89-.14-4.61-1.21,0,0-.02,0-.03-.01-.02,0-.04-.02-.05-.02-.25-.12-.36-.42-.24-.67.12-.25.42-.35.67-.24.03,0,.05.02.08.03,2.53,1,3.18,1.04,4.26,1.12.27.02.55.04.9.08,1.38.15,2.73-.25,3.81-1.13,1.08-.88,1.74-2.11,1.87-3.49,1.3-13.53,1.49-23.77,1.36-35.91,0-.28.22-.5.5-.5.29-.03.5.22.5.5.13,12.17-.06,22.44-1.37,36.01-.16,1.64-.95,3.12-2.24,4.17-1.11.9-2.46,1.38-3.87,1.38Z"/><path d="m213.16,221.25c-.83,0-1.67-.01-2.5-.03-3.49-.1-7.03-.12-10.45-.14-2.92-.02-5.95-.03-8.94-.1-1.38-.03-2.77-.12-4.11-.2-2.22-.14-4.52-.29-6.8-.17-4.01.2-8.17.09-12.2,0-2.34-.06-4.76-.12-7.11-.12h-19.83c-2.55,0-5.11-.02-7.66-.04-2.74-.03-5.48-.06-8.21-.1-2.72-.04-5.45-.07-8.17-.1-5.64-.05-13.02-.08-20.45.2-.41,0-.81.02-1.21.04l-.6.02c-1,.04-2.08.02-3.29-.06-.78-.05-1.56-.12-2.33-.18-1.45-.12-2.95-.25-4.41-.26-4.62-.01-9.7.04-15.99.17-1.92.03-3.84.07-5.76.1-3.81.07-7.62.14-11.43.18-2.26.03-4.54.04-6.8.04H.94c-.28,0-.5-.22-.5-.5s.22-.5.5-.5h43.95c2.26,0,4.53,0,6.79-.04,3.81-.04,7.62-.11,11.43-.18,1.92-.04,3.84-.07,5.77-.1,6.29-.12,11.38-.18,16.01-.17,1.5,0,3.02.14,4.5.26.77.07,1.54.13,2.31.18,1.18.08,2.22.1,3.19.06l.59-.02c.41-.02.82-.03,1.23-.04,7.43-.27,14.83-.25,20.44-.2,2.76.03,5.49.06,8.21.1,2.73.04,5.47.07,8.21.1,2.55.02,5.1.04,7.65.04h19.83c2.36,0,4.79.06,7.13.12,4.01.1,8.15.21,12.12.01,2.35-.12,4.67.03,6.91.17,1.33.08,2.7.17,4.07.2,2.99.07,6,.08,8.92.1,3.43.02,6.97.04,10.48.14,4.37.12,8.84-.12,13.17-.35,3.52-.19,7.16-.39,10.73-.39h43.47c.28,0,.5.22.5.5s-.22.5-.5.5h-43.47c-3.55,0-7.17.2-10.68.39-3.53.19-7.15.39-10.75.39Z"/><path d="m187.02,15.49c-.18,0-.36-.03-.54-.08-.11-.03-.23-.08-.36-.14-.14-.06-.28-.12-.37-.12-.25.13-.5.02-.63-.23-.13-.25.01-.56.26-.68.36-.19.84-.01,1.14.12.08.04.17.07.25.1.44.14.92-.13,1.2-.4.35-.35.58-.84.82-1.36.06-.13.19-.26.33-.3.14-.04.31-.04.43.04.69.46,1.41.86,1.98.62.48-.2.76-.81.98-1.44.54-1.54.95-2.83,1.29-4.08l.52.02-.49-.12c.16-.58.27-1.06.11-1.43-.25-.59-1.1-.78-1.77-.84-4.91-.47-7.5,1.32-8.66,6.01-.19.74-.35,1.61-.49,2.65-.03.25-.06.51.01.7.18.21.16.56-.05.74-.21.18-.51.18-.69-.03-.1-.12-.15-.24-.19-.33-.16-.43-.12-.85-.08-1.2.14-1.08.31-1.99.51-2.77,1.27-5.13,4.36-7.27,9.72-6.76,1.34.12,2.24.61,2.59,1.44.31.71.1,1.49-.05,2.05-.02.07-.04.14-.08.23-.31,1.17-.73,2.49-1.28,4.06-.31.85-.7,1.69-1.54,2.03-.88.37-1.79-.03-2.43-.41-.22.44-.46.85-.81,1.2-.49.47-1.08.73-1.65.73Z"/><path d="m181.99,32.19s-.06,0-.09,0c-.27-.05-.45-.31-.4-.58.06-.34.14-.69.22-1.03.05-.31.13-.66.21-1,.4-1.76.86-3.5,1.3-5.18.64-2.44,1.31-4.97,1.79-7.5.12-.57.22-1.4.09-2.12-.09-.52-.28-.87-.58-1.08-.55.39-1.04.9-1.43,1.48-.4.59-.67,1.23-.81,1.89l-.05.24c-.16.79-.36,1.77-1.25,2.16-.82.36-1.36.13-1.68-.13-1.63-1.34-.66-6.69-.64-6.74.05-.23.16-.45.33-.69.19-.26.43-.47.65-.69.73-.67.93-.92.33-1.62-.16-.18-.3-.31-.45-.41-2.07-1.47-5.66.67-7.03,2.08-1.09,1.13-1.61,2.37-1.64,3.92-.03,1.66.54,3.45,1.09,5.17.15.46.29.92.43,1.38.73,2.46,1.32,4.9,1.75,7.25.05.27.1.55.15.83l.07.37c.05.27-.13.53-.4.58-.28.05-.53-.13-.58-.4l-.07-.38c-.05-.27-.09-.54-.15-.81-.42-2.32-1-4.72-1.73-7.15-.13-.45-.28-.9-.42-1.36-.58-1.8-1.17-3.67-1.14-5.49.03-1.79.65-3.29,1.92-4.59,1.88-1.94,5.82-3.98,8.32-2.21.21.14.41.33.63.57,1.27,1.47.23,2.43-.39,3.01-.2.19-.39.37-.53.55-.09.12-.14.22-.16.32-.27,1.19-.58,5.02.3,5.75.06.05.22.17.64,0,.42-.18.55-.82.67-1.44l.05-.25c.16-.78.48-1.54.95-2.24.52-.79,1.2-1.45,1.97-1.93.14-.08.31-.1.46-.04.52.21,1.19.72,1.41,1.95.16.87.04,1.83-.09,2.49-.49,2.56-1.16,5.1-1.81,7.56-.44,1.67-.9,3.4-1.29,5.1-.09.38-.16.7-.22,1.03-.09.35-.16.68-.22,1.01-.04.24-.25.41-.49.41Z"/><path d="m174.5,13.89c-.05,0-.1,0-.15-.02-.26-.09-.41-.37-.32-.63.79-2.43,3.03-4.32,5.57-4.7.27-.04.53.15.57.42s-.15.53-.42.57c-2.17.33-4.09,1.94-4.76,4.02-.07.21-.26.35-.48.35Z"/><path d="m165.73,53.94c-.07,0-.13-.01-.2-.04-2.58-1.13-5.71-2.34-8.74-3.52-3.13-1.22-6.37-2.48-9.04-3.65-.25-.11-.37-.41-.26-.66.11-.25.41-.36.66-.26,2.65,1.17,5.88,2.42,9,3.63,3.04,1.18,6.18,2.4,8.78,3.54.25.11.37.4.26.66-.08.19-.27.3-.46.3Z"/><path d="m169.23,107.05c-.16,0-.32-.08-.42-.22-2.35-3.48-4.69-6.97-7.03-10.45-.15-.23-.09-.54.14-.69.23-.15.54-.09.69.14,2.34,3.48,4.68,6.96,7.03,10.45.15.23.09.54-.14.69-.09.06-.18.08-.28.08Z"/><rect width="279" height="224" fill="none"/></svg>