<svg xmlns="http://www.w3.org/2000/svg" viewBox="0 0 1380 420" width="1380" height="420">
  <!-- UBS Logo with keys symbol and UBS text -->
  <!-- Black keys symbol on left -->
  <g>
    <path d="M243.4,0 L243.4,48.7 L219.1,73 L219.1,24.3 L243.4,0 Z M170.5,24.3 L170.5,73 L146.1,48.7 L146.1,0 L170.5,24.3 Z M97.6,48.7 L97.6,97.4 L73.3,73 L73.3,24.3 L97.6,48.7 Z M24.7,73 L24.7,121.7 L0.4,97.4 L0.4,48.7 L24.7,73 Z M48.9,146.1 L48.9,194.8 L24.6,170.4 L24.6,121.7 L48.9,146.1 Z M73.2,219.1 L73.2,267.8 L48.9,243.5 L48.9,194.8 L73.2,219.1 Z M146.1,243.5 L146.1,292.2 L121.8,267.8 L121.8,219.1 L146.1,243.5 Z M219,267.8 L219,316.5 L194.7,292.2 L194.7,243.5 L219,267.8 Z" fill="#000000"/>
    <path d="M121.8,121.7 C121.8,136.2 110,147.9 95.5,147.9 C81,147.9 69.3,136.2 69.3,121.7 C69.3,107.2 81,95.4 95.5,95.4 C110,95.4 121.8,107.2 121.8,121.7 Z" fill="#000000"/>
    <path d="M174.6,174.5 C174.6,189 162.8,200.8 148.3,200.8 C133.8,200.8 122.1,189 122.1,174.5 C122.1,160 133.8,148.3 148.3,148.3 C162.8,148.3 174.6,160 174.6,174.5 Z" fill="#000000"/>
    <path d="M121.8,227.4 C121.8,241.9 110,253.6 95.5,253.6 C81,253.6 69.3,241.9 69.3,227.4 C69.3,212.9 81,201.1 95.5,201.1 C110,201.1 121.8,212.9 121.8,227.4 Z" fill="#000000"/>
  </g>
  
  <!-- Red UBS text on right -->
  <g transform="translate(575, 0)">
    <path d="M0,0 C0,0 0,420 0,420 C0,420 140,420 140,420 C140,420 245,420 245,420 C245,420 245,0 245,0 C245,0 140,0 140,0 C140,0 0,0 0,0 Z M140,84 C140,84 140,336 140,336 C140,336 105,336 105,336 C105,336 105,84 105,84 C105,84 140,84 140,84 Z" fill="#FF0000"/>
    <path d="M350,0 C350,0 350,420 350,420 C350,420 595,420 595,420 C595,420 595,336 595,336 C595,336 455,336 455,336 C455,336 455,252 455,252 C455,252 560,252 560,252 C560,252 560,168 560,168 C560,168 455,168 455,168 C455,168 455,84 455,84 C455,84 595,84 595,84 C595,84 595,0 595,0 C595,0 350,0 350,0 Z" fill="#FF0000"/>
    <path d="M700,0 C700,0 700,420 700,420 C700,420 945,420 945,420 C945,420 945,336 945,336 C945,336 805,336 805,336 C805,336 805,0 805,0 C805,0 700,0 700,0 Z" fill="#FF0000"/>
  </g>
</svg>